<svg id="Capa_2" data-name="Capa 2" xmlns="http://www.w3.org/2000/svg" viewBox="0 0 360.92 204.87"><defs><style>.cls-1{fill:#b5b19d;}</style></defs><title>apure</title><path class="cls-1" d="M780.88,415.41c-12.71-.41-25.46.1-38.14-1.31-3.46-.38-6.87-1.18-10.33-1.66-3.18-.44-4.82-2.34-5.5-5.31-2.39-10.46-4.69-20.95-4.61-31.77,0-3.91-3.13-5.16-5.63-5.28-11-.53-21.75-2.92-32.62-4.35-6.63-.87-12.91.54-19.33,1.18a133.72,133.72,0,0,1-36.56-1.12c-6.38-1.12-12.81-1.72-19-3.74-3.9-1.26-8.17-.54-12.29-.2-11.85,1-23.76,1.36-35.45-1.13s-21.91-8-28.63-18.71c-4-6.43-2.47-11.75,4.93-13.76A109.36,109.36,0,0,0,563.18,318c7.92-4.47,17.13-6.77,25.9-9.64,7.78-2.55,14.93-6.32,22-10.33,8.56-4.87,13.56-13.16,19.28-20.64a167.52,167.52,0,0,0,11.73-18.28c3.74-6.46,7-13.19,10.48-19.83a74.69,74.69,0,0,1,15.07-19.45c6.5-6.24,14.67-8.34,23.28-8.94,14.08-1,27.75,1.16,40.37,7.54,14.91,7.54,29.77,15.25,43.35,25.13,1.11.81,2.32,1.47,3.51,2.17,3.32,1.95,6.53,3.46,10.78,3.24a23,23,0,0,1,13.77,4.18,127.23,127.23,0,0,1,16,12.31c1.1,1,2.07,1.92,3.85,1.88a72,72,0,0,1,39.82,10.86,67.28,67.28,0,0,1,26.83,30.23c4.27,9.26,2.2,17.85-3.64,25.62a53.5,53.5,0,0,1-11.48,11.25,6.09,6.09,0,0,0-2.7,6.08c.38,4.35.49,8.73.65,13.09a15.23,15.23,0,0,1-1.61,6.86,51.12,51.12,0,0,1-15.92,20c-4.51,3.43-7.81,8.44-13.32,10.69-10.61,4.34-21,9.48-32.34,11.61A124.1,124.1,0,0,1,780.88,415.41Z" transform="translate(-530.57 -210.66)"/></svg>