<svg id="Capa_4" data-name="Capa 4" xmlns="http://www.w3.org/2000/svg" viewBox="0 0 261.79 150.29"><title>Artilleria</title><path d="M327.06,254c-2.37-1.36-2.36-1.36-3.3,1.08q-11.52,30.22-23,60.45a1.65,1.65,0,0,1-1.88,1.27q-6.62-.07-13.21,0c-1,0-1.45-.16-1.43-1.33.07-4.75,0-9.49,0-14.24,0-.9.21-1.23,1.13-1.15s2-.09,2.93,0c1.32.18,1.84-.43,2.32-1.56q11.43-26.79,22.95-53.52a2,2,0,0,0-.31-2.45,31.6,31.6,0,0,1-4.34-6.77,1.19,1.19,0,0,0-1.65-.78A15.77,15.77,0,0,1,292,208.88a15.21,15.21,0,0,1,13.3-4.74c1,.11,1.41-.17,1.75-1.12a41.09,41.09,0,0,1,42.75-26.61c4.62.44,9.28.32,13.92.45,5.67.17,11.34.32,17,.51.81,0,1.26,0,1.46-1a3.73,3.73,0,0,1,4-3.19q9.92,0,19.81.08a3.92,3.92,0,0,1,4,4c0,.79.21,1,1,1q13.2.3,26.39.67,18.54.53,37.07,1.08,17.82.51,35.62,1c7,.19,14,.37,21,.61,1,0,1.52,0,1.23-1.18-.17-.7.25-.91.91-.95,3-.15,5.95-.32,8.92-.54.91-.07.88.42.92,1.06.35,6,.75,12,1.1,18,.65,11,1.26,22,2,32.93.07,1.17-.24,1.37-1.3,1.41q-4.25.12-8.48.48c-.85.07-1.07-.17-1-.91.15-1.17-.56-1.11-1.35-1q-23.28,3.45-46.55,6.9l-40.74,6c-2.47.37-4.92.77-7.38,1.15-.84-.08-.86-.85-1.09-1.37A56.67,56.67,0,0,0,425,224.66a58.15,58.15,0,0,0-79.26-1.28,58,58,0,0,0-16.79,26.39c-.32,1-.53,2.09-.84,3.12C327.94,253.42,327.89,254.1,327.06,254Z" transform="translate(-284.22 -173.17)"/><path d="M384.64,323.46c-31.36.15-57.2-25.79-56.85-57.53a56.89,56.89,0,0,1,113.78.64C441.76,297.84,416.08,323.46,384.64,323.46Z" transform="translate(-284.22 -173.17)"/><path d="M380,232.07c0,4.06,0,8.12,0,12.17,0,1.06-.36,1.39-1.32,1.66a20.07,20.07,0,0,0-9.11,5.35,1.24,1.24,0,0,1-1.83.23c-7.12-4.16-14.26-8.3-21.44-12.35-1.08-.61-.27-.93,0-1.27a47.69,47.69,0,0,1,22-16.37,48.35,48.35,0,0,1,10.95-2.58c.61-.07.81-.06.8.7-.06,4.16,0,8.31,0,12.46Z" transform="translate(-284.22 -173.17)"/><path d="M399.59,250.8c-2.95-2.28-6-4.31-9.76-5.14-.61-.14-.52-.61-.52-1,0-8.31,0-16.62,0-24.93,0-.81.28-.84.95-.75a47.78,47.78,0,0,1,27.38,12.8,43.77,43.77,0,0,1,5.54,6.24c.32.43.72.69-.13,1.17-5.87,3.3-11.69,6.69-17.53,10-.67.39-1.39.69-2.09,1A5.64,5.64,0,0,1,399.59,250.8Z" transform="translate(-284.22 -173.17)"/><path d="M357.83,256.93c-2.69.41-5.37.85-8.07,1.22a43.29,43.29,0,0,1-11.48-.34.91.91,0,0,1-.58-1.25,49.55,49.55,0,0,1,3.28-9.78l12.88,7.44c1.1.64,2.2,1.26,3.29,1.91C357.46,256.31,358,256.37,357.83,256.93Z" transform="translate(-284.22 -173.17)"/></svg>