<svg id="Capa_1" data-name="Capa 1" xmlns="http://www.w3.org/2000/svg" viewBox="0 0 786.19 369.54"><defs><style>.cls-1{fill:#b5b19d;}</style></defs><title>asuay</title><path class="cls-1" d="M571.47,535.46c-11.91-.83-23.61,1.41-35.38,2.68-5.33.58-10.71.74-16.07,1-18.6.84-37.21,1-55.83.79-19.13-.23-38.12,2-57.18,3-18.47,1-36.94,0-55.4-1-6.06-.31-12.21.53-18.27,1.23-11,1.26-21.95-.28-32.92-.43-6.61-.09-13.23-1.35-19.8-1-14.18.7-27.46-2.8-40.61-7.38-4.48-1.56-8.88-3.42-13.45-4.63-9.06-2.4-15-8.66-20.31-15.74a18,18,0,0,1-3.94-9.2c-.57-6.45-4.6-12.33-3.5-19,1.77-10.73,1.69-21.62,3.28-32.34,1.15-7.78-.27-15.17-2.63-22.46a10.74,10.74,0,0,0-4.91-5.93c-5.56-3.34-11.07-6.78-16.62-10.15-12.36-7.51-19.14-18.13-19.05-32.94,0-6.5,3.32-11.42,6.83-16.24,3.09-4.23,6.75-8,10-12.12,7.68-9.61,17.6-16.61,27.73-23.2,5.17-3.36,11.55-4.56,17.48-6.48,7.5-2.43,14.31-5.93,18.92-12.71a5.11,5.11,0,0,1,1.87-1.8c4.71-2.15,5.06-6.37,5.08-10.66.06-12,.18-24,0-36-.15-8.39.59-16.72.81-25.09a77.83,77.83,0,0,0-3.05-24.4c-3.18-10.77.46-20.23,6.83-28.28,10-12.63,20.11-13,34.51-7.45a14,14,0,0,1,6.81,5.68c1.07,1.69,2.08,3.41,3.13,5.11,1.24,2,2.05,4.68,3.85,5.89,2,1.36,4.26-1.16,6.52-1.6a24.26,24.26,0,0,1,8.54-.19c14.6,2.34,27.89,8.24,40.79,15.09,7.6,4,15,8.51,22.41,12.85,7.81,4.57,16.53,5.61,25.24,6,13.59.52,27.2-.22,40.78-1.18,7.23-.51,14.47-.21,21.71-.58s14.65-1.32,22-2c12.42-1.09,23.29,2.46,33,10.3,6.61,5.34,11.39,12.24,16.51,18.78,5.82,7.43,13.61,11.5,21.78,15.23,11.34,5.17,23.35,8.89,34.24,15,5.86,3.3,11,1.56,16.27-1A63.49,63.49,0,0,0,616,277.3c5.88-3.76,12-1.69,16.2,2.75,4,4.24,8.57,7.59,13.07,11.14,7.52,5.93,14.92,12,22.06,18.38s15.09,12.31,22.94,18.06c9.35,6.83,18.21,14.36,28.33,20.11,5.47,3.11,11.72,3.16,17.59,4.65,5.43,1.39,11,2.17,16.51,3.21s9.87,4.22,14.51,6.76c14.45,7.92,29,15.83,42.77,24.78,7.83,5.08,16.32,6.38,24.9,7.78,10.84,1.76,21.57,4,32.36,6,4.28.77,8.71.69,13,1.4,7.59,1.24,14,5.24,20.21,9.45,12.21,8.24,24.54,16.31,36.47,25a59.66,59.66,0,0,0,5.56,3.06c1.75,1,3,2.37,2.55,4.54a4.19,4.19,0,0,1-4,3.42c-17.29,1.88-34.63,2.29-51.86-.07-9.88-1.36-19.68-3.58-29.66-3.48a170.86,170.86,0,0,0-38.06,4.61c-6.43,1.54-13,2.7-19.31,4.49-7.83,2.21-15,6.14-22.33,9.57-17.88,8.38-36.82,13.95-55,21.59-16.24,6.83-32.4,13.75-47.82,22.31a66.54,66.54,0,0,1-8.54,3.81c-12,4.62-23.27,10.9-35.35,15.33C613.21,533.19,592.76,536.93,571.47,535.46Z" transform="translate(-158.88 -174.14)"/></svg>