<svg id="Capa_5" data-name="Capa 5" xmlns="http://www.w3.org/2000/svg" viewBox="0 0 287.81 228.08"><title>caballeria</title><path d="M552.8,302.42c-2.06-2.06-5.8-13.11-11.61-15.17s-35.38-5.05-35.38-5.05-11.05-6.93-13.86-8.62-24.71-7.3-24.71-7.3l-12.17-6.55s2.43-4.31,1.12-6.55-8.24-7.87-8.24-7.87l-3.93-5.8-4.12-.19s-7.48-19.28-9.36-23.78-4.16-11.6-8.35-15.16a84.6,84.6,0,0,0-8.31-6.18s3.18-.94,2.81-1.5a25,25,0,0,0-3-2.43s2.81-3.93,1.5-6.37-15.54-8.61-16.66-8.05-1.5,4.68-1.5,4.68-9.55-1.31-9.92.19,4.23,6,4.23,6-1,3.26-.64,3.93,1.23,2.83,1.23,2.83-1.13,2.88-.87,3.6,2.42.62,2.42.62.15,2.26.61,2.57a10.5,10.5,0,0,1,1.65,1.34c.05.16.26,2.78,1.54,3s4.43-1.39,4.43-1.39l.26,2.41a6.25,6.25,0,0,0-2.79,3.68c-.47,2.34-3.93,13.86-3.93,13.86l-4.63,3.93-32.53-13.58-2.34,2.72,29.67,14.51s-5.83,5.62-6.56,6.08-3.74-.09-3.92,0-4.12,3.09-4.31,4.5-5.05,4.58-5.24,6.46-2.62,1.87-2.62,1.87-14.61-10.58-14.61-9.27-3.37,6-3.37,6-11.6-6.27-13.94-6.92-4.12-1.13-4.12-1.13.84-6.55-1.78-9c-4.49,2-5.34,10.77-5.34,10.77S307.44,250.93,304,253.83s-11.33,10.39-13.57,12.26-7.87,7.4-7.87,7.4-2.71,0-3.46,1.4.56,4.4.56,4.4-.75,4.68.28,6.28,4.59,3.46,7,3.65a36.16,36.16,0,0,0,4.78,0l2.15-3s3.09,3.07,4.77,3.08,4.4-2.61,4.4-2.61,2.16,1.87,2.25,1.59,12.45-10.48,16.76-10.39,7.3,2.15,9.64,7,11.89,19.57,16.57,24.25,12.07,19.09,15.07,22.65,11.61,7.3,11.61,7.3-7.87,18.35-7.87,20.78,3.75,9.37,6,9.55,27,1.5,27,1.5l1.94-3.18s4.23,3.74,7.23,5.8,16.29,9.55,19.28,13.48,5.43,6.55,6.18,8.8a3,3,0,0,0,2.62,2.25s.75,4.87,3,5.05,6.36.75,6.36.75-.37-9,0-9.55,3.94-5,3.94-5v-5.43s8.05-10.67,13.1-14.79,16.48-10.67,16.48-13.29S476,339.86,476,339.86s13.67-1.12,15.16,2.25-2.62,11.42-2.62,11.42-5.8,12-5.43,13.85,0,6.18,1.13,6.93,10.11-1.31,11-2.81-.93-8.8-.93-8.8,7.86-20,10.29-21.9,2.44-5.81,1.88-7.3-12.36-4.87-13.11-5.25-6.74-6.18-6.74-6.18,9.92-11.42,12.36-17.22a65.24,65.24,0,0,0,3.55-12.73s4.17-2.44,4.24-2.62,11.49,8.42,18.42,12.73,13.29,10.48,20,9.73,21.35-3.55,21.35-3.55S554.86,304.48,552.8,302.42ZM379.06,361.77a9.24,9.24,0,0,1-1.13-3.19c-.37-2.06,6.93-8.05,6.93-8.05l12.54,10.3Zm21.71-119.08V250s-3.18-.56-4.86.19-2.25,6-2.25,6l-3.74-5.05s-1.88-1.13-3.37,0S390.1,258,390.1,258a41.49,41.49,0,0,0-4.4,4.5c-.84,1.31,0,8.42,0,8.42s-5-3.18-5.52-3.37-3.37-4.49-3.37-4.49a12.21,12.21,0,0,0-2.81-6.37c1.5-3,0-8.05,0-8.05s3.56-2.81,4.31-2.06,5.43,0,5.43,0l1.68-3.37s2.06-1.31,3.37-1.12,8.61-5.62,8.61-5.62l6,3.75Zm64.36,113.46c-.42,1.71-16,13-19.76,17.2s-5,14.3-5,14.3l-3.37-4.2a60.22,60.22,0,0,0-11.53-9.25c-7.32-4.63-15-12.43-15-12.43s8-2.71,7.57-5.62-9.67-1.72-9.67-1.72l-5-3.9V340.14s8.76-1.26,11.28-2.1,2.94-5.47,2.94-5.47a43.43,43.43,0,0,0,13.88-1.68c6.3-2.1,16-9.67,16-9.67,2.11,5,10.52,8.41,10.52,8.41l7.14,17.24S465.55,354.43,465.13,356.15Z" transform="translate(-278.85 -175.82)"/></svg>