<svg id="Capa_4" data-name="Capa 4" xmlns="http://www.w3.org/2000/svg" viewBox="0 0 608.77 653.53"><defs><style>.cls-1{fill:#b5b19d;}</style></defs><title>cauca</title><path class="cls-1" d="M477.26,199.87a15.64,15.64,0,0,0,3.7-4.25,18.74,18.74,0,0,1,4.94-4.54,3.74,3.74,0,0,1,4.5.13c1.33.92,1.32,2.31,1,3.7-1.44,7.15,1.44,13,5.56,18.46a31.65,31.65,0,0,0,9.31,7.84c2,1.23,2,3.09,1.35,5.08-1.82,5.52-4.54,10.61-7.19,15.75-7.43,14.4-14.84,28.8-21.31,43.67-1,2.2-2,4.39-3.11,6.51-3.91,7.3-6.89,15-10.14,22.6a22.9,22.9,0,0,1-2.38,4.45c-4.56,6.27-6.4,13.8-9.66,20.67a69.26,69.26,0,0,1-12.24,17.72,23.11,23.11,0,0,0-5.77,11.19,2.08,2.08,0,0,0,1.16,2.72c3,1.63,6,3.47,8.92,5.22,2.79,1.64,4.55,4.27,6.37,6.81,1,1.37,2.23,2,3.72,1.35,4-1.77,8.32-2.95,11.71-6a34.7,34.7,0,0,0,7.87-10.82A146.85,146.85,0,0,1,487.5,347c4.35-6.22,10-10.62,17.8-10.85a33.38,33.38,0,0,1,17.91,4.83c.62.37,1.23.75,1.84,1.14,4.24,2.71,8.49,4.94,13.71,5.84,9.46,1.63,16.34,7.79,22,15.25a72.67,72.67,0,0,1,5.33,7.73,15.38,15.38,0,0,0,6.26,5.8,7.4,7.4,0,0,0,7.3.19c6.28-3,12.42-6.33,19.19-8.25A66.78,66.78,0,0,0,614,362a20.25,20.25,0,0,1,11.25-2.84,42.45,42.45,0,0,0,19.43-3.73c4.17-1.88,8.42-3.56,12.68-5.2,5.23-2,10.69-1.75,16.16-1.66,8.42.14,16.77,2.05,25.18,1.35,10.44-.87,20.83-1.93,30.84-5.69a18.67,18.67,0,0,0,9.18-7.08c5.3-7.48,13-10.51,21.7-11.86a107.13,107.13,0,0,1,19.89-1.4c7.52.25,13.49-3,18.89-7.72,1.7-1.48,3.53-2.78,5.31-4.14,2.88-2.22,6.12-1.3,9.27-.93,7.33.87,14.64,1.55,22,.72,6.07-.68,11.23-2.79,15-7.82,1.3-1.74,3.33-2.76,4.92-4.22s3.4-.64,5-1.41c2.46-1.17,5.08-2,7.5-3.27,7.25-3.72,16.44-.72,21.3,6a88.6,88.6,0,0,0,17.21,17.39c7.84,6.24,15.61,12.58,23.66,18.55,4.39,3.26,4.81,7.62,1.83,12.86a38.57,38.57,0,0,1-6.49,8.33,16.13,16.13,0,0,0-3.83,6c-2.45,6.69-7.26,8.8-14,6.2-5.13-2-5.25-1.92-4.81,3.43.21,2.56.73,5.11.72,7.66,0,4.94-2.42,11.38-9.43,10.85-1.92-.14-3.86-.08-5.78-.09-3.29,0-5.12,1.39-5.67,4.65-.41,2.45-.66,4.92-.91,7.39-.38,3.83-.64,7.67-1,11.5-.68,6.34,2.22,11.55,5.28,16.65,3.26,5.43,6.45,10.91,9.72,16.33,4.21,7,8.72,13.81,15.38,18.82,4.42,3.33,5.52,7.65,5.06,13.1a201.51,201.51,0,0,0-.12,23.83c.42,12.85,3.52,25.39,4.2,38.21.21,3.91,1.18,7.79,1.36,11.7.27,5.84-.4,11.67-.91,17.5a7.23,7.23,0,0,1-3.73,5.82C912,581.12,906,583,900.22,585.48c-9.83,4.15-19.79,8-29.56,12.27a76.63,76.63,0,0,0-23.56,15.56,53.64,53.64,0,0,0-9.54,12.81A46.09,46.09,0,0,1,826.49,639c-3.61,3.08-8.56,4-13.13,5.09a68,68,0,0,0-17.86,7.64c-5.06,2.93-10.34,4.59-16.29,3.85a31.05,31.05,0,0,0-7.21,0c-5.6.63-9,4.13-11.23,9a84.53,84.53,0,0,1-15.14,22.15c-2.86,3-3.85,2.87-7.41.69-7.94-4.86-15.4-10.45-23.09-15.67-5.75-3.91-11.78-7-18.49-8.29-6-1.2-12.22-1.62-18.35-2.26a11.58,11.58,0,0,0-4,.45c-3.88,1-7.44,0-11-1.37a30.49,30.49,0,0,0-4.58-1.47c-4.09-.79-7.19-3.39-9.73-6.23a22.29,22.29,0,0,0-7.5-5.77c-6.3-2.86-11.38-7.47-16.84-11.53a4.63,4.63,0,0,0-3.06-1.13c-10.48.36-19.91-2.78-29.09-7.77-10.51-5.72-19.27-13.51-28.07-21.36-9.7-8.66-19.42-17.3-29.24-25.82-7.2-6.26-14.92-11.9-21.6-18.77s-11.23-15-15.12-23.55c-1.36-3-.79-6.16-1.15-9.24-1.6-14-8-24.87-21-31.22-7.93-3.88-16-7.47-23.86-11.46A277.53,277.53,0,0,0,423,471.89c-3.05-1.12-5.94-1.4-9.12.61-4.21,2.67-9.25,2.69-14,2-10-1.44-16.94-6.83-21-16.28-1.89-4.4-3.57-8.77-4.1-13.49a34.17,34.17,0,0,1,.84-13.1c1-3.4,1.34-7.12,3.65-10.09.7-.9-.13-1.08-.74-1.25-10.86-3.1-19.94-9.87-30-14.68a109.35,109.35,0,0,1-20.68-12.71c-2.9-2.31-3.24-4.35-.69-7,1.8-1.9,2-4.2,2.32-6.59a48.5,48.5,0,0,1,5.82-17c2.51-4.38,3.78-9.18,5.32-13.9.59-1.83,1.25-3.64,1.85-5.46a15,15,0,0,1,10-10.24c4-1.3,7-4.22,10.3-6.56,2.23-1.56,4.43-3.17,6.58-4.85,2.83-2.22,6.41-2.87,9.85-3.65a4.06,4.06,0,0,0,2.92-2.2c4.48-8,10.51-14.95,16.12-22.16a39.2,39.2,0,0,1,11-9.3c4.65-2.78,6.11-6.89,6.65-11.73.67-6-1.31-11.18-4.6-16.18-5.77-8.74-7.8-18-2.69-27.92a96.31,96.31,0,0,0,9-25.56c1.09-5.64,1.24-11.4-1.54-16.91-2.36-4.67-3.39-9.86-4.33-15-.73-4,.75-7.72,2.16-11.43,2.4-6.28,5.6-12.22,7.18-18.86,1.48-6.21-1.29-17-8.21-20.23-4.14-1.92-4.34-4-3.3-8A33.62,33.62,0,0,1,421.61,93.6c2.84-2.23,5.82-4.28,8.66-6.51,4-3.13,5.32-7.52,5.87-12.35.77-6.71-1.58-13-2.48-19.43-.79-5.71-1.46-11.44-.42-17.22.35-2,1.17-2.74,3.23-2.37,3.75.68,3.88.76,4.87,4.46,1.49,5.6,3.19,11.12,6.91,15.74,1.39,1.72,2.51,3.54,5.28,3.54,2.12,0,3.19,1.81,2.87,4.44-1.14,9.3-1.7,18.67-3.49,27.89a43.6,43.6,0,0,0-.72,6.45,151.76,151.76,0,0,0,.53,22c1.17,11.4,4.39,22.17,8.3,32.78,2.15,5.85,5.12,11.41,7.7,17.11,1.74,3.87,3.86,7.64,5.06,11.67,1.64,5.5,3.14,11.11,3.31,16.93A9.16,9.16,0,0,0,477.26,199.87Z" transform="translate(-325.42 -35.63)"/></svg>