<svg id="Capa_1" data-name="Capa 1" xmlns="http://www.w3.org/2000/svg" viewBox="0 0 645.02 548.39"><defs><style>.cls-1{fill:#b5b19d;}</style></defs><title>cundinamarca</title><path class="cls-1" d="M88.44,262.46c-1.17,1.66-2.11,3.11-3.16,4.45-4.27,5.41-10.34,4.91-13.69-1.2a32.11,32.11,0,0,1-3.08-9.43C66,243.34,59.92,232,52.42,221.42c-6.35-8.94-11.34-18.24-13.29-29.17-1.21-6.76-3.58-13.27-6.06-19.66-4.22-11-4.91-22.49-4.82-34.06a83.37,83.37,0,0,0-.54-13.22c-1.11-7,.21-13.89,2.37-20.33,3.58-10.69,4.29-21.92,7.21-32.64,3.24-11.91,3.34-24,4.29-36.06.57-7.43.81-14.93,2.74-22.24,2-7.86,12.24-11.94,19-7.24a23.58,23.58,0,0,0,9,3.93,16.5,16.5,0,0,1,7.87,3.74c3.34,2.88,6.71,5.76,9.83,8.91,4.23,4.3,5.39,9.83,5.19,15.65-.19,5.51-1.35,10.89-2.44,16.32-3.61,17.9-7.45,35.86-4.59,54.32a27.65,27.65,0,0,0,4,11c4.47,6.88,8.68,6.78,13.45.45a140,140,0,0,0,10-15.9,238.3,238.3,0,0,1,27-38c6.41-7.48,14.46-10,23.76-10.43a46.18,46.18,0,0,1,17.3,2.84c5,1.69,8,5.79,10.46,10,5.26,9,7.39,18.68,7.08,29.25-.37,13.18-3.48,25.71-7.11,38.2-.43,1.49-1.29,3.2.51,4.35,1.62,1,2.71-.52,3.93-1.18,11.47-6.2,20.54-15.51,30.39-23.77,4.61-3.86,9.15-7.82,14-11.4,6.17-4.57,13.06-5.34,20.33-3.94,3.71.74,6.8,4.54,6.76,9.09-.07,8.72-.53,17.44-4.68,25.46-7.26,14.06-14.64,28.08-20.32,42.91-3.12,8.1-8.58,14.57-14.94,20.3C220,207.87,212.46,218.93,205,230c-4.38,6.52-5.33,13.46-1.34,20.82,3.08,5.69,4.83,12.21,10.39,16.23a114.87,114.87,0,0,0,9.83,6.4,222.43,222.43,0,0,1,31.38,21.88c4.32,3.62,7.67,8.23,11.8,12.07,7.86,7.21,16.71,12.84,25.43,18.81,3.08,2.11,6.66,3.07,10.17,4.19,9.29,2.95,17.84,7.58,26.54,11.84a15.66,15.66,0,0,0,7.74,1.79,49.66,49.66,0,0,1,11.74.65,22.91,22.91,0,0,0,10.94-.69c9.7-2.8,19.93-4.16,28-11.33,4.14-3.67,9.7-5.25,14.74-7.41a94.33,94.33,0,0,0,25.16-16.34,207,207,0,0,1,24.31-17.84c18.16-11.73,35.54-24.58,53.24-37,8.53-6,17.47-11.41,26.28-17,6.63-4.18,14.32-4.24,21.71-4.91,10.81-1,21.79-.59,32.68-1.37,4.34-.32,8.77.87,13.16,1.24,10.15.83,20.29,1.67,30.48,2.34,4.19.28,8.19,1.81,12.63.83,3.25-.7,5.43,3,4.64,6.69-1.53,7.06-.15,13.71,2.78,20.14,1,2.22,1.85,4.79.27,6.68-4.22,5.07-3.12,11.13-3.52,16.81-.65,9.06.09,18.17-.72,27.25-.68,7.62-2.56,14.88-4.67,22.24-3.86,13.37-10.48,25.74-14.08,39.08a32,32,0,0,0,2.83,23.67c4,7.63,10.25,13.4,14.31,20.84,3.52,6.46,2.95,9.24-3.59,12.44a9.93,9.93,0,0,0-2.3,1.77c-3.47,3.27-7.61,4.39-12.32,5-12.57,1.63-25.18,1.38-37.78,1.34-5.23,0-10.42-1.19-15.73-.87-2,.13-3.46.62-4.54,2.41-7.05,11.63-17.78,16.37-31,16.42a16,16,0,0,0-6.11,1.17,77.14,77.14,0,0,1-27.15,6,5.35,5.35,0,0,0-4.56,2.59c-2.16,3.2-5.2,4.18-9.06,4.6-4.84.54-8,4.51-10.61,8.24a35.85,35.85,0,0,1-9.93,9.67c-5.4,3.44-11,5.27-17.44,4.5a8.7,8.7,0,0,0-4.3.72c-11.13,4.51-22.6,4.85-34.33,2.95-5.21-.83-10.45-1.42-15.73-2.14a5,5,0,0,0-2.84.55c-12.85,5.84-26.3,6.15-40.05,4.82a34.37,34.37,0,0,0-18.26,3.37,260.23,260.23,0,0,1-36.37,14.05c-7.87,2.29-15.28,6.29-23.46,7.48-22.21,3.21-44,8.64-66.32,11.41a12.31,12.31,0,0,1-11.7-4.57c-6.65-7.7-13.54-15.19-20.36-22.74a20.27,20.27,0,0,0-6.89-4.91c-13.91-6.23-26.81-14.4-40.43-21.21-2.52-1.25-5.09-2.44-7.61-3.69-3.68-1.81-7.32-3.21-10.65.67a1.78,1.78,0,0,1-1,.52c-8.44,1.18-11.61,8.69-16,14.18A278.56,278.56,0,0,1,77,516.84c-4,4.06-7,8.21-7.86,14.09C68,538.79,63,544,56,547.53,51,550,46.35,553,40.54,553.14a14.3,14.3,0,0,1-7.12-1.25c-6.45-3.22-12.18-7.25-16.2-13.48-2-3.06-5-5.33-7.12-8.39-2-2.81-3.59-5.6-3.72-9-.23-6.88-2.38-13.83,1.33-20.54,1.25-2.26,2.11-4.83,4.06-6.5,3.84-3.32,6.53-7.71,10.16-11.08,4.91-4.52,6.61-10.14,6.88-16.11C29.31,456,33,447,40.6,439.41c2-2,3.26-4.91,4.71-7.43,3.87-6.74,9.43-12.25,13.66-18.73,2.45-3.72,4.78-7.47,5.9-11.79s3.61-7.78,5.63-11.56c4.38-8.25,8.19-16.76,11.73-25.4a21.64,21.64,0,0,1,6.88-9.41,10.37,10.37,0,0,0,4-7.56c.52-4.75,1.33-9.47,1.32-14.28A15.12,15.12,0,0,1,98.72,323c2.74-3,5.14-6.28,7.86-9.23,8.66-9.28,6.26-14.94,0-24.18a17.17,17.17,0,0,0-4.58-4.21c-3.69-2.53-6-5.9-6.32-10.32C95.27,269.66,91.83,266.29,88.44,262.46Z" transform="translate(-5.55 -4.8)"/></svg>