<svg xmlns="http://www.w3.org/2000/svg" viewBox="0 0 845.86 692.87"><defs><style>.cls-1,.cls-2,.cls-4{fill:none;stroke-miterlimit:10;}.cls-1{stroke:#878576;stroke-width:12px;}.cls-2,.cls-4{stroke:#cececc;}.cls-2{stroke-width:4px;}.cls-3{fill:#878576;}.cls-5{fill:#cececc;}</style></defs><title>delineado_exterior</title><g id="Capa_13" data-name="Capa 13"><path class="cls-1" d="M438.67,437.7c.71,2.12-.77,5.19-1.24,7.48a55.32,55.32,0,0,0-1.31,11.46c.06,6.29,1.86,12.79,6.19,17.34a20,20,0,0,0,14.54,6c3.69,0,7.32-1.07,11-1.11,4.13,0,8.17,1.17,12.1,2.46a160.87,160.87,0,0,1,33.21,14.71c8,4.82,15.85,11.29,18.07,20.33,2.06,8.4.64,15.87,6.06,23.38,3.55,4.91,8.28,8.8,12.91,12.7q14.85,12.46,29,25.68c8.69,8.09,17.23,16.35,27.71,22.13,3.84,2.12,8.36,4.42,12.73,5.14,5,.81,10.14-.24,15,1.47,3.4,1.2,6.19,3.66,8.89,6.06,5.57,5,10.07,11.3,17.9,11.3A56.78,56.78,0,0,1,685,626.87c9.39,3,18.09,7.78,26.45,13,1.91,1.19,13.18,7.85,7,9.87a8.36,8.36,0,0,1-3.82,0c-13.06-2.1-27-2.47-40,.12-19.72,3.91-38.27,8-57,15.78-14.6,6.09-28.76,13.18-42.67,20.69-13.38,7.22-28.55,8-43.46,8.59-13.46.58-26.89.32-40.34.34l-108.69.14c-15,0-24.59-10.21-25.92-25a71.82,71.82,0,0,1,1.16-19.13c2-10.64-11.71-16.34-17.65-22.5-8.55-8.88-15.24-21.53-15.8-34-.23-5.08,5.93-5.84,9.39-8a43.2,43.2,0,0,0,12.1-11.66c4.8-6.77,7.93-14.59,10.33-22.53a1.4,1.4,0,0,0,0-1.2,1.34,1.34,0,0,0-1.25-.31,26.33,26.33,0,0,0-10,3.17c-2.47,1.38-4.74,3.16-7.4,4.1-13.82,4.88-12.75-18.23-12.88-25.85-.27-15-1.36-30.59,4.17-44.85a60.35,60.35,0,0,1,11-17.74,82.18,82.18,0,0,1,7.48-7.45c2.21-1.94,5.79-3.78,7.09-6.51,2.2-4.6.85-12.69,1.48-17.8.68-5.55,2.38-11.24,6.35-15.18s10.65-5.5,15.28-2.37c1.73-3.64,3.92-7.67,7.81-8.67,3.64-.94,7.3,1.15,10.52,3.09,10.32,6.19,21.24,11,31.91,16.52,2.56,1.31,8.9,3.15,10.57,5.41A2.87,2.87,0,0,1,438.67,437.7Z" transform="translate(-318.29 -8.5)"/><path class="cls-2" d="M438.67,437.7c.71,2.12-.77,5.19-1.24,7.48a55.32,55.32,0,0,0-1.31,11.46c.06,6.29,1.86,12.79,6.19,17.34a20,20,0,0,0,14.54,6c3.69,0,7.32-1.07,11-1.11,4.13,0,8.17,1.17,12.1,2.46a160.87,160.87,0,0,1,33.21,14.71c8,4.82,15.85,11.29,18.07,20.33,2.06,8.4.64,15.87,6.06,23.38,3.55,4.91,8.28,8.8,12.91,12.7q14.85,12.46,29,25.68c8.69,8.09,17.23,16.35,27.71,22.13,3.84,2.12,8.36,4.42,12.73,5.14,5,.81,10.14-.24,15,1.47,3.4,1.2,6.19,3.66,8.89,6.06,5.57,5,10.07,11.3,17.9,11.3A56.78,56.78,0,0,1,685,626.87c9.39,3,18.09,7.78,26.45,13,1.91,1.19,13.18,7.85,7,9.87a8.36,8.36,0,0,1-3.82,0c-13.06-2.1-27-2.47-40,.12-19.72,3.91-38.27,8-57,15.78-14.6,6.09-28.76,13.18-42.67,20.69-13.38,7.22-28.55,8-43.46,8.59-13.46.58-26.89.32-40.34.34l-108.69.14c-15,0-24.59-10.21-25.92-25a71.82,71.82,0,0,1,1.16-19.13c2-10.64-11.71-16.34-17.65-22.5-8.55-8.88-15.24-21.53-15.8-34-.23-5.08,5.93-5.84,9.39-8a43.2,43.2,0,0,0,12.1-11.66c4.8-6.77,7.93-14.59,10.33-22.53a1.4,1.4,0,0,0,0-1.2,1.34,1.34,0,0,0-1.25-.31,26.33,26.33,0,0,0-10,3.17c-2.47,1.38-4.74,3.16-7.4,4.1-13.82,4.88-12.75-18.23-12.88-25.85-.27-15-1.36-30.59,4.17-44.85a60.35,60.35,0,0,1,11-17.74,82.18,82.18,0,0,1,7.48-7.45c2.21-1.94,5.79-3.78,7.09-6.51,2.2-4.6.85-12.69,1.48-17.8.68-5.55,2.38-11.24,6.35-15.18s10.65-5.5,15.28-2.37c1.73-3.64,3.92-7.67,7.81-8.67,3.64-.94,7.3,1.15,10.52,3.09,10.32,6.19,21.24,11,31.91,16.52,2.56,1.31,8.9,3.15,10.57,5.41A2.87,2.87,0,0,1,438.67,437.7Z" transform="translate(-318.29 -8.5)"/><path class="cls-1" d="M719.85,649c1.41,0,2.73-1,3.78-1.84,5.06-4,8.72-10,12-15.41,1.19-2,2.44-4,3.48-6,2-4.07,14.11-5.56,18.22-6.45,15.76-3.38,30.07-10.07,40.43-22.62,10.57-12.8,23.87-20.09,38.53-27.46,7.05-3.54,14.7-5.64,22.19-8,3-.95,2.11-3.35,2.15-5.87s.09-5.34.14-8c.08-5.21.17-10.42.19-15.63,0-8.87-1.57-18-2-26.87-.37-8.07.88-16.1-.84-24a10.05,10.05,0,0,0-1.22-3.25c-.79-1.26-2-1.84-3.2-2.67-1.67-1.19-3.24-2.58-4.8-3.91a94.86,94.86,0,0,1-8.88-8.6c-8.37-9.3-16.65-21.84-14.32-35a26.22,26.22,0,0,1,3.53-9.14C830.63,416,831.52,416,834,416a11.64,11.64,0,0,0,11.47-11.58c0-1.16-.11-2.48.71-3.3s1.92-.71,3-.72c2.93,0,6.27-.84,7.57-3.46,1-2,.47-4.46,1-6.66s2.14-3.54,3.71-5l6.29-6.11a.67.67,0,0,0,0-1.13,79.71,79.71,0,0,0-9.71-9.82c-9.87-8.58-20.16-16.67-30.71-24.39a10.45,10.45,0,0,0-8.5-2.26,17.79,17.79,0,0,0-7,2.51c-2.07,1.36-4,2.58-6.58,2.8a10.08,10.08,0,0,1-7.14-2.18,15.3,15.3,0,0,1-3.95-5.27l-.39-.77a30.87,30.87,0,0,1-1.84-22c1.95-7.32,5.5-14.07,7.64-21.32,2.25-7.61,3.81-15.4,5.29-23.19.55-2.9,1-5.81,1.4-8.74.4-3.23,2.5-8.32-2-9.2a167.21,167.21,0,0,0-24.71-3.38c-2.55-.11-5.11.31-7.66.14-1.82-.12-1.59-.29-1.49-2a14,14,0,0,0-1.46-6.4,25.63,25.63,0,0,1-1.37-4,17.6,17.6,0,0,0-1.31-4.23,4.38,4.38,0,0,0-1.39-1.65,5.69,5.69,0,0,0-4-.58,28.63,28.63,0,0,1-5,.2c-3.6-.11-7.17-.56-10.76-.79-8.43-.56-16.9-1.27-25.12-3.32-3.82-1-7.62-3-11.57-3.07a20.22,20.22,0,0,0-8.71,2.18c-2.12,1-4,2.42-6.17,3.3-3.25,1.33-7,0-10.23-.81a28.35,28.35,0,0,1-9-3.8c-6-4-8.55-10.81-8.71-17.79-.11-4.59.75-9.15.48-13.74a52.2,52.2,0,0,0-2.33-12.69,59.36,59.36,0,0,0-3.91-9.4A67,67,0,0,0,651,159.42a40.62,40.62,0,0,0-4.38-4.7c-1.59-1.33-3.43-2.53-4.47-4.37a5.75,5.75,0,0,1-.51-1.13,10.92,10.92,0,0,1-.25-4.38c.66-8,2-16,3.41-23.93,1.34-7.42,2.72-15,5.1-22.24A28.19,28.19,0,0,1,652.32,93a14.16,14.16,0,0,1,5.21-4.87c2.33-1.38,4.56-2.92,6.78-4.48A69.32,69.32,0,0,1,677.69,76c3.71-1.56,8.49-3.69,12.38-1.87,1.74.8,3.06,2.27,3.5-.6a13.14,13.14,0,0,0-1.16-7.66,44,44,0,0,1-2.63-6.76,16.52,16.52,0,0,1-.73-8.17c1.58-7.24,10.76-7.68,16.56-9.36,6.92-2,15-7.11,16-14.18s-.56-10.3-6.8-11.67a54.15,54.15,0,0,0-12.3-1.27c-3.47,0-8-.06-10.75,2.53-.3.29-.61,1.07-.86,1.25-.79.58-1.77.16-3,.1-6.43-.28-11,3.17-9.86,9.82.23,1.42-6.8,5.15-7.83,5.79-3.93,2.43-8.08,3.89-12.2,6-6.59,3.34-15.82,8.48-23.08,9.93-7.77,1.56-13.19-.76-20.81-2.77a11.11,11.11,0,0,0-4.73-.59c-3,.54-5.08,3.54-6.56,6a11.6,11.6,0,0,1-4.41,4.3c-2,1-4.15.7-6.3,1.06a8.68,8.68,0,0,0-5.08,3,7.18,7.18,0,0,0-1.45,2.6c-.23.82-.17,1.48-1.08,1.79-1.07.36-2.24-.61-3.14-1.1-2.67-1.45-5.2-3.15-7.76-4.79a4.3,4.3,0,0,0-1.78-.78,3.67,3.67,0,0,0-2.69,1.17c-4.28,3.75-6.5,9.69-8.93,14.68-2.61,5.34-5.63,10.4-8.48,15.61A159.4,159.4,0,0,1,543,105.07l-.4.57c-6.47,9-15.38,16.7-24.86,22.53-2.06,1.27-4.19,2.44-6.33,3.57s-4.28,2-6.26,3.24c-6.67,4.26-7,12.51-5.74,19.6a1.48,1.48,0,0,1-.07,1.08,1.32,1.32,0,0,1-1.26.4,8.9,8.9,0,0,1-6.37-4.22c-2.69-4.06-3.38-9.23-5.05-13.74a9.78,9.78,0,0,0-1.25-2.58,10.58,10.58,0,0,0-3.2-2.49A106,106,0,0,1,468,122.87a5,5,0,0,1-1.51-1.77,7.18,7.18,0,0,1-.32-2c-.81-8.49-12.2-11.76-18.92-13.84a71.5,71.5,0,0,1-7.07-2.05c-2.43-1-5.41-.27-7.64-1.87-1.73-1.25-2.43-3.81-4.61-4.46a4.74,4.74,0,0,0-1.95-.08,44.76,44.76,0,0,0-5.44,1.4,9.11,9.11,0,0,1-4.88.21c-1.4-.47-2.69-1.5-4.23-1.4a4.87,4.87,0,0,0-2.7,1.35c-1.47,1.3-3.33,2.49-4.16,4.34-.52,1.16-.26,2.81-1.29,3.7a3.3,3.3,0,0,1-3.3.3c-1.37-.59-2.43-1.74-3.73-2.48a7.22,7.22,0,0,0-6.51-.28,6,6,0,0,0-3.09,8.38c1.93,4,4.05,7.85,6.26,11.67,1.69,2.93,3.55,8.56,7.45,8.83,3.09.21,5.94-.61,7.87-3.14,1.61-2.12,2.38-4.75,4-6.89a5.06,5.06,0,0,1,4.44-2.27,7,7,0,0,1,3.78,2.23c5.69,5.47,10.51,12.24,15.92,18.08,4.91,5.31,6.92,8.66,8,15.75,1,6.19,2,16.07,3.14,22.23,1.11,5.78,2.43,11.67,5.74,16.65,4.28,6.43,12.79,6.07,16.43,12.75a14.68,14.68,0,0,1,2.2,7.06,17.55,17.55,0,0,1-1,5.36c-1.11,3.45-2.83,6.68-3.77,10.18a46.15,46.15,0,0,0-1.92,10.93c-.18,8.48,3.69,16,3.82,24.42.1,6.44-1.86,12.63-4.38,18.49-2.39,5.52-5.9,10.62-4.54,17,1.85,8.7,10.76,14.56,6.9,24.35a23.7,23.7,0,0,1-7.48,9.57c-6.39,4.85-11.25,10.81-16.45,16.85-3.36,3.91-7.07,7.7-11.59,10.26-2.23,1.26-4.62,2.15-6.89,3.32a45.37,45.37,0,0,0-7.13,4.39c-.66.52-1.31,1.07-1.92,1.65-11.52,10.88-13.34,27.78-18,42.27" transform="translate(-318.29 -8.5)"/><path class="cls-2" d="M719.85,649c1.41,0,2.73-1,3.78-1.84,5.06-4,8.72-10,12-15.41,1.19-2,2.44-4,3.48-6,2-4.07,14.11-5.56,18.22-6.45,15.76-3.38,30.07-10.07,40.43-22.62,10.57-12.8,23.87-20.09,38.53-27.46,7.05-3.54,14.7-5.64,22.19-8,3-.95,2.11-3.35,2.15-5.87s.09-5.34.14-8c.08-5.21.17-10.42.19-15.63,0-8.87-1.57-18-2-26.87-.37-8.07.88-16.1-.84-24a10.05,10.05,0,0,0-1.22-3.25c-.79-1.26-2-1.84-3.2-2.67-1.67-1.19-3.24-2.58-4.8-3.91a94.86,94.86,0,0,1-8.88-8.6c-8.37-9.3-16.65-21.84-14.32-35a26.22,26.22,0,0,1,3.53-9.14C830.63,416,831.52,416,834,416a11.64,11.64,0,0,0,11.47-11.58c0-1.16-.11-2.48.71-3.3s1.92-.71,3-.72c2.93,0,6.27-.84,7.57-3.46,1-2,.47-4.46,1-6.66s2.14-3.54,3.71-5l6.29-6.11a.67.67,0,0,0,0-1.13,79.71,79.71,0,0,0-9.71-9.82c-9.87-8.58-20.16-16.67-30.71-24.39a10.45,10.45,0,0,0-8.5-2.26,17.79,17.79,0,0,0-7,2.51c-2.07,1.36-4,2.58-6.58,2.8a10.08,10.08,0,0,1-7.14-2.18,15.3,15.3,0,0,1-3.95-5.27l-.39-.77a30.87,30.87,0,0,1-1.84-22c1.95-7.32,5.5-14.07,7.64-21.32,2.25-7.61,3.81-15.4,5.29-23.19.55-2.9,1-5.81,1.4-8.74.4-3.23,2.5-8.32-2-9.2a167.21,167.21,0,0,0-24.71-3.38c-2.55-.11-5.11.31-7.66.14-1.82-.12-1.59-.29-1.49-2a14,14,0,0,0-1.46-6.4,25.63,25.63,0,0,1-1.37-4,17.6,17.6,0,0,0-1.31-4.23,4.38,4.38,0,0,0-1.39-1.65,5.69,5.69,0,0,0-4-.58,28.63,28.63,0,0,1-5,.2c-3.6-.11-7.17-.56-10.76-.79-8.43-.56-16.9-1.27-25.12-3.32-3.82-1-7.62-3-11.57-3.07a20.22,20.22,0,0,0-8.71,2.18c-2.12,1-4,2.42-6.17,3.3-3.25,1.33-7,0-10.23-.81a28.35,28.35,0,0,1-9-3.8c-6-4-8.55-10.81-8.71-17.79-.11-4.59.75-9.15.48-13.74a52.2,52.2,0,0,0-2.33-12.69,59.36,59.36,0,0,0-3.91-9.4A67,67,0,0,0,651,159.42a40.62,40.62,0,0,0-4.38-4.7c-1.59-1.33-3.43-2.53-4.47-4.37a5.75,5.75,0,0,1-.51-1.13,10.92,10.92,0,0,1-.25-4.38c.66-8,2-16,3.41-23.93,1.34-7.42,2.72-15,5.1-22.24A28.19,28.19,0,0,1,652.32,93a14.16,14.16,0,0,1,5.21-4.87c2.33-1.38,4.56-2.92,6.78-4.48A69.32,69.32,0,0,1,677.69,76c3.71-1.56,8.49-3.69,12.38-1.87,1.74.8,3.06,2.27,3.5-.6a13.14,13.14,0,0,0-1.16-7.66,44,44,0,0,1-2.63-6.76,16.52,16.52,0,0,1-.73-8.17c1.58-7.24,10.76-7.68,16.56-9.36,6.92-2,15-7.11,16-14.18s-.56-10.3-6.8-11.67a54.15,54.15,0,0,0-12.3-1.27c-3.47,0-8-.06-10.75,2.53-.3.29-.61,1.07-.86,1.25-.79.58-1.77.16-3,.1-6.43-.28-11,3.17-9.86,9.82.23,1.42-6.8,5.15-7.83,5.79-3.93,2.43-8.08,3.89-12.2,6-6.59,3.34-15.82,8.48-23.08,9.93-7.77,1.56-13.19-.76-20.81-2.77a11.11,11.11,0,0,0-4.73-.59c-3,.54-5.08,3.54-6.56,6a11.6,11.6,0,0,1-4.41,4.3c-2,1-4.15.7-6.3,1.06a8.68,8.68,0,0,0-5.08,3,7.18,7.18,0,0,0-1.45,2.6c-.23.82-.17,1.48-1.08,1.79-1.07.36-2.24-.61-3.14-1.1-2.67-1.45-5.2-3.15-7.76-4.79a4.3,4.3,0,0,0-1.78-.78,3.67,3.67,0,0,0-2.69,1.17c-4.28,3.75-6.5,9.69-8.93,14.68-2.61,5.34-5.63,10.4-8.48,15.61A159.4,159.4,0,0,1,543,105.07l-.4.57c-6.47,9-15.38,16.7-24.86,22.53-2.06,1.27-4.19,2.44-6.33,3.57s-4.28,2-6.26,3.24c-6.67,4.26-7,12.51-5.74,19.6a1.48,1.48,0,0,1-.07,1.08,1.32,1.32,0,0,1-1.26.4,8.9,8.9,0,0,1-6.37-4.22c-2.69-4.06-3.38-9.23-5.05-13.74a9.78,9.78,0,0,0-1.25-2.58,10.58,10.58,0,0,0-3.2-2.49A106,106,0,0,1,468,122.87a5,5,0,0,1-1.51-1.77,7.18,7.18,0,0,1-.32-2c-.81-8.49-12.2-11.76-18.92-13.84a71.5,71.5,0,0,1-7.07-2.05c-2.43-1-5.41-.27-7.64-1.87-1.73-1.25-2.43-3.81-4.61-4.46a4.74,4.74,0,0,0-1.95-.08,44.76,44.76,0,0,0-5.44,1.4,9.11,9.11,0,0,1-4.88.21c-1.4-.47-2.69-1.5-4.23-1.4a4.87,4.87,0,0,0-2.7,1.35c-1.47,1.3-3.33,2.49-4.16,4.34-.52,1.16-.26,2.81-1.29,3.7a3.3,3.3,0,0,1-3.3.3c-1.37-.59-2.43-1.74-3.73-2.48a7.22,7.22,0,0,0-6.51-.28,6,6,0,0,0-3.09,8.38c1.93,4,4.05,7.85,6.26,11.67,1.69,2.93,3.55,8.56,7.45,8.83,3.09.21,5.94-.61,7.87-3.14,1.61-2.12,2.38-4.75,4-6.89a5.06,5.06,0,0,1,4.44-2.27,7,7,0,0,1,3.78,2.23c5.69,5.47,10.51,12.24,15.92,18.08,4.91,5.31,6.92,8.66,8,15.75,1,6.19,2,16.07,3.14,22.23,1.11,5.78,2.43,11.67,5.74,16.65,4.28,6.43,12.79,6.07,16.43,12.75a14.68,14.68,0,0,1,2.2,7.06,17.55,17.55,0,0,1-1,5.36c-1.11,3.45-2.83,6.68-3.77,10.18a46.15,46.15,0,0,0-1.92,10.93c-.18,8.48,3.69,16,3.82,24.42.1,6.44-1.86,12.63-4.38,18.49-2.39,5.52-5.9,10.62-4.54,17,1.85,8.7,10.76,14.56,6.9,24.35a23.7,23.7,0,0,1-7.48,9.57c-6.39,4.85-11.25,10.81-16.45,16.85-3.36,3.91-7.07,7.7-11.59,10.26-2.23,1.26-4.62,2.15-6.89,3.32a45.37,45.37,0,0,0-7.13,4.39c-.66.52-1.31,1.07-1.92,1.65-11.52,10.88-13.34,27.78-18,42.27" transform="translate(-318.29 -8.5)"/><path class="cls-3" d="M861.51,479.36,852.93,471c.65-.67,1.24-1.32,1.8-2a20.33,20.33,0,0,1,6.74-5.53,26.2,26.2,0,0,1,6.42-1.9,18.85,18.85,0,0,0,3.46-.91,17.64,17.64,0,0,0,3.1-2c.77-.57,1.57-1.15,2.46-1.72a53.82,53.82,0,0,1,10-4.49c1.62-.59,3.15-1.16,4.37-1.7,1.83-.8,3.66-1.5,5.42-2.17,1.94-.73,3.77-1.43,5.52-2.23a64.55,64.55,0,0,0,18-12.37,42.27,42.27,0,0,0,7.86-10.19c2.43-4.53,4.4-11.13,2.62-16.09-.06-.17-.12-.36-.19-.54l-.12-.37c-.55-1.47-1.29-3-2.06-4.59l-.65-1.35c-.77-1.62-1.45-3.26-2.12-4.84-.59-1.41-1.15-2.75-1.75-4-1.17-2.51-2.37-5-3.56-7.51-1.7-3.57-3.46-7.25-5.14-10.93-.81-1.79-1.56-3.45-2.38-5.07A80.47,80.47,0,0,0,905,356.84l-.47-.61c-1.83-2.38-5.25-6.79-3.11-11.3a7.16,7.16,0,0,1,6.47-4c6.77-.17,13.63-.1,20.38.22l3.2.12c5.52.18,11.78.4,17.57,2.4a53.5,53.5,0,0,1,5.32,2.27,29.19,29.19,0,0,0,5.42,2.16c3.53.85,7.7-.05,10.94-.92,1-.28,2.08-.58,3.12-.88,4.29-1.25,8.73-2.54,13.75-2.56,3.29,0,6.41.29,9.45.59,2.42.23,4.71.45,7,.51,7.62.21,15.48-1.76,22.26-3.62,7.45-2.05,15.32-4.46,22.38-8.22,6.4-3.4,11.95-8.17,17.82-13.23l1.71-1.47c1.09-.93,2.07-1.74,3-2.46,4.12-3.29,9.74-6.88,16.67-5.46a19.51,19.51,0,0,1,8.41,4.14c4.7,3.87,5.53,9,6.14,12.65a30.21,30.21,0,0,0,.71,3.49,31,31,0,0,0,6,11.38,20.15,20.15,0,0,0,8.38,6,2.72,2.72,0,0,0,1.28.18,3.72,3.72,0,0,0,1.21-1.77c2.34-5.61,2.77-12.44,1.29-20.29a58.92,58.92,0,0,0-2.72-8.76c-2.15-5.88-4.58-12.54-3.63-19.68.76-5.61,3.41-10.38,5.63-13.92,2.62-4.15,5.42-8.56,8.35-12.89,1.39-2,3-4.36,4.63-6.57.24-.31.46-.67.7-1a15.24,15.24,0,0,1,4.34-4.83,13,13,0,0,1,3.91-1.63l.49-.14c3.44-1,5.9-4.74,7.53-11.36a61,61,0,0,0,1.37-7.59l.12-1a16.53,16.53,0,0,0,.21-2.58c-.25-.19-.66-.46-.93-.64-7.15-4.63-14.54-9.79-22.57-15.76a242.5,242.5,0,0,1-19.17-16,158.61,158.61,0,0,1-14.53-14.85,9.71,9.71,0,0,0-1.55,1.08,9.14,9.14,0,0,1-6.43,2.52,8.55,8.55,0,0,1-5.86-2.85c-3-3.19-4.17-7.34-5.07-10.68l-.28-1c-.12-.44-.23-.9-.33-1.36-3.3,4.42-7.24,3.53-8.44,3.13-3.79-1.3-4.61-5-4.88-6.19l0-.15c-2.75-9.08-5.59-18.47-10.32-26.54a54,54,0,0,0-7.9-10.7c-.27.14-.56.29-.87.43a14,14,0,0,1-12.56-.93,31.43,31.43,0,0,1-6.11-4.76l-.84-.77a9.84,9.84,0,0,0-4.72-2.82,46.81,46.81,0,0,1-9.84-3.28,64.81,64.81,0,0,1-13.84-8.54,57.16,57.16,0,0,1-5-4.63,6.31,6.31,0,0,1,2.63-10.59,14.07,14.07,0,0,1,4.62-.51c.38,0,.78,0,1,0,1.42-.13,2.78-.18,4.09-.23,3.07-.11,5.72-.2,7.73-1.35a6.45,6.45,0,0,0,2.94-3.38,4.15,4.15,0,0,0-.52-.15,59.47,59.47,0,0,0-13.11-1.23c-2.93,0-6.21,0-9.49.31a7.57,7.57,0,0,1-1.11,1.37c-3.36,3.26-8.9,2.63-12.57,2.22-.36,0-.67-.08-.88-.09l-2.81-.11C970.24,95,968.08,95,966,95c-3.76.08-7.57.31-11.33.7-1.85.18-3.75.42-5.63.68l-.15,0c0,.09,0,.17,0,.25.11,2.36.28,5.91-2.12,9.11-6.91,9.22-20,9.7-28.65,10l-1.33,0a12,12,0,0,1-4.39-.47,9.93,9.93,0,0,1-5.54-5.22c-.1-.18-.19-.36-.29-.51a37.63,37.63,0,0,0-2.85-3.73,33.23,33.23,0,0,0-7.05-6,54,54,0,0,0-17-6.87c-16.24-3.85-32.69-2.68-52.51-.76-3,.29-6.16.68-9.18,1.06a7,7,0,0,1-5.32-1.35,7.11,7.11,0,0,1-2.41-3.7C807.92,80.31,805,74,801.3,69a35.75,35.75,0,0,0-8.2-8.15,28.21,28.21,0,0,0-11.31-4.65,42.08,42.08,0,0,0-12.12.18,7.38,7.38,0,0,1-3.12-.22A8.19,8.19,0,0,1,761.92,52l-.09-.15c-.72-1-1.27-1.89-1.77-2.71a43.44,43.44,0,0,1-5.52-14l-.25-.1a17.72,17.72,0,0,0-3-1,5.65,5.65,0,0,0-3.72.11c-1.73,1-3.6,4.66-3.36,6a12.46,12.46,0,0,0,1.36.46l.71.21a6.61,6.61,0,0,1,3,1.94,6.47,6.47,0,0,1,.88,7.11c-2.22,4.68-7.7,7.45-11.34,9.29l-.54.27a60.44,60.44,0,0,1-16,5.07l-1.77.35a49.71,49.71,0,0,0-9.15,2.34c-3.65,1.47-6.51,4.07-6.79,6.17-.12.95.3,2.13,1,4,.26.71.53,1.42.77,2.14a71.18,71.18,0,0,1,2.41,10.34,67,67,0,0,1,.35,22c-1.27,7.72-7.35,20-18.23,20.21-6.77.08-11.8-5.58-13.75-11.26a15.11,15.11,0,0,1-.77-3.85,10.32,10.32,0,0,1-3.61-3c-2-2.73-2.2-6.11-.51-10a33.75,33.75,0,0,1,3.93-6.45c.48-.66,1-1.32,1.41-2,4.87-7.35,6.69-11.1,8.59-20.22l6.68,1.39a15,15,0,0,1-.16-4.91C694.08,62,704,57.27,707,56.07a60.4,60.4,0,0,1,11.35-3l1.71-.33a49.53,49.53,0,0,0,12.87-4l.57-.29,1.42-.74a12.12,12.12,0,0,1-2.61-8.5c.31-5.88,4.31-12.5,9.3-15.4,3.41-2,7.67-2.49,12.34-1.46a30.51,30.51,0,0,1,5,1.59l.41.16a10.89,10.89,0,0,1,5.45,3.8,8.68,8.68,0,0,1,1.36,3.73,31.08,31.08,0,0,0,4.23,11.29c.23.38.48.78.79,1.23a47.84,47.84,0,0,1,12.68.22A40.29,40.29,0,0,1,800,51a47.64,47.64,0,0,1,11,10.86,67.17,67.17,0,0,1,9.52,19c1.81-.21,3.64-.42,5.46-.59,16.47-1.6,37-3.59,56.44,1a65.72,65.72,0,0,1,20.76,8.46A45.24,45.24,0,0,1,912.72,98a49.21,49.21,0,0,1,3.78,5c.21.3.38.6.54.87l.6,0c6.61-.24,15.62-.58,19.27-4.93,0-.42,0-1.14,0-1.65-.11-2.46-.3-6.57,2.92-9.77a11,11,0,0,1,7-2.87l.54-.07c2-.29,4.1-.54,6.11-.74,4.08-.42,8.21-.67,12.3-.75,2.5-.06,4.95,0,7.31.15l2.73.11c.52,0,1.08.08,1.79.16.45,0,1.39.15,2.3.21a7.2,7.2,0,0,1,5.55-3.47,108.36,108.36,0,0,1,14-.72h.12A70.9,70.9,0,0,1,1015.15,81c4.53,1,7.93,3.74,9.31,7.42a12.14,12.14,0,0,1,.11,7.67,18.31,18.31,0,0,1-8.54,10.56,20.35,20.35,0,0,1-6.44,2.33q2.08,1.19,4.33,2.21a34.08,34.08,0,0,0,7.34,2.46,21.82,21.82,0,0,1,10.31,5.7l.91.84a21.54,21.54,0,0,0,3.74,3,3.09,3.09,0,0,0,1.83.49c.09,0,.37-.21.58-.33a9.66,9.66,0,0,1,13,1.63,64.14,64.14,0,0,1,10.5,13.84c4.32,7.37,7.13,15.22,9.58,23a14.5,14.5,0,0,1,2.64-1,9,9,0,0,1,9.12,2.1c2.34,2.45,3,5.87,3.55,8.37.11.57.23,1.16.32,1.49l.3,1.09c.26.95.55,2,.88,3a13.32,13.32,0,0,1,8-2.14,10,10,0,0,1,6.88,3.69,144.45,144.45,0,0,0,14.16,14.56,231.47,231.47,0,0,0,18.23,15.25c7.83,5.81,15,10.83,21.93,15.32a14.78,14.78,0,0,1,4.26,3.77c2.78,3.88,2.22,8.2,1.85,11.06,0,.28-.08.55-.11.82a73.36,73.36,0,0,1-1.64,9.07c-2.7,10.95-8,17.67-15.73,20l-.78.22-.48.13c-.24.31-.6.86-.85,1.26s-.75,1.15-1.21,1.76c-1.48,2-2.9,4.05-4.26,6.06-2.84,4.18-5.57,8.5-8.13,12.56-1.58,2.5-3.45,5.8-3.89,9.11-.56,4.21,1.17,9,3,14a67.64,67.64,0,0,1,3.24,10.64c1.92,10.19,1.25,19.31-2,27.13a14.61,14.61,0,0,1-8.15,8.42,13.86,13.86,0,0,1-9.19,0,31.73,31.73,0,0,1-13.74-9.57,43,43,0,0,1-8.37-15.81,40.13,40.13,0,0,1-1-4.91c-.52-3.15-.82-4.42-1.93-5.34a7.43,7.43,0,0,0-3.17-1.64c-1.61-.33-3.71.62-6.8,3.08-.9.72-1.78,1.45-2.65,2.2l-1.69,1.45c-6.12,5.26-12.44,10.7-20,14.73-8.09,4.3-16.72,7-24.84,9.19-7.6,2.09-16.48,4.3-25.75,4.05-2.68-.07-5.29-.33-7.82-.57-2.83-.27-5.5-.53-8.13-.53h-.12c-3.33,0-6.78,1-10.44,2.08-1.11.32-2.23.65-3.35.95-4.61,1.24-10.68,2.47-16.84,1a38.85,38.85,0,0,1-7.76-3,42.18,42.18,0,0,0-4.13-1.78c-4.07-1.41-9.14-1.58-14.05-1.75l-3.35-.13c-3.55-.16-7.13-.26-10.71-.29a74.42,74.42,0,0,1,6.48,10.22c.93,1.85,1.78,3.71,2.6,5.51,1.63,3.6,3.37,7.23,5.05,10.75,1.21,2.53,2.42,5.06,3.6,7.61.7,1.5,1.34,3,1.95,4.47s1.24,3,1.89,4.33l.61,1.28c.86,1.78,1.76,3.62,2.5,5.62.09.23.17.48.25.72l.11.32c3.81,10.62-1.07,21.6-3.34,25.83a54.54,54.54,0,0,1-10.06,13.11,76.42,76.42,0,0,1-21.36,14.66c-2.12,1-4.23,1.78-6.28,2.56-1.69.64-3.29,1.25-4.84,1.93s-3.26,1.32-5.06,2a45.21,45.21,0,0,0-7.7,3.34c-.58.37-1.2.82-1.85,1.3a27.36,27.36,0,0,1-5.49,3.34,28.69,28.69,0,0,1-5.79,1.62,16.33,16.33,0,0,0-3.65,1c-.9.42-1.54,1.12-2.91,2.66C863.07,477.7,862.36,478.49,861.51,479.36Zm283.74-211Zm-70.76-97.55Zm-31.71-37.64ZM684.11,107.27a7.34,7.34,0,0,1,3.41,3.07,7.6,7.6,0,0,1,.89,4.39,5.86,5.86,0,0,0,.15,2.21,5.74,5.74,0,0,0,2.28,3.17c2.27,0,5.72-5.36,6.51-10.17a55.49,55.49,0,0,0-.34-18.1c-.28-1.67-.65-3.69-1.16-5.71-1.74,5.39-4.08,9.81-8.19,16-.54.81-1.11,1.6-1.69,2.4S684.64,106.4,684.11,107.27Zm-2.14-.93Z" transform="translate(-318.29 -8.5)"/><path class="cls-2" d="M857.23,475.16c2.69-2.76,4-4.91,6.81-6.25,3.07-1.45,6.53-1.38,9.65-2.7,2.37-1,4.31-2.81,6.46-4.18,3.67-2.35,9.59-4,13.57-5.75,3.64-1.6,7.42-2.78,11-4.45a70.74,70.74,0,0,0,19.68-13.51,48.34,48.34,0,0,0,9-11.65c3.26-6.06,5.4-14.24,3-21-.12-.32-.22-.65-.34-1-.82-2.18-1.91-4.3-2.91-6.41-1.37-2.88-2.5-5.93-3.86-8.85-2.86-6.14-5.86-12.22-8.66-18.39-.81-1.77-1.62-3.55-2.5-5.29a86.66,86.66,0,0,0-8.61-12.92c-.83-1.1-4.78-5.84-1.47-5.93q10-.26,19.94.21c6.24.29,13.13.14,19.09,2.2,3.85,1.33,7.34,3.66,11.31,4.6,4.56,1.09,9.36.26,13.89-1,5.08-1.37,10-3.22,15.33-3.24s10.82.95,16.25,1.1c8.15.22,16.19-1.69,24-3.84,8.08-2.22,16.17-4.74,23.6-8.7,7.66-4.07,14.08-9.84,20.63-15.44.92-.79,1.85-1.57,2.81-2.33,3.32-2.65,7.29-5.18,11.74-4.27a13.44,13.44,0,0,1,5.78,2.89c4.18,3.44,3.51,8.41,4.91,13.19a36.94,36.94,0,0,0,7.17,13.6,26,26,0,0,0,11.06,7.77,8,8,0,0,0,5.24.11,8.75,8.75,0,0,0,4.67-5.1c3.13-7.52,3.13-15.81,1.64-23.7-1.64-8.72-7.49-17.54-6.29-26.53.56-4.16,2.55-8,4.76-11.52,2.69-4.27,5.4-8.54,8.24-12.72,1.44-2.13,2.9-4.27,4.45-6.32,1.08-1.44,2-3.46,3.55-4.47a10.58,10.58,0,0,1,2.82-1c7-2.09,10-9.18,11.64-15.67a67.14,67.14,0,0,0,1.5-8.34c.3-2.5.93-5.47-.66-7.69a9.3,9.3,0,0,0-2.64-2.22c-7.63-5-15-10.12-22.25-15.55a242.54,242.54,0,0,1-18.7-15.63,150.82,150.82,0,0,1-14.74-15.17c-2.62-3.17-6.73-.86-9.23,1.22a3.65,3.65,0,0,1-2.31,1.14,2.8,2.8,0,0,1-1.79-1c-2.24-2.35-3.07-6.11-3.92-9.15-.58-2.07-.88-5.72-2.44-7.34a3.14,3.14,0,0,0-3.15-.47,8.14,8.14,0,0,0-4.89,3.83c-.37.62-1.25,2-2.13,1.69s-.89-1.66-1.09-2.32c-2.9-9.58-5.82-19.22-10.91-27.92a58.81,58.81,0,0,0-9.5-12.56,4.94,4.94,0,0,0-3.09-1.72c-1.4,0-2.55,1-3.83,1.58a8.17,8.17,0,0,1-7.18-.71,31.48,31.48,0,0,1-5.8-4.71,15.9,15.9,0,0,0-7.52-4.26,39.08,39.08,0,0,1-8.59-2.87,58.7,58.7,0,0,1-12.56-7.73,50.74,50.74,0,0,1-4.52-4.15c-.14-.14-.29-.36-.18-.54a.45.45,0,0,1,.26-.15c1.41-.43,3-.14,4.4-.28,4.87-.45,9.81.19,14.24-2.34a12.31,12.31,0,0,0,5.76-7,6.2,6.2,0,0,0,0-3.88c-.76-2-2.91-3.2-5-3.67a65.47,65.47,0,0,0-14.44-1.38,102,102,0,0,0-13.19.67c-.5.07-1.1.23-1.23.72a2.49,2.49,0,0,0,.06.81c.26,3.22-7.8,1.67-9.45,1.62-3.24-.11-6.48-.33-9.73-.26-3.94.08-7.89.32-11.81.72q-2.94.3-5.88.71c-1.35.2-3.1.22-4.13,1.25-2.59,2.58.19,7.44-2.08,10.47-5.49,7.32-17.21,7.35-25.42,7.68a6.47,6.47,0,0,1-2.28-.18c-1.39-.46-2-2.24-2.72-3.37a41.07,41.07,0,0,0-3.31-4.34,39.26,39.26,0,0,0-8.33-7.15A60.58,60.58,0,0,0,881,87.13c-17.86-4.23-36.41-2.65-54.48-.89-3.12.3-6.23.69-9.34,1.07a1.16,1.16,0,0,1-.88-.12,1.14,1.14,0,0,1-.34-.64c-2.14-7.45-5.2-14.84-9.82-21.1a41.66,41.66,0,0,0-9.6-9.51,33.88,33.88,0,0,0-13.74-5.64,47.91,47.91,0,0,0-13.84.14,1.63,1.63,0,0,1-.66,0c-.57-.17-1.14-1.43-1.47-1.9-.56-.81-1.11-1.64-1.63-2.48a37.13,37.13,0,0,1-5-13.45,3.28,3.28,0,0,0-.4-1.31c-.62-.9-2.22-1.38-3.2-1.78a22.87,22.87,0,0,0-4-1.28,11.12,11.12,0,0,0-8,.78c-4.53,2.63-9.36,12-4,16a12.79,12.79,0,0,0,3.88,1.58.59.59,0,0,1,.28.15.55.55,0,0,1,0,.59c-1.43,3-6.36,5.36-9.18,6.79a55.14,55.14,0,0,1-14.42,4.54c-4.05.8-8.16,1.46-12,3-4.57,1.84-9.79,5.7-10.49,10.95-.43,3.19,1,5.9,2,8.82a63.66,63.66,0,0,1,2.19,9.44,61.19,61.19,0,0,1,.35,20.07c-.94,5.69-5.49,15.08-12.4,15.19-3.91.07-6.85-3.9-8-7.21a11.64,11.64,0,0,1-.47-4.55,1.91,1.91,0,0,0-.13-1.06,1.83,1.83,0,0,0-.93-.67c-1.25-.52-2.87-1-3.71-2.19s-.36-2.82.18-4.08c1.19-2.74,3.19-5,4.83-7.51,5.35-8.07,7.43-12.55,9.46-22.31" transform="translate(-318.29 -8.5)"/><path class="cls-3" d="M693.27,77.36a1.5,1.5,0,0,0,0-3,1.5,1.5,0,0,0,0,3Z" transform="translate(-318.29 -8.5)"/><path class="cls-3" d="M693.24,77.54a1.5,1.5,0,0,0,0-3,1.5,1.5,0,0,0,0,3Z" transform="translate(-318.29 -8.5)"/><path class="cls-3" d="M693.24,77.48a1.5,1.5,0,0,0,0-3,1.5,1.5,0,0,0,0,3Z" transform="translate(-318.29 -8.5)"/><path class="cls-3" d="M693.3,77.68a1.5,1.5,0,0,0,0-3,1.5,1.5,0,0,0,0,3Z" transform="translate(-318.29 -8.5)"/></g><g id="Capa_14" data-name="Capa 14"><path class="cls-4" d="M393.34,412.12c.09.08.14.09.23,0a.24.24,0,0,1,.26,0,9,9,0,0,1,1,.52c.64.35,1.27.73,1.93,1.05a15.12,15.12,0,0,1,1.66.83c.6.38,1.15.83,1.75,1.21" transform="translate(-318.29 -8.5)"/><path class="cls-5" d="M392.38,414.65a2.7,2.7,0,0,0,.58.49,3.39,3.39,0,0,0,.34.23,5.46,5.46,0,0,1,.7.43l-.3-.23,0,0a1.11,1.11,0,0,0,.49.31,1,1,0,0,0,.57.13,1.06,1.06,0,0,0,.58-.13,1,1,0,0,0,.48-.31l.24-.3a1.54,1.54,0,0,0,.2-.76l-.05-.4a1.49,1.49,0,0,0-.39-.66,6.42,6.42,0,0,0-.85-.59,4.73,4.73,0,0,1-.56-.35l.3.23a1.31,1.31,0,0,1-.24-.23,1.21,1.21,0,0,0-.49-.31,1.22,1.22,0,0,0-.57-.13,1.27,1.27,0,0,0-.58.13,1.11,1.11,0,0,0-.48.31l-.24.31a1.5,1.5,0,0,0-.2.75l.05.4a1.39,1.39,0,0,0,.39.66Z" transform="translate(-318.29 -8.5)"/><path class="cls-5" d="M718.05,646.16a1.79,1.79,0,0,1,.27.28l-.24-.31a3,3,0,0,1,.32.54l-.15-.36a3.72,3.72,0,0,1,.23.87l-.05-.4a7.5,7.5,0,0,1,0,1.64l0-.4a.75.75,0,0,1,0,.16l.15-.36a3.37,3.37,0,0,1-.51.83l.24-.3a2.57,2.57,0,0,1-.33.33l.31-.23a2.17,2.17,0,0,1-.33.19l.36-.15-.14,0a1.5,1.5,0,1,0,.8,2.89,3.27,3.27,0,0,0,1.83-1.46,4,4,0,0,0,.51-1,3.72,3.72,0,0,0,.12-1.15,4.89,4.89,0,0,0-1.31-3.8,1.5,1.5,0,1,0-2.12,2.13Z" transform="translate(-318.29 -8.5)"/><path class="cls-5" d="M718.11,651.41a3,3,0,0,0,3.09-1.07,4.69,4.69,0,0,0,1.06-2.65,3.9,3.9,0,0,0-.69-2.5,8,8,0,0,0-2.12-1.94,1.51,1.51,0,0,0-2.05.54,1.54,1.54,0,0,0,.54,2.05l.38.27.17.13c-.09-.06-.25-.2-.06,0a6.15,6.15,0,0,1,.63.62c.18.19-.15-.23,0-.07s.08.11.11.17a1.19,1.19,0,0,1,.12.22s-.14-.37,0-.11a2.37,2.37,0,0,1,.09.36c0,.18,0-.39,0-.14a1.77,1.77,0,0,1,0,.23v.18c0,.27,0-.08,0-.13a1.35,1.35,0,0,0-.08.36c0,.08-.05.15-.07.22-.09.23.13-.28,0-.12s-.11.22-.18.33l-.11.15c.2-.33.14-.18.05-.07l-.14.13c-.19.17.08,0,.1-.06s-.19.09-.23.13.31-.11.11-.06.37,0,.06,0,.34.08.06,0a1.5,1.5,0,0,0-.79,2.89Z" transform="translate(-318.29 -8.5)"/><path class="cls-5" d="M856.93,476.53a1.5,1.5,0,0,0,0-3,1.5,1.5,0,0,0,0,3Z" transform="translate(-318.29 -8.5)"/><path class="cls-5" d="M856.59,476.53a1.5,1.5,0,0,0,0-3,1.5,1.5,0,0,0,0,3Z" transform="translate(-318.29 -8.5)"/><path class="cls-5" d="M857.35,477.35a1.5,1.5,0,0,0,0-3,1.5,1.5,0,0,0,0,3Z" transform="translate(-318.29 -8.5)"/><path class="cls-5" d="M857.22,478a1.5,1.5,0,0,0,0-3,1.5,1.5,0,0,0,0,3Z" transform="translate(-318.29 -8.5)"/><path class="cls-5" d="M857.35,478.61a1.5,1.5,0,0,0,0-3,1.5,1.5,0,0,0,0,3Z" transform="translate(-318.29 -8.5)"/><path class="cls-5" d="M857.4,478.67a1.5,1.5,0,0,0,0-3,1.5,1.5,0,0,0,0,3Z" transform="translate(-318.29 -8.5)"/><path class="cls-5" d="M691.92,77.59a1.5,1.5,0,0,0,0-3,1.5,1.5,0,0,0,0,3Z" transform="translate(-318.29 -8.5)"/><path class="cls-5" d="M691.69,77.68a1.5,1.5,0,0,0,0-3,1.5,1.5,0,0,0,0,3Z" transform="translate(-318.29 -8.5)"/><path class="cls-5" d="M692.69,78.14a1.5,1.5,0,0,0,0-3,1.5,1.5,0,0,0,0,3Z" transform="translate(-318.29 -8.5)"/><path class="cls-5" d="M692.44,68.8c.11,1.1.29,2.19.38,3.29a13.19,13.19,0,0,1,0,1.54c0,.31.07-.32,0,.07,0,.11-.06.23-.1.34-.09.31.16-.24,0,0a1.74,1.74,0,0,1-.11.18l0-.06a1.53,1.53,0,0,0,0,2.12,1.51,1.51,0,0,0,2.12,0c1.79-2.08.92-5,.67-7.5a1.61,1.61,0,0,0-.44-1.06,1.56,1.56,0,0,0-1.06-.44,1.52,1.52,0,0,0-1.5,1.5Z" transform="translate(-318.29 -8.5)"/><path class="cls-5" d="M693,77.74a1.5,1.5,0,0,0,0-3,1.5,1.5,0,0,0,0,3Z" transform="translate(-318.29 -8.5)"/><path class="cls-5" d="M693.27,77.42a1.5,1.5,0,0,0,0-3,1.5,1.5,0,0,0,0,3Z" transform="translate(-318.29 -8.5)"/><path class="cls-5" d="M692.67,78.51a1.5,1.5,0,0,0,0-3,1.5,1.5,0,0,0,0,3Z" transform="translate(-318.29 -8.5)"/><path class="cls-5" d="M391.8,413.74h0l-.4-.05.12,0-.35-.15.33.18.37.2.78.37a1.12,1.12,0,0,0,.56.18,1.08,1.08,0,0,0,.59,0,1,1,0,0,0,.51-.27,1,1,0,0,0,.39-.42,1.49,1.49,0,0,0,.15-1.15l-.15-.36a1.4,1.4,0,0,0-.54-.54c-.3-.13-.59-.28-.89-.43l-.41-.23-.18-.09a2,2,0,0,0-.91-.25,1.72,1.72,0,0,0-1.06.44,1.24,1.24,0,0,0-.31.48,1.27,1.27,0,0,0-.13.58l.06.4a1.57,1.57,0,0,0,.38.66l.31.24a1.5,1.5,0,0,0,.75.2Z" transform="translate(-318.29 -8.5)"/><path class="cls-5" d="M691.77,66.87c.16.39.29.79.42,1.19a8.49,8.49,0,0,1,.3,1.23,1.26,1.26,0,0,0,.27.51,1,1,0,0,0,.42.38,1.51,1.51,0,0,0,1.16.15,1.49,1.49,0,0,0,.89-.68l.15-.36a1.55,1.55,0,0,0,0-.8,8.36,8.36,0,0,0-.3-1.22c-.13-.41-.26-.81-.41-1.2a1.26,1.26,0,0,0-.27-.51,1.18,1.18,0,0,0-.42-.38,1.57,1.57,0,0,0-1.16-.16,1.59,1.59,0,0,0-.9.69,1.52,1.52,0,0,0-.15,1.16Z" transform="translate(-318.29 -8.5)"/><path class="cls-5" d="M692,73.63v0l-.15-.36a1.43,1.43,0,0,1,.11.39l0-.4c0,.11,0,.21,0,.31a1.08,1.08,0,0,0,.13.58,1.14,1.14,0,0,0,.31.48,1,1,0,0,0,.48.31,1.15,1.15,0,0,0,.58.13l.4-.06a1.57,1.57,0,0,0,.66-.38l.23-.3a1.48,1.48,0,0,0,.21-.76v-.2a5.77,5.77,0,0,0-.08-.58,3,3,0,0,0-.26-.71,1.06,1.06,0,0,0-.39-.42,1,1,0,0,0-.51-.27,1.12,1.12,0,0,0-.6,0,1.09,1.09,0,0,0-.55.18l-.31.23a1.57,1.57,0,0,0-.38.66l-.06.4a1.45,1.45,0,0,0,.21.76Z" transform="translate(-318.29 -8.5)"/><path class="cls-5" d="M693.91,77a0,0,0,0,1,0,0l.05.39v0l-.05.39a0,0,0,0,1,0,0l-.15.35,0,0-.24.3h0l-2.36-1.82a3.79,3.79,0,0,0-.18.42.14.14,0,0,0,0,.07.57.57,0,0,0,0,.14,1.18,1.18,0,0,0,0,.59,1.12,1.12,0,0,0,.18.56,1.72,1.72,0,0,0,.9.69l.4,0a1.41,1.41,0,0,0,.75-.2l.31-.23a1.54,1.54,0,0,0,.38-.67l.06-.2-.15.36,0-.07a1.09,1.09,0,0,0,.18-.55,1.12,1.12,0,0,0,0-.6l-.15-.36a1,1,0,0,0-.38-.42.77.77,0,0,0-.34-.19,1,1,0,0,0-.57-.13l-.4,0a1.39,1.39,0,0,0-.66.39h0c.1-.12-.18.22-.24.32h0l-.15.36v0c0,.14,0,.28-.06.42v0a2.06,2.06,0,0,0,0,.21.88.88,0,0,0,0,.21v0a1.26,1.26,0,0,0,.27.51,1.18,1.18,0,0,0,.42.38,1.16,1.16,0,0,0,.56.18,1,1,0,0,0,.6,0l.36-.15a1.61,1.61,0,0,0,.54-.53l.15-.36a1.55,1.55,0,0,0,0-.8Z" transform="translate(-318.29 -8.5)"/><path class="cls-5" d="M693.64,78.17c.26-.49.55-1,.86-1.43a4.18,4.18,0,0,0,.37-.65,4.45,4.45,0,0,0,.24-.81.38.38,0,0,0-.26-.46.37.37,0,0,0-.46.26,3.51,3.51,0,0,1-.21.72,4.54,4.54,0,0,1-.36.6c-.29.46-.57.92-.83,1.39a.4.4,0,0,0,.14.52.38.38,0,0,0,.51-.14Z" transform="translate(-318.29 -8.5)"/><path class="cls-5" d="M685.59,75.49a15.54,15.54,0,0,1,1.93,0,.37.37,0,0,0,.38-.38.39.39,0,0,0-.38-.37,15.54,15.54,0,0,0-1.93,0,.38.38,0,1,0,0,.75Z" transform="translate(-318.29 -8.5)"/><path class="cls-5" d="M688.29,75.4a4.33,4.33,0,0,0,.37.27l.19.13.1.07s.06,0,0,0a3.31,3.31,0,0,1,.27.26,2.09,2.09,0,0,1,.14.17s0,0,0,0a.35.35,0,0,0,.05.08,2.3,2.3,0,0,1,.32.85,1.89,1.89,0,0,1,0,.85.37.37,0,1,0,.72.2,2.13,2.13,0,0,0,0-1.12,3.15,3.15,0,0,0-.36-1.07,3,3,0,0,0-.58-.69c-.22-.21-.54-.37-.75-.54a.37.37,0,0,0-.53.53Z" transform="translate(-318.29 -8.5)"/></g></svg>