<svg id="Capa_15" data-name="Capa 15" xmlns="http://www.w3.org/2000/svg" viewBox="0 0 594.91 603.14"><defs><style>.cls-1{fill:none;stroke:#878478;stroke-miterlimit:10;stroke-width:3px;}</style></defs><title>delineado_interior</title><path class="cls-1" d="M335.27,620c3.18-5.86,5.76-12.59,10.78-17.18a14,14,0,0,1,3.95-2.62,28.24,28.24,0,0,0,4.57-2.11c2.31-1.55,3.59-4.48,6.31-5.45,3.17-1.14,6.65-1,9.9-1.89,2.75-.73,5.89-2,7.75-4.24,1.72-2.08,2.28-4.87,2.68-7.54,1.69-11.49-.66-23.6-.92-35.17-.09-4.38-1.52-14-.84-18.65.22-1.52,1.59-1.84,2.68-2.58,1.63-1.11,1-2.53-.54-3.4-2.6-1.45-5.35-1.55-7.51-3.81-7.31-7.64-16.79-12.58-26.39-16.72-6.18-2.66-12.76-4.64-19.52-4.53" transform="translate(-328.14 -47.7)"/><path class="cls-1" d="M383.27,521.19a10.18,10.18,0,0,1,8.55-1.23c3.38,1.07,5.82,3.81,9,5.26,6.56,3,13.67,2.25,20.15,5.48,3.76,1.87,7.25,4.25,11,6.15,9.27,4.69,19.16,4.78,29.31,5q14.11.35,28.23-.14c6.24-.21,13.79.36,19.18,3.82,3.62,2.33,5.86,6.11,8.86,9.1,2.82,2.79,6.57,4.25,10.07,6,5.14,2.55,10.12,5.69,15.76,7,7,1.67,14.36,2.09,21.17-.41a2.59,2.59,0,0,1,3.65,1,86.29,86.29,0,0,0,9.86,9.25c6.46,5.45,12.88,10.92,19.73,15.9,3.75,2.73,7.58,5.82,11.86,7.67a42.35,42.35,0,0,0,10.59,2.63c2.44.37,4.87.75,7.31,1.06,4.72.59,8.34,3.92,11.84,6.85a120.31,120.31,0,0,0,10.29,7.84c3.63,2.45,7.39,4.86,11.64,6.06,3.34,1,6.57.79,10,.68,5.85-.19,11.68-.21,17.34,1.45,12.4,3.63,21.81,12.57,32,20l2.45,2" transform="translate(-328.14 -47.7)"/><path class="cls-1" d="M397.64,413.57c1,2.39,3,4,5,5.54a96.78,96.78,0,0,0,12.79,7.79c4.89,2.67,9.8,5.15,14.86,7.34,3,1.28,6,2.47,9,3.55a.27.27,0,0,1,.15.1.28.28,0,0,1,0,.18c-1.29,3.57-2.83,7.13-3.38,10.89a34.21,34.21,0,0,0,2,17.14c1.36,3.3,3.33,6.83,6.17,9.07a23.54,23.54,0,0,0,20,4.69c1.82-.44,3.12-1.77,5.06-1.91a11.65,11.65,0,0,1,3.66.42c5.83,1.42,11.31,3.94,16.71,6.5s11.06,5.3,16.58,8l3.25,1.58c8.13,4,15.26,9.32,19.16,17.76a30.73,30.73,0,0,1,2.68,8.87c.28,2.1.47,4.23.69,6.34a16.59,16.59,0,0,0,1.83,5.31,46.5,46.5,0,0,0,6.49,9.77,144.64,144.64,0,0,0,11.32,11.24c3.92,3.73,7.91,7.41,12,10.93l1.66,1.42.7.58.29.25" transform="translate(-328.14 -47.7)"/><path class="cls-1" d="M855.17,477.39a86.22,86.22,0,0,1-6.75-5.93,96.82,96.82,0,0,1-13.12-15.25c-4.24-6.2-7.74-13.21-8.75-20.73a30.46,30.46,0,0,1,1.66-14.5c1-2.82,2.65-5.32,5.6-6.25a14,14,0,0,1,8.62.28,2,2,0,0,0,.79.17,1.66,1.66,0,0,0,1.07-.84c3-4.37,2.16-9.9,1.81-14.85,0-.13,0-.27.07-.35a.45.45,0,0,1,.27-.1A32.78,32.78,0,0,1,858,400.17a.2.2,0,0,0,.17,0c.06,0,.08-.11.1-.17.63-2.85-.15-6.08-1-8.79-.59-1.81.84-3,1.9-4.32a22.73,22.73,0,0,1,3.82-3.71,25.48,25.48,0,0,1,2.28-1.56c.61-.37,1.61-.7,1.91-1.41a2,2,0,0,0-.18-1.54,18.3,18.3,0,0,0-3.75-5,138.59,138.59,0,0,0-14.13-12.72c-5.29-4.31-10.69-8.47-16.16-12.56-3.13-2.33-5.94-5.44-9.85-6.46-4.1-1.07-8.57.2-12.05,2.45s-5.73,6.54-9.8,8.06a25.71,25.71,0,0,1-7.85,1.12c-4.67.21-9.34.46-14,.71a5.62,5.62,0,0,1-2.24-.17c-.81-.3-1.44-.95-2.25-1.23a5.32,5.32,0,0,0-2.88.06,11,11,0,0,0-4.27,2.35,35,35,0,0,0-2.68,2.77c-1,1-2,2.53-3.3,3.24a2,2,0,0,1-.84.18,142.11,142.11,0,0,0-17.58,2.05c-5.57,1-11.18,2.19-16.36,4.53a30.22,30.22,0,0,0-8.63,5.71c-1.1,1.06-2.1,2.23-3.29,3.19a14.21,14.21,0,0,1-4.2,2.08,48.81,48.81,0,0,1-10.13,2.81,116.72,116.72,0,0,1-13.2,1.12c-6.32.27-12.63,0-18.93-.17-3.3-.1-6.78-.64-10.05-.12a25.78,25.78,0,0,0-6.5,2.28c-5.24,2.34-10.85,4.9-16.67,5.19a35.76,35.76,0,0,0-7.72.8c-4,1.09-7.74,3-11.57,4.59-4.94,2.05-10.05,3.71-14.9,5.95-4,1.85-8.77,4.89-13.07,1.91a15,15,0,0,1-3.47-4,59.67,59.67,0,0,0-10.42-11.94,28.94,28.94,0,0,0-7.56-4.63c-2.87-1.17-5.85-1.74-8.65-3.17-3.4-1.73-6.63-3.87-10.26-5.12a29,29,0,0,0-10.92-1.29c-4.46.25-7.94,1.54-11,4.84a44.86,44.86,0,0,0-6.09,9c-2.11,3.84-3.92,7.84-6.06,11.66a28.4,28.4,0,0,1-7.38,8.51c-2.43,1.94-6.2,4.62-9.31,2.52a16,16,0,0,1-2.71-3.08,15.69,15.69,0,0,0-4.72-3.26c-2.21-1.19-4.44-2.31-6.63-3.51a.62.62,0,0,1-.25-.2c-.24-.38.69-2,.84-2.38.42-1,.85-2,1.32-3a36.22,36.22,0,0,1,3.25-5.32c1.69-2.36,3.51-4.64,5.16-7a84.47,84.47,0,0,0,4.29-7.59c2.13-3.85,3.73-8,5.77-12,5.62-10.83,10.48-22,15.63-33,.58-1.26,1.17-2.51,1.77-3.77,3.94-8.3,8.27-16.4,12.22-24.68l6.9-14.47a.37.37,0,0,0,.06-.25.44.44,0,0,0-.14-.22c-3.71-3.51-7.42-7-10.08-11.41-2.39-4-4-8.49-3-13.17a2.09,2.09,0,0,0,0-1.54c-.38-.62-1.29-.61-2-.45-3.07.7-5,2.67-7.14,4.76-.44.42-1,.87-1.56.73a1.24,1.24,0,0,1-.85-.94c-.27-1.11.16-2.37,0-3.51a28.69,28.69,0,0,0-.78-4c-.7-2.63-1.7-5.17-2.65-7.73-3.43-9.24-8.53-17.57-11.29-27.12-5-17.39-4.61-36-2.38-53.82.43-3.45.91-6.87,1.29-10.31" transform="translate(-328.14 -47.7)"/><path class="cls-1" d="M463,202.58a22.09,22.09,0,0,1,6.66-16.79,43.77,43.77,0,0,1,6.65-5.33c2.11-1.43,4.74-2.67,6-5s1.22-5.63,1-8.31c-.74-10.05-3.36-20.77,0-30.64" transform="translate(-328.14 -47.7)"/><path class="cls-1" d="M506.79,134.82c6.2,1.85,13.84,4.7,17.5,10.38a18.52,18.52,0,0,1,2.39,11.91c-.64,6.35-3.31,12.29-4.17,18.61a35,35,0,0,0,1.09,14.57c.65,2.19,1.9,7.41,5.13,7,4.28-.57,6.74-8.3,8.55-11.49A85.94,85.94,0,0,1,547,172c3.59-4.17,7.46-8.23,12.91-9.79,4.45-1.26,9.77,0,13.56,2.51,5.66,3.74,7.94,9.76,7.7,16.35a53.16,53.16,0,0,1-1.65,10.71c-.82,3.34-2.61,6.92-2.16,10.42a2.81,2.81,0,0,0,.5,1.38,2.24,2.24,0,0,0,1.17.68c2,.58,3.78-.54,5.08-2a78.64,78.64,0,0,1,8.75-8.47,92.86,92.86,0,0,1,13.34-9.47c2-1.13,4.86-2.09,6.2.53a7.67,7.67,0,0,1,.59,3.56c-.06,6.63-1.4,13.87-4.88,19.59-4.84,8-11.72,14.75-15.83,23.09-1.5,3-2.72,6.42-5.16,8.85-2.68,2.65-6.59,3.73-9.52,6.08-3.54,2.85-3.77,7.42-1.67,11.29,3.2,5.91,8.34,10.39,12.91,15.2,7.14,7.53,16.24,12.7,24.36,19,6,4.7,11,10.44,17.61,14.51,14.67,9.06,31.23,6.39,46.43.09,5.24-2.18,10.33-4.7,15.42-7.22,7.61-3.77,13.67-8.57,19.78-14.42a127.8,127.8,0,0,1,18.41-14.62c6-3.92,12.11-9.09,19.36-10.3,3.75-.63,7.61-.25,11.3-1.29a12.54,12.54,0,0,0,5.74-3.21c1.33-1.41,2.16-3.41,3.09-4.93" transform="translate(-328.14 -47.7)"/><path class="cls-1" d="M805.16,253.3c1.55,6,1.12,14.06,0,20s-3.57,11.86-5.37,17.63c-3,9.67-6.86,19.43-8.92,29.36a25.49,25.49,0,0,0,.11,12c1,3.62,3.63,6.53,6.25,9.1s5.65,5.75,9.33,7.13" transform="translate(-328.14 -47.7)"/><path class="cls-1" d="M755,157.64c.48.13.67.69.82,1.17a12.6,12.6,0,0,0,4.09,5.65,43.55,43.55,0,0,0,10.48,6.64c5.84,2.81,11.58,5.43,17.49,8.09A132.08,132.08,0,0,0,807.47,186a58.73,58.73,0,0,1,16,6.51,44.47,44.47,0,0,1,10.38,8.28c2.58,3,5.16,5.94,8,8.68a.67.67,0,0,1,.23.35.67.67,0,0,1-.19.51c-1,1.42-2.3,2.67-3.36,4.08-4.45,5.9-5.08,13.15-8.43,19.54a36.09,36.09,0,0,1-9.8,11.75c-4.31,3.35-9.57,6.45-15,7.55-3.29.68-6.72-.4-9.94-1a101.81,101.81,0,0,0-20.26-1.4c-1.82,0-3.8.17-5.2-1.25a5.46,5.46,0,0,1-1.23-2.33c-1.4-4.69-.81-11.43-5.79-14.29-1.31-.76-2.71-.54-4.15-.52-1.87,0-3.74,0-5.6-.09q-5.43-.18-10.85-.65a170,170,0,0,1-21.55-3c-3.27-.72-6.61-2.15-9.92-2.54a19.94,19.94,0,0,0-6.62.45c-.61.13-1.21.28-1.81.45-3.3.92-6.34,2.6-9.67,3.46-4.21,1.09-10.08,1.15-13.81-1.46a31.43,31.43,0,0,1-4.45-3.78,28.93,28.93,0,0,1-5.14-7.17c-.5-1-.81-2.1.38-2.68,2.62-1.28,4.81-3.22,7.34-4.66,5.84-3.32,12.64-4.46,18.75-7.24a79.25,79.25,0,0,0,19.74-12.62,42.93,42.93,0,0,0,7.66-8.33c2.15-3.29,3.91-6.87,6.53-9.83a32.67,32.67,0,0,1,8.78-7c.41-.22.82-.46,1.24-.68,3.65-1.91,7.35-3.72,11-5.53l2.43-1.2C753.73,158.12,754.44,157.48,755,157.64Z" transform="translate(-328.14 -47.7)"/><path class="cls-1" d="M612.35,184.89c4.58-.44,8.62,2.05,12.39,4.3a28.08,28.08,0,0,0,9.74,3.6c2,.33,6.9,1.36,8.32-.68a22,22,0,0,0,1.27-2.79c.46-.92.94-1.83,1.46-2.73a37.76,37.76,0,0,1,8.25-10.25,8.59,8.59,0,0,1,3.11-1.82c2.57-.71,4.73,1.35,6.2,3.21a21.18,21.18,0,0,1,3.48,7.27,20.5,20.5,0,0,1,1.27,4.59,21.62,21.62,0,0,1-.79,6.88,27.92,27.92,0,0,1-1.13,3.3,13.29,13.29,0,0,0-1.2,2.93c-.29,1.89.55,3.82,1.12,5.6.95,3,2.1,5.94,3.14,8.92" transform="translate(-328.14 -47.7)"/><path class="cls-1" d="M663.09,177.73c-1.92-5.57-4.32-11-8.8-14.95-2.9-2.59-6.11-4.62-8.35-7.87-.93-1.36-1.89-2.72-2.82-4.09-.46-.68-.93-1.37-1.38-2.06a12.85,12.85,0,0,1-.84-1.24,2.29,2.29,0,0,1,0-1.65q1.3-6.13,2.63-12.25t2.62-12.23q.87-4,1.73-8.06c0-.22.09-.45.14-.67.75-3.77,1.4-7.54,2.08-11.33.63-3.53,1.62-7.11,3.77-10,2.64-3.54,6.68-5.59,10.55-7.51,4.4-2.19,8.81-4.34,13.17-6.61,2.41-1.25,5.08-3.42,7.83-3.61s5.78,1.24,6.77,3.84a8.47,8.47,0,0,1,.38,3.47c-.62,11.3-10.24,19.74-16,28.74a2.33,2.33,0,0,0-.44,1,2.41,2.41,0,0,0,.72,1.63,7,7,0,0,0,4.12,2.8,1,1,0,0,1,.41.19,1.07,1.07,0,0,1,.26.48c.83,2.62,1.44,5.41,2.85,7.8a7.23,7.23,0,0,0,3.1,3,6.21,6.21,0,0,0,4.77.06c7.19-2.76,8.89-11.27,9.28-18.1.24-4.17.18-8.35.14-12.53,0-3.6.64-7.25-.71-10.7-.77-2-2-3.77-2.77-5.76-3.16-8.39,3.82-16.25,12-17.57,4.08-.67,8.2-1.16,12.2-2.23a69.61,69.61,0,0,0,13.31-5.42c2.3-1.17,4.44-2.63,6.72-3.85.71-.38,2.7-1.71,3.22-1.09s1,2.74,1.21,3.68c.63,2.7,1.11,5.43,2.93,7.63,1,1.24,2.24,2.31,3.29,3.52,3.39,3.91,4.36,8.88,5.17,13.84a59.87,59.87,0,0,0,1.65,6,32.33,32.33,0,0,1,1,6.56c.45,7.71-1.08,15.18-2.16,22.76a111.35,111.35,0,0,1-2.1,11.62c-1,3.83-2.27,7.58-2.92,11.5a49.89,49.89,0,0,0-.16,14.54c.27,2.11.4,4.67,1.3,6.63" transform="translate(-328.14 -47.7)"/><path class="cls-1" d="M841.87,210.35c14.07-10.94,31-18.16,48.45-21.86a20.15,20.15,0,0,1,8.13-.49c5,1,8.58,5.17,12.68,8.17s9.35-.74,8.61-5.87c-.44-3.08-3-5.44-4-8.36a9.29,9.29,0,0,1,.31-7c1-2.18,2.82-3.87,4.13-5.87,2.65-4,1.22-7.82-2.47-10.48-3.5-2.54-6.68-5.23-8.88-9a10.24,10.24,0,0,1-1-8.71c1.16-3.77,3-7.22,4.29-11a45.38,45.38,0,0,0,2.33-17.1" transform="translate(-328.14 -47.7)"/></svg>