<svg id="Capa_5" data-name="Capa 5" xmlns="http://www.w3.org/2000/svg" viewBox="0 0 477.86 313.58"><defs><style>.cls-1{fill:#b5b19d;}</style></defs><title>ecuador</title><path class="cls-1" d="M890.27,393.34a25.72,25.72,0,0,0,5.37,20.17c9.59,12.43,17.71,26.08,29.34,36.87,7.59,7.05,15.21,14.09,24.4,19.14a18.2,18.2,0,0,1,5.63,4.31c2.38,3,1.77,6.68-1.63,8.17a56.17,56.17,0,0,1-27.73,4.39c-14.18-1.21-26.76-6.56-39.09-13.05-6.08-3.19-12.26-6.19-18.47-9.12-4.42-2.09-8.15-4.9-10.61-9.15-8.23-14.28-21.49-19.49-36.94-22.52-16.94-3.32-33.59-1.15-50.33-.15-10.9.65-21.71-.26-32.56-.32-10.38-.06-20.7-.29-30.84-3-9.39-2.47-18.15-6.08-25.92-12.08-9.92-7.66-21.17-11.66-33.75-12.79-13.92-1.24-26.22-7-36.81-16.1a6.62,6.62,0,0,0-6.69-1.54c-5.11,1.21-10.18,3.72-15.71,1.55-3.84-1.51-6.68-4.33-9.61-7a77.89,77.89,0,0,0-9.39-7.42c-11.84-7.9-23.51-16.1-36.11-22.76a140.55,140.55,0,0,0-28.54-11.16c-5.06-1.39-10-2.81-15.44-2.36-3.6.3-7.13-.59-9.13-4-2.17-3.71-.91-7.33,1.3-10.55a49.47,49.47,0,0,1,12.61-12.67,11.36,11.36,0,0,0,4.76-7.22c3.06-12.57,10.45-22.52,19.89-31,4-3.58,7.61-7.59,12.24-10.43a6.92,6.92,0,0,0,2.84-4.28c3.52-12,7.48-23.79,7.49-36.52,0-8.84,1.54-17.41,7.31-24.66,5.12-6.44,11.66-8.61,19.6-6.76a64.79,64.79,0,0,0,12.54,2c2.7.1,4.45-.56,5.29-3.46a24.65,24.65,0,0,1,5.28-8.92c5.06-6.05,11.34-7,18.29-5a96.67,96.67,0,0,1,18,7.41c27,13.86,52.44,30.55,79.29,44.7,5.27,2.78,6,5.24,3.38,10.51A39.36,39.36,0,0,0,706,251.36c-.6,8.81-1.53,17.65-.15,26.52.76,4.89,3.19,9,6.05,12.72,5.77,7.4,12.95,13.08,22.25,15.67,4.39,1.22,8.4-.64,12.53-1.26,19.2-2.88,37.79-1.28,55.64,6.78,13.42,6.07,27.23,11.41,40.24,18.26,11.3,5.95,22.9,11.79,32.2,21,7.82,7.7,11.91,17.32,14.21,27.88C890,383.68,890.86,388.44,890.27,393.34Z" transform="translate(-478.59 -173.03)"/></svg>