<svg id="Capa_21" data-name="Capa 21" xmlns="http://www.w3.org/2000/svg" viewBox="0 0 1142.51 549.23"><defs><style>.cls-1{fill:#c0c1bb;stroke:#c0c1bb;stroke-miterlimit:10;stroke-width:2px;}</style></defs><title>fondo paises 1</title><path class="cls-1" d="M1163.14,232.68c6.45-2.63,14.68,1.46,16.34,8.29,1.7,7-4.23,14.8-11.44,15,30.24,15.07,64.75,16.37,96.87,25.26a150.76,150.76,0,0,1,74.95,47.31q3.77,4.41,7.16,9.12c1.73,2.4,5.79,5.75,5.29,9-.33,2.16-2.15,4.25-2.48,6.66a19.53,19.53,0,0,0,.58,7.79c1.36,4.92,4.35,9.25,7.76,13.05,9,10.08,20.07,19.91,32.23,26,5.94,3,12.5,5.09,17.38,9.61,9,8.35,9.62,22.15,9.62,34.44q0,163.11-.1,326.24L277.1,779.1c7.58-38.9,15.19-78.66,9.72-117.91-1.06-7.56-2.59-15.26-1.2-22.77,2.31-12.5,22.67-39.59,36.79-28.31,15.67,12.53,25.44,36.54,29.07,55.64,1.69,8.88,2.56,18.62,8.68,25.28,7.33,8,19.48,8.68,30.33,8.82l92.95,1.2c23.86.31,48,.59,71.25-4.82,42.62-9.92,80.27-38.51,123.91-41.8,11.67-.87,23.62.08,34.88-3.09,9.1-2.57,17.23-7.71,25.22-12.78l111.09-70.51c5.12-3.25,10.48-6.77,13.13-12.23,2.4-4.94,2.17-10.7,1.89-16.19q-1.37-26.82-2.72-53.63c-.28-5.5-.34-11.64,3.35-15.72,4.11-4.54,11-4.64,17.11-5.3C923,460.57,948.9,415.82,933,378.61c-2.51-5.86-6.48-10.92-10.77-15.56-2-2.2-4.29-4.16-6.48-6.21-1.3-1.22-5.83-4-5.74-6.08.06-1.28,3-.17,4,0,1.85.32,3.7.63,5.56.91a343.64,343.64,0,0,0,51.28,3.41c19.24-.33,39.21-2.23,58-7.59a141.8,141.8,0,0,0,27.92-11.17c8.26-4.42,17.66-16.45,28.15-14.19,10.06,2.17,12.78,15.86,16.61,23.57,2.71,5.47,7.3,10.74,13.38,11.31,7.16.67,13.45-5.78,15-12.79s-.35-14.31-2.59-21.14-4.84-13.77-4.56-20.95c.54-13.68,11.09-24.57,20.76-34.27s19.77-21.3,19-35Z" transform="translate(-275.89 -230.87)"/></svg>