<svg id="Capa_21" data-name="Capa 21" xmlns="http://www.w3.org/2000/svg" viewBox="0 0 455.1 275.55"><defs><style>.cls-1{fill:#c0c1bb;stroke:#c0c1bb;stroke-miterlimit:10;stroke-width:2px;}</style></defs><title>fondo paises</title><path class="cls-1" d="M392.76,131.3v0c0-.16-8.66,7.43-9.39,8.42a24.86,24.86,0,0,0-5,11.34,65.62,65.62,0,0,0-.08,16.45,17.14,17.14,0,0,0,.95,4.71.29.29,0,0,1,0,.16.24.24,0,0,1-.08.09,26.46,26.46,0,0,1-6.16,4.18,21.44,21.44,0,0,1-7.45,2,19.86,19.86,0,0,1-6.19-.53,19.44,19.44,0,0,1-14.05-24.53c-3.26-1.53-4.45-1-5.41,2.13a4,4,0,0,1-3.17,2.51c-5.71,1.07-9.28-3.78-11.82-8.11-3.07-5.24-6.31-10.84-12.19-13.3-2.67-1.11-5.89-1.37-8.34.17-3,1.9-4.4,6.17-7.86,7.07-4.63,1.2-8.21-4.06-12.52-4.81-5.51-1-9.19,4-13.71,6.17-3.48,1.64-7.52,1.42-11.34,1a141.9,141.9,0,0,1-20.67-3.82c-4.74-1.24-9.93-3-13.51-6.53-4-3.86-3.81-9.54-10.82-7.9-3.84.9-7.49,2.73-11.43,2.93-7.3.37-12.2-5.38-17-10-9.48-9-23.43-12.33-31.09-22.94-4.13-5.71-6.14-13.31-6.5-20.28,1.52-.48,3.51-2.15,1.83-3.66-2.29-2.06-7.78-5.27-8.71-2.08-1,3.45-10.33,2.83-12.77,3a65.79,65.79,0,0,0-17.2,3.36c-5.59,2-10.71,5.22-16.27,7.35-24,9.2-48.08-18-72-19.69C19,66,15,66.19,11.46,64.82c-4.2-1.61-4.13-4.3-6.15-7.46-1.54-2.42-3.83-3.87-5.69-6.13A16.45,16.45,0,0,1-2.85,46c-5-14.23-15.45-25-26.79-34.46C-37.12,5.26-45.26-1-50.39-9.42-54.75-16.6-56.93-25.65-60-33.48l158.22-61s6.93,27.94,22.47,47.24c7.33,9.11,15.07,18.32,19.86,29.1,2,4.6,3.72,9.13,4.12,14.16.44,5.51-.5,11.37,2.4,16.38s8.8,7.43,14.42,8.87a80,80,0,0,0,16,2.38c2.31.11,4.72.14,6.75,1.25a13.42,13.42,0,0,1,4.26,4.41,161.64,161.64,0,0,1,15.07,26.82c3.83,8.64,13.89,15.42,20.63,21.93C229,82.72,234.29,87.84,240.82,90c7.73,2.54,16.29-1.12,24.29-.35A46.08,46.08,0,0,1,282.75,95c4.9,2.67,11,7.32,16.55,3.23.91-.67,1.67-1.54,2.61-2.18a11.09,11.09,0,0,1,4-1.58c9.81-2.19,18.61,1.92,25.4,8.88a66.71,66.71,0,0,1,6.22,7.5c1.16,1.6,3,6.14,5.33,6s3.25-2.39,4.8-3.68c1.92-1.59,4.51-2.11,6.89-2.54a58.94,58.94,0,0,0,14.38-4.15c3.92-1.81,6.45-5.15,10.14-7.21a4.91,4.91,0,0,1,3.46-.7,4.66,4.66,0,0,1,3,3C389.24,111,390.69,121.42,392.76,131.3Z" transform="translate(61.34 95.82)"/></svg>