<svg id="Capa_6" data-name="Capa 6" xmlns="http://www.w3.org/2000/svg" viewBox="0 0 126.36 253.57"><defs><style>.cls-1{fill:#b5b19d;}</style></defs><title>guayaquil</title><path class="cls-1" d="M699.49,385.31c-4.52-1.24-8.6,1.36-12.62,5.67-5.26,5.62-11,10.88-19,12.64-3.27.72-5.94,3.24-8,5.95-6.16,8.14-12.86,15.9-17,25.46-2,4.58-7.08,4.72-10.57.17a50.64,50.64,0,0,1-7.86-14.79A128.27,128.27,0,0,1,619,394.94c-.78-6.17.52-8.64,6.39-10.86a3.84,3.84,0,0,0,1.05-.37c8.14-6.54,17.41-11.16,26.62-15.9,1.16-.6,1.67-1.79,2.29-2.89,2.13-3.81,4.12-7.72,7.23-10.88a11.75,11.75,0,0,0,2.34-4.65c2.36-6.84,4.69-13.7,7.08-20.54a17.67,17.67,0,0,1,5.26-8c4-3.4,3.76-8.44,4-13.12.07-1.46-1.23-2.34-2.83-2.44-2.52-.17-4.92-.13-7.26,1.18-5.88,3.3-11.86,6.42-17.78,9.64a31.32,31.32,0,0,1-13.47,4.18c-7.48.36-12.65-2.4-15.55-9.24-3.24-7.65-6.92-15.12-6.54-24,.21-4.93-2.08-9.74-4.17-14.27a20.72,20.72,0,0,1-1.3-13.16c1.2-6.23,2.32-12.49,3.53-18.73,1.37-7.06.05-14.17.4-21.27.52-10.66,4.34-20.15,9-29.44,2.22-4.46,9-6.4,14.59-4.55a123.61,123.61,0,0,0,23.55,5.75A19.26,19.26,0,0,1,675,197c7,7.25,15.94,10.46,25.38,12.74a4.9,4.9,0,0,0,2.22,0c8.59-2.11,14.9,1.42,19.66,8.21,2.52,3.61,5.09,6.86,9,9.21,4.18,2.51,5.8,7.1,6.74,11.7.72,3.5-.74,6.35-4.27,7.29-3,.81-3.17,2.59-3.39,5.21-.8,9.57-.34,19.2-.23,28.7.21,17,.36,34.19,3.18,51.13,1.16,7-.45,13.94-1,20.9-.36,5.08-.6,10.24-2.23,15.14C727,376.79,715.47,387.27,699.49,385.31Z" transform="translate(-611.87 -184.97)"/></svg>