<svg id="Capa_3" data-name="Capa 3" xmlns="http://www.w3.org/2000/svg" viewBox="0 0 185.06 314.31"><defs><style>.cls-1{fill:#0f0f0f;}.cls-2{fill:#080808;}.cls-3{fill:#0a0a0a;}.cls-4{fill:#090909;}.cls-5{fill:#121212;}.cls-6{fill:#252525;}.cls-7{fill:#070707;}.cls-8{fill:#0b0b0b;}.cls-9{fill:#0c0c0c;}.cls-10{fill:#0e0e0e;}.cls-11{fill:#0d0d0d;}</style></defs><title>infanteria</title><path d="M157.94,357.35c-4.84-14.82-7-29.7-.76-44.69a8.89,8.89,0,0,0-.72-8.46c-5-8.93-8-18.87-13.75-28.41-3.79,7.29-7.26,14.07-10.84,20.78-2,3.77-3.77,7.73-6.92,10.78-5.73,2-8.66,7.47-13.4,10.8,1.24.55,3.59-1.89,3.53,1.46-7.8,11.54-15.67,23-22,35.45a21.58,21.58,0,0,0,5.3,26c1.38,1.18,3,1.3,4.58,1.73,2.83.77,3.47,2.78,3.15,5.37s-2.32,2.25-4.16,2.4c-8.65.7-16-1.17-21.21-9-1.53-2.3-3.49-5.18-7.71-2.75-2.55,1.46-6.87-3.12-6.8-6.61.13-7.57,3.59-13.6,8.77-18.82,4.83-1,7.64-4.52,10.22-8.25.71-1,1-2.4,2-3.24a3.09,3.09,0,0,1,1.35-.59,1.05,1.05,0,0,0-.84.17c-2.46,1.93-3.87,4.8-6.24,6.76-1.09.9-2.47,2.66-3.62-.06q4-11.76,8-23.5c3.15-9.24,9.26-16.47,15.92-23.28,5.1-5.21,7.76-11.35,8.28-19.28-3,2.4-5.33,4.45-7.84,6.28-1.12.82-2.52,2.47-3.85,1.41s-.1-2.74.54-4.08c2.57-5.32,6.47-9.66,10.36-14,2.34-2.61,3.64-12,2-14.81a.8.8,0,0,0-.34-.34c-8.72-2.77-3.46-7.74-2-12.22.82-2.59,3.8-5.24.48-8s-5.69-2.12-8.47,2c-1.07,1.61-2.12,4.24-4.39,2.89s-.63-3.57.34-5.29q4.53-8.06,9.11-16.06c1.77-3.11,4-5.9,7.38-7.17,2.53-1,2.5-2.44,2.47-4.61-.07-4.18-.29-7.59-5.74-4.14a2.41,2.41,0,0,1-2.83.13c-1-.85-.28-1.83.36-2.56,1-1.13.66-1.58-.44-2.62A61.2,61.2,0,0,1,96.37,186c-.26-.42-.4-1.17-.73-1.25-8-2.07-5.24-7.94-4.42-12.91a59.85,59.85,0,0,0,.8-6.92c.32-7.15,1.83-13.72,8.75-17.62a2.22,2.22,0,0,0,.92-1.58c.13-5.65,4.3-6.14,8.36-6.41,10.41-.69,15.5,2.87,20.54,14.25a32.72,32.72,0,0,1,11.31-6.19c6.11-2,7-8.29,10.59-12.31,1.45-1.6-1.42-2.47-1.65-4.11-.83-5.81-2-11.49-5.22-16.65-2.77-4.38-1.8-5.93,3.51-5.86,10.6.13,20.93-1.1,30.85-5,2.76-1.08,5.59-1.83,7.41-4.67,1.44-2.25,3.17-1.73,3.64.89a10.89,10.89,0,0,1,0,5.41c-2.37,6.61-4,13.16-3.52,20.37.17,2.49,1.27,3.42,2.43,4.8.82,1,2.53,1.56,2.15,3.08-.42,1.69-2.23,1.33-3.41,1.24-4.45-.34-5.23,1.19-2.84,4.84,1,1.51,2.11,2.93-.79,4.24-1.39.63-2.3,2.85-2.45,5-.17,2.38.9,5.59-3.28,6.08-1.28.15-.28,1.28.07,1.84,3.85,6.21,5.64,12.48,3.42,20-1,3.32.85,7.46,1.56,12.31,2.49-5.17,7.2-7.68,9.12-12.53a5.43,5.43,0,0,1,3.33-2.88c5.09-1.89,7.45-5.93,9.62-10.62,4.9-10.54,10.83-20.63,15.36-31.32s10.7-20.51,14.6-31.59c2.29-6.49,6.37-12.81,9.89-19.07.83-1.48,1.62-3.3,3.7-2.4,2.26,1,.86,2.75.44,4.25-.53,1.95-2.83,3.72,0,6,.9.7-.64,2.68-1.22,4-4.71,10.82-10.71,21-14.88,32.11a28.27,28.27,0,0,0-2.21,10.5c.14,7.75-2.86,14.2-7.58,20-2.19,2.7-3.17,6-4.7,9-1,1.11-1.19,2.62-2,3.84a1.51,1.51,0,0,1-.87.39,2.32,2.32,0,0,1-1.6-1.37c-.48-3.12,2-5.24,2.72-7.95a34,34,0,0,1,2.28-4.35c3.87-4.36,5.82-9.69,7.55-15.09.22-.6-.12.18.16-.43.2-.45.21-.49-.08-.13a113.93,113.93,0,0,1-8,15.48c-.51,1.26-1,2.51-1.63,3.74-1.36,3.39-3.06,6.62-4.7,9.87a8.12,8.12,0,0,0-.33,7.61,3.46,3.46,0,0,1,0,1.36c-.9,2-2.84,3.47-3.17,5.8-1,3.83-4.36,6.9-3.62,11.29a5.8,5.8,0,0,1-1.71,2.94c-6.39,4.74-8.47,12.21-12,18.77-.77,1.67-2.14,3.09-2.1,5.09.19.75.27,1.53.51,2.27a8.85,8.85,0,0,0,.27,4.82c1.1,3,.1,5.79-3,6.94-2.71,1-2.94,1.8-1.89,4.64.76,2.07-.16,5.37-1.42,7.46-4.49,7.46-3.62,16-5.29,23.95-.75,3.56.05,8.22-2,10.56-4,4.7-1.62,8.92-1,13.42.48,1.23,1.08,2.46-.69,3.25-6,2.69-9,8.66-13.71,12.69,3-3.27,7.12-5.5,9.43-9.65,1-1.89,3.17-3.5,5.89-2.2,2.15,6.69,1.51,13.55.64,20.25a400.44,400.44,0,0,0-3.6,43.2c-.11,5.22,1.35,9.44,6.06,12.18,6.36,3.69,11.61,9.57,19.86,9.46,2.26,0,2.57,2.29,2.76,4.14a3,3,0,0,1-2.8,3.49,42.41,42.41,0,0,1-6,.28c-8.91.07-17.75-1.36-26.76-.05-7.27,1.06-9.7-2.07-8.18-9.43s-.52-14.2-1.08-21.28c-.41-1.39,1-2.11,1.18-3.3,1.12-1.29,1.67-3,3.1-4.09.57-.52,1.23-.92,1.81-1.44a12.66,12.66,0,0,0-1.82,1.44c-1.44,1.05-2.07,2.73-3.11,4.1C158.86,359,158.52,357.92,157.94,357.35Z" transform="translate(-66.2 -78.19)"/><path class="cls-1" d="M213,177.3a1.75,1.75,0,0,1,0-.82c-1-3.74-.29-6.92,3.16-9.14l.9,1.23c-2.36,13.58-4.9,27.11-11.18,39.58a6.79,6.79,0,0,1-2.88,3.31c-3.53,2.44-6.16,5.78-9,8.89-1.51.32-1.59-.79-1.8-1.78a4.19,4.19,0,0,1,.32-1.44,24.12,24.12,0,0,1,5-5.44c4.84-4.2,7.09-9.78,8.78-15.7,1.56-4.13,2.65-8.41,3.88-12.64A18.17,18.17,0,0,1,213,177.3Z" transform="translate(-66.2 -78.19)"/><path class="cls-2" d="M177.91,299.35c-3.12.84-5.33,2.2-6.7,5.68s-6.26,4.62-8.25,8.21c-.41.75-1.11.4-1.64-.07-.9-.79-1.15-1.7-.14-2.5,5.26-4.22,8.43-10.84,15.29-13.25.38-.14.36-1.42.52-2.16C178.22,296.42,178.05,297.89,177.91,299.35Z" transform="translate(-66.2 -78.19)"/><path class="cls-3" d="M115.08,319.61c-2-2.45-2.67.38-3.9.95-.61.29-1.27.77-1.71.07-.29-.45-.36-1.57-.09-1.76,5.29-3.7,7.9-11.06,15.57-11.52Z" transform="translate(-66.2 -78.19)"/><path class="cls-4" d="M77.87,348.15c1.86,1.4,2.46-.28,3.38-1.34A33.41,33.41,0,0,1,88,340.35a1.36,1.36,0,0,1,0,2c-1.73,4.69-5.36,7.78-8.91,11-1.74,1.6-2.73.88-4.08,0C75.94,351.62,76.9,349.88,77.87,348.15Z" transform="translate(-66.2 -78.19)"/><path class="cls-5" d="M192.9,218.2a2.29,2.29,0,0,0,1.06,2.15c0,1.78-1.65,2.16-2.62,3.12a1.9,1.9,0,0,1-1.39-2C190.8,220.28,190.71,218.22,192.9,218.2Z" transform="translate(-66.2 -78.19)"/><path class="cls-3" d="M160,358.35c1.16,1.61-.62,2.21-1.12,3.24-1-1.26-.94-2.75-.9-4.24l2,1Z" transform="translate(-66.2 -78.19)"/><path class="cls-6" d="M217.92,168.18a3.51,3.51,0,0,1,2-3.84C219.59,165.81,219.47,167.36,217.92,168.18Z" transform="translate(-66.2 -78.19)"/><path class="cls-7" d="M196.41,191.88c-5.28,3.4-7.88,9.16-12.7,12.68-1,.72-1.54,3.18-3.45,1.48s.14-2.71,1.09-3.5c4.06-3.41,7-8,11.62-10.8C194.12,191,194.93,190.62,196.41,191.88Z" transform="translate(-66.2 -78.19)"/><path class="cls-2" d="M120.5,178.81c-.19.53-.21,1-.43,1.12-5.71,3.17-7.7,10.26-13.78,13.06-.56.26-.94,1-1.59.32s-.27-1.45.39-2.08c4.41-4.22,8.79-8.45,13.19-12.68C119.23,177.64,119.93,177.83,120.5,178.81Z" transform="translate(-66.2 -78.19)"/><path class="cls-2" d="M172,171.35c-3.66,4.08-6.51,9-11.57,11.63-.67.35-.22,2.45-1.78,1.26-.87-.67-.68-1.77-.14-2.71a1.07,1.07,0,0,1,.3-.39c4.64-2.94,6.94-8.53,12.18-10.79C171.9,170.07,172.23,170.41,172,171.35Z" transform="translate(-66.2 -78.19)"/><path class="cls-4" d="M137.2,162.65a1.88,1.88,0,0,1-.62-3.19c2.06-2.19,4.4-4.14,6.6-6.2.52-.48,1-.2,1.26.16s1,1.46.9,1.57C142.69,157.58,140,160.09,137.2,162.65Z" transform="translate(-66.2 -78.19)"/><path class="cls-2" d="M125,263.35c-1.17,2.87-4.64,3.33-6.14,5.87-.51.87-1.06.32-1.54-.09a1.46,1.46,0,0,1-.09-2.48c1.91-1.78,3.84-3.53,5.77-5.3C124.59,261.06,125.25,261.73,125,263.35Z" transform="translate(-66.2 -78.19)"/><path class="cls-7" d="M125,263.35a3.46,3.46,0,0,0-2-2,15,15,0,0,1,7-6c1-.3,1.25.08,1,1C127.43,257.38,128.2,262.09,125,263.35Z" transform="translate(-66.2 -78.19)"/><path class="cls-2" d="M157,229.35c-.25-3.62,2.89-4.82,4.94-6.74a1.54,1.54,0,0,1,2.21.32c.22.36-.23,1.65-.52,1.7-3,.53-3.88,3.94-6.63,4.72Z" transform="translate(-66.2 -78.19)"/><path class="cls-2" d="M139,201.16c2.36-.37,3.38.35,2.74,1a53.09,53.09,0,0,1-5.72,4.46c-.29-.38-.89-.95-.8-1.11C136.47,203.45,137.88,201.56,139,201.16Z" transform="translate(-66.2 -78.19)"/><path class="cls-4" d="M182.88,115.59c-.07,4.29-4.84,3.09-5.37,6-.38-.22-1-.41-1.08-.66-.05-.58,0-1.48.39-1.73C178.58,118,180.45,117,182.88,115.59Z" transform="translate(-66.2 -78.19)"/><path class="cls-2" d="M134.41,210c-2.25,1.68-3.62,2.73-5.06,3.69,0,0-1.14-1-1-1.35.51-1.88,2.17-2.74,3.79-3.45C132.47,208.76,133.22,209.44,134.41,210Z" transform="translate(-66.2 -78.19)"/><path class="cls-3" d="M155,230.35c1.51,3.28-1.88,3.55-3.17,5.09-.43.52-.91.18-1.22-.23a1.21,1.21,0,0,1,.05-1.78c1.44-1,2.35-2.83,4.34-3.08Z" transform="translate(-66.2 -78.19)"/><path class="cls-3" d="M163,354.35c.33-1.85.84-3.57,3.27-3.24.39.06,1.07.71,1,.88-.69,2.05-2.36,2.45-4.28,2.36Z" transform="translate(-66.2 -78.19)"/><path class="cls-8" d="M178.41,383.86a3.1,3.1,0,0,1-2.67,2.89,1.61,1.61,0,0,1-.61-1.1C175.5,384,176.43,383.05,178.41,383.86Z" transform="translate(-66.2 -78.19)"/><path class="cls-8" d="M175.37,256a7.74,7.74,0,0,1-2.16,1.66c-.61.2-1.06-.7-1-1.41a1.7,1.7,0,0,1,1.64-1.56C174.62,254.6,175.13,255,175.37,256Z" transform="translate(-66.2 -78.19)"/><path class="cls-3" d="M160,358.35c-.1-2.16.41-3.86,3-4h0c-.35,1.82-.62,3.7-3,4Z" transform="translate(-66.2 -78.19)"/><path class="cls-8" d="M181.63,249.06c-.36.42-.76,1.33-1.39,1.51s-1.16-.69-1-1.36a2.55,2.55,0,0,1,1.18-1.43C181.2,247.46,181.66,248,181.63,249.06Z" transform="translate(-66.2 -78.19)"/><path class="cls-9" d="M88,342.35v-2c1.19,0,2.32-2.73,3.13-.88C92,341.5,89.06,341.36,88,342.35Z" transform="translate(-66.2 -78.19)"/><path class="cls-10" d="M150.85,146.91c.5.3,1.48.32,1.23,1.08-.13.42-1,.73-1.63.8-.28,0-.92-.57-.93-.9C149.52,147.16,150.07,146.79,150.85,146.91Z" transform="translate(-66.2 -78.19)"/><path class="cls-9" d="M157,229.35l.14,1.67-2.14-.67h0c-.06-1.78.91-1.51,2-1Z" transform="translate(-66.2 -78.19)"/><path class="cls-9" d="M180.13,252.11c-1.07.65-1.43.95-1.5.89a3.86,3.86,0,0,1-1.3-1.27c-.23-.52.19-.85.79-.59S179.31,251.72,180.13,252.11Z" transform="translate(-66.2 -78.19)"/><path class="cls-11" d="M131,256.35l-1-1c.56-.84,1.08-2.39,2.26-.94C133,255.36,131.75,255.91,131,256.35Z" transform="translate(-66.2 -78.19)"/><path class="cls-9" d="M172,171.35l-1-1c.56-.84,1.07-2.39,2.27-.94C174,170.36,172.75,170.92,172,171.35Z" transform="translate(-66.2 -78.19)"/></svg>