<svg id="Capa_18" data-name="Capa 18" xmlns="http://www.w3.org/2000/svg" viewBox="0 0 901.3 650.77"><defs><style>.cls-1{fill:#8c6239;}</style></defs><title>marco</title><path class="cls-1" d="M1075.65,680.09c-13.66.08-27.31.23-41,.23q-89.9-.06-179.78-.19c1.55-4.34,6.46-5.73,8.48-9.68.41-4,4.62-1.76,6.17-3.86.65-.54,1.28-1.09,1.89-1.66a29.76,29.76,0,0,0,4.27-5c1.91-2.83,2.5-6.38,4.9-8.94,2-2.52,6.23.1,7.69-3.51,1.17-2.29,2.75-4.11,5.38-4.75.57-.32,1.29-.92,1.78-.75,8.24,2.81,14-.16,18-7.55a13,13,0,0,1,7.24-.37,7.12,7.12,0,0,1,4.13,3.05c4.15,7.85,8.68,8.18,13.84,1,4.5-6.28,8.34-6,12,.73a8.3,8.3,0,0,0,14.29.49c5.1-8.22,11.15-8.12,16.11.47,1.46,2.54,3.5,2.88,6,3.21,6.59.88,6.8,1.47,3,7.12-.74,1.1-1.68,2-1.16,3.52,1.06,1.44,1.89,3.39,4.21,1.72,1.14-1.17,3-1.38,3.8-2.94,1.91-3.85,3-8.31,7.67-10.07,3.21.15,6.36-1,9.55-.67,4.08.35,5.88-1.64,6.29-5.4,5.15-7,11.65-7.08,17.08-.27,4.36,5.47,5.87,5.45,10.24-.17,5.28-6.79,12.33-6.95,17.31.07,2.52,3.56,5.22,5,9.36,3.75,2.38-.94,3.07-3.66,5.24-4.85a8.49,8.49,0,0,1,12.09,3.77c1.54,3.45,3.77,4.39,7.16,4.31,3-.08,4.54-1.35,5.84-4.18,3.2-7,9.13-7.5,13.43-1.07,2.24,3.34,4.26,5.91,8.78,5.26,2.15-.31,3.93-.91,4.61-3,1.34-4.12,4.83-6,8-8.28,1-1.94.57-4.14,1.21-6.14a14.79,14.79,0,0,1,2.58-4.66,41.76,41.76,0,0,1,2.94-3c1-.92,1.92-1.83,2.84-2.79.53-.57,1.08-1.12,1.62-1.68a20.14,20.14,0,0,0,1.89-2.44c.87-1.1.58-2.48.88-3.72a15.25,15.25,0,0,1,4-4.39c2.16-1.52,5.83-.77,6.58-4.4.11-1.75,2.07-2.63,2.15-4.39-2.1-1.54-3.08,1.07-4.69,1.11-2,.64-3.08,2.24-4.11,3.9-1.64,2.18-4.44,2.83-6.24,4.78-.6.58-1.22,1.13-1.83,1.69-1,.89-1.93,1.81-2.85,2.76s-1.88,1.87-2.8,2.82-1.94,2-2.89,3.08a18,18,0,0,1-2,1.95c-2.13,1.65-4.35,2.47-6.34,0-1.72-2.17-1.32-4.54,0-6.78a14.07,14.07,0,0,1,4.33-4c4.75-3.36,4.62-9.37-.19-12.69-6.66-4.61-7.4-10.21-1-14,5-3,4.92-6.62,4-11.1-.39-.5-.75-1-1.15-1.47a28.32,28.32,0,0,1-3.83-2.55c-5-4.48-4.57-9.57,1.58-12.45,3.48-1.63,5.16-3.71,5.16-7.43s-1.4-5.86-4.93-7.56c-7.71-3.72-6.84-8.77,2.22-14.78l1.45-1.15c2.2-4.71,2.34-8.24-3.41-11.05-7.65-3.74-7.19-10.52.48-14.88,5-2.84,5.4-4.64,2.32-10.26a20.54,20.54,0,0,1-2.34-1.54,31.84,31.84,0,0,1-2.43-2.21c-5.2-5.26-4.64-8.89,2-12.95,5.89-3.62,6.39-7.66,1.4-11.21-3-.82-6-1.68-6.92-5.32-.73-5.49,2-9,6.32-12,5.51-3.72,5.33-8.08-.22-11.45-8-4.83-8-11.28-.19-16.08,6-3.63,6-8.81.08-12.33-7.64-4.57-7.83-11.48-.13-15.6,2.84-1.53,4.65-2.93,4.28-6.38-.35-3.15-1.49-5.39-4.88-6.08a7.05,7.05,0,0,1-3.82-2.43,6.1,6.1,0,0,1-1-1.69c-1.22-4.62,1.37-7.34,4.76-9.73,7.19-5.08,7-9.48-.51-13.78a18.76,18.76,0,0,1-4.7-3.47c-2.64-7.52-.73-11,7.84-14.22,4.2-2.72,2.91-5.66.24-8.53-.72-.78-1.92-1-2.83-1.65-6.89-4.61-6.79-10.63.23-14.89,5.59-3.39,5.94-4.61,3.12-10.92a4.48,4.48,0,0,1-2.26-2.61c.58-2.38,2.85-3.41,4.14-5.22l2.06-2.53a15.44,15.44,0,0,0,1.35-2c.9-2.69,1.75-5.42,3.85-7.49,1.59-3.47,6.31-.7,8-4,.65-1.59,3.75-2.62,1.39-4.88-2.15-2-3.49.29-5,1.36-2,1.54-3.21,3.72-5,5.45-6.4,4.49-6.67,4.54-8.14-2.88-.88-4.44-5.09-3.29-7.3-5.34-5.23-7.07-3.95-12.31,3.68-15.28,2.34,0,4.54-.28,4.7-3.27.13-2.56.82-5.35-2-7.13-.93-.59-2-1-2.91-1.53-6.6-3.86-6.71-9.64-.28-13.76,7.51-4.81,7.47-10-.12-14.31-5.33-3-5.67-9.7-.69-13.45,1.57-1.18,3.81-1.21,5-2.95,1.54-3,2-6-.39-8.83-9.64-4.5-11.06-8.72-5.2-15.32,3.08-1.64,6.43-1.94,9.82-1.94,3.42.33,2.73-4.1,5.36-4.68a5.88,5.88,0,0,0,2.64-1.87c1.19-1.81,3.18-2.29,5-3a10.48,10.48,0,0,0,2.19-2.27,20.3,20.3,0,0,1,3.76-2.95,32.36,32.36,0,0,0,2.54-2.27c.53-.56,1.08-1.12,1.57-1.73.59-.84,1.06-1.75,1.61-2.62a18.59,18.59,0,0,0,1.56-2.79c.76-1.86,1.69-3.57,3.59-4.52a2.1,2.1,0,0,1,1.63.07c.07,2.42.21,4.84.21,7.26q0,158.67,0,317.35c0,5.06-.13,10.13-.2,15.19-2,1-5.86-2.22-6,2.78-1.52,2.16-5.16,1.32-6.11,4.3-4.68,2.18-7.75,6.19-11.12,9.84.18,1-2,3.74,1.48,2.08.74-.35,1.12-1.71,2.09-2.23,4.55-1.68,6.9-5.05,7.57-9.74,2.38-1.56,5.87,1.21,7.81-2,1.3-.88,2.62-1.66,4.26-.89q.09,89.43.14,178.84a14.06,14.06,0,0,1-1.32,5.69c-5.34,11.57-14.47,18.56-27.15,18.88-20.88.53-41.78,0-62.68,0-2-1.37,1.77-4.06-.89-4.89-2.17-.69-4,.75-5.41,2.59C1077.92,678.85,1076.6,679.23,1075.65,680.09Z" transform="translate(-275.24 -29.6)"/><path class="cls-1" d="M393.27,680.05c-29.9.08-59.8.44-89.69.1-15-.17-29.05-14.93-28.31-29.73,1.22-24.34.48-48.78.57-73.19,1.26-1.66,3.34-1.61,5-2.4a7,7,0,0,0,2.91-2.31,16.31,16.31,0,0,1,1.54-1.68c.71-.75,1.35-1.56,2.1-2.27,1-.83,2.09-1.54,3.05-2.41a6.43,6.43,0,0,0,2.09-3.06c.17-.78.35-1.55.58-2.31a43.93,43.93,0,0,1,2.37-4.44,14.25,14.25,0,0,1,.91-1.5c5.87-1.15,10.24-7.46,17.17-5,6.36,5.33,6.1,11.35-.68,16s-6.71,6.2.3,10.89c6.71,4.48,6.65,12-.12,16.77-7,4.86-7,6.24,0,10.9,6.79,4.54,6.87,12.07.18,16.78-7.08,5-7.14,6.28-.27,10.86a14,14,0,0,1,5.55,7.12c3.12,3.7,6,3.24,9-.26,3.44-3.93,6.91-8.19,13.22-6,.7.53-.16-.12.62.23,3.38,1.52,3.89,6.68,8.35,6.7s4.85-4.54,7.44-6.65c6-4.86,13-1.84,15.32,6.7a4.71,4.71,0,0,0,1.11,2.27,9,9,0,0,0,8.2-.22,5.46,5.46,0,0,0,1.85-2.65c1-3.32,2.66-6.19,6.56-6.4s6.48,2.16,8.24,5.47c.72,1.34,1.26,2.8,2.61,3.7,3.19,1,6.37,2,9.17-.88,1.69-3.87,3.26-8,8.35-8.24,4.62-.23,6.91,2.92,9,6.52,3,5.12,8.37,4.62,11.53-.88,3.48-6.06,7.55-7.48,12.11-4.24,1.91,1.34,2.55,3.45,3.59,5.37a6.55,6.55,0,0,0,10.86.7c7.49-10.36,11.9-10.08,18.11,1.11,2.86,2,5.8,1.94,8.8.37,1.65-1.85,1.93-4.48,3.66-6.28,6-3.7,9.11-3.47,12.39,2.48,2.57,4.68,6.06,5,10.41,4.66,1.69-.15,3-.66,3.3-2.54.73-3.9,2.76-6.33,7-6.42,4.52-.09,6.62,2.8,8.26,6.37.18.4.39.78.6,1.16,1.46,1.8,3,3.58,1.37,6.08A12.21,12.21,0,0,1,536.9,650a73.32,73.32,0,0,0-6.36,6.23c-2.92,5.1-8,8.24-11.43,12.88-1,2.35-1.16,4.09,2.31,3.09,3.39-5,9.09-7.09,13.53-10.76.48-.32,1-.6,1.48-.87a9.18,9.18,0,0,0,3.64-3.27A31.73,31.73,0,0,1,542,654.6a6.85,6.85,0,0,0,1.76-3.64c.46-3.85,2.22-6.78,5.9-8.34,1.5-.42,3.31,0,4.39-1.62a8.53,8.53,0,0,1,7.41-5.44,5.11,5.11,0,0,1,2.69.57,9.58,9.58,0,0,1,2.77,3.63c3,3.07,6.09,2.42,9.28.42a34.39,34.39,0,0,1,2.18-3.31c4.85-5.56,11-5.09,14.22,1.54,1.62,3.32,3.63,4.53,7.11,4.48,3.27,0,5-1.33,6.43-4.4,3.07-6.65,8.81-7.12,13.39-1.51.56.68.93,1.5,1.43,2.22,3.73,5.4,9.94,5.18,12.72-.62,1.57-3.29,3.68-5.52,7.44-5.39s6.45,2.13,7.22,5.69c.94,4.38,6,4.29,7.61,7.7,1.07.89,2.22,1.68,3.14-.07a3.63,3.63,0,0,1,3.56-2.32c2.5-1.34,4.22-3.93,7.2-4.48a28.57,28.57,0,0,0,3.39-2.83c1.74-1,3,.07,4.22,1,4.16,3.41,7.2,2.57,10.12-1.94,4.43-6.82,12.59-6.87,17,.06,2.91,4.6,6.17,4.85,10.45,2.83,1.51-.62,2.22-2.11,3.37-3.11,4.68-4,9.33-3.5,11.82,2,1.58,3.5,3.39,5.16,7.3,5.22s5.82-1.61,7.52-5c3.23-6.4,8.48-6.71,12.9-1.16.55.69.94,1.49,1.44,2.21,3.79,5.56,8.84,5.45,12.12-.26,4.32-7.52,10.61-7.67,15.18-.37,3.75,6,8.63,6.22,12.56.52,5.51-8,10.57-7.82,15.09.48,2.36,4.33,9,5,12.08,1.14.68-.85,1.07-1.92,1.72-2.82,4.57-6.4,10.35-6.19,13.55.86,1.44,3.17,3.3,4.32,6.51,4.31,3,0,5.23-.38,7-3.55,5-9,9.93-8.66,15.75.57l.48.77c.38.47.74.94,1.13,1.39,2.35,1.85,6.25-.05,8,3.3a3.71,3.71,0,0,1-1,3.35c-2.19,1.8-4.62,3.33-6.38,5.63-.68.88-1.27,1.83-1.89,2.75-1.43,1.73-2.75,3.54-4.2,5.26-2.26,1.78-4.06,4-6.32,5.83a162.43,162.43,0,0,0-11.23,11.94l-108.31,0c-.24-3.33,1.13-5.37,4.6-5.7,1.94,1.22,3,.17,3.72-1.56.36-.77.79-1.5,1.18-2.25.51-1,2-2.1.33-3.16-1.31-.82-2.29.57-3.35,1.13-4.89,3.8-8.65,9-14.52,11.57a5.13,5.13,0,0,1-.65.1H405.88a3.65,3.65,0,0,1-.65-.1,1,1,0,0,1-.44-.82c0-.33,0-.49.12-.49A5.06,5.06,0,0,0,406,676c.91-6.11,4.59-9.76,10.27-11.65,1.67-.52,2.28-2.54,4.13-2.94-2.23-3.25-4.36-2.26-6.48.08-3.78,4.24-8.33,7.73-11.93,12.16-1.63,1.56-3.53,2.82-5.11,4.44A13.86,13.86,0,0,1,393.27,680.05Z" transform="translate(-275.24 -29.6)"/><path class="cls-1" d="M275.79,229.29l-.21-144.65c0-8.15.76-16.38-.16-24.42-2-17.61,16.06-30.75,30.2-30.62,23.78.22,47.56.06,71.33.06q103.71,0,207.42,0c1.54,0,3.07.15,4.61.23a2,2,0,0,1,.49,2.44c-2.64,2.65-5.65,4.94-7.87,8-1.64,1.47-3.39,2.82-5.07,4.24a19.4,19.4,0,0,0-2.47,2c-.53.59-1.09,1.15-1.67,1.7A47.28,47.28,0,0,0,569,51.84c-1.38,1.83-3,3.46-4.42,5.24-2.33,2.4-4.5,4.87-4.74,8.45-2,1.71-4.35,1.56-6.73,1-2.23-.7-3.5-2.44-4.89-4.19-3.21-4-5.81-4-8.93-.12-6.8,8.41-11.65,8.37-18.67-.17-2.91-3.53-5.58-3.55-8.65-.08-7.74,8.73-11.92,8.71-19.2-.09-3-3.62-6-3.61-8.94.71-2.76,4.08-6.09,6.25-11,5.52-5.13-.76-7.35-4.3-8.33-8.95a14.77,14.77,0,0,1-.28-1.85A10.31,10.31,0,0,0,463.19,54c-1.42-1.5-2.24-4.26-5.2-2.37-5.52,3.21-9.11,8.81-14.77,11.82-2.33.32-3.36-1.32-4.48-2.9-2.62-3.67-5.66-3.92-9-1-4.91,10.89-12.29,11.85-19.73,2.61-3-3.78-5.92-3.73-9,.15-6.33,7.94-12.27,8.07-18.8.41-3.77-4.43-5.66-4.41-9.25.09-5.93,7.43-12.27,7.41-18.46,0-3.73-4.49-5.67-4.5-9.26-.06-6.14,7.63-11.61,7.57-18.18-.19-3.53-4.17-6.18-4.21-9.48,0A20.59,20.59,0,0,1,313,67.24c-6.67,4.56-6.73,6.12-.61,11.83,1.33,1.9-.2,2.91-1.24,4.07-3.49,2.79-5.89,6.7-9.53,9.34a23.61,23.61,0,0,0-4.12,4.58c-2.11,4.3-6.25,6-10.17,8-3.71.59-7.06,2-7.44,6.16-.32,3.58,2.77,5.16,5.38,6.84,2.4,1.54,4.13-.21,6.07-1,6.66-2.91,9.1-1.4,8.56,5.61-.42,5.55.74,10.16,4.78,14.39,4.69,4.92,4.33,6.42-.93,11-2.91,2.54-4.34,5.52-3.44,9.32s3.22,5.47,7.18,5.25c3.5-.2,4.3,2.57,4.74,5.23.5,3.06-1,4.94-3.93,6-9.13,3.2-10.79,6.41-6.52,15.3,3.82,8,2.24,16.09,2.27,24.22a3.37,3.37,0,0,1-4.1,1.2c-3.27-1.76-5.35,0-7.52,1.92a23.81,23.81,0,0,0-3.14,3,113.11,113.11,0,0,0-10.09,9C278.16,229.16,277.14,229.88,275.79,229.29Z" transform="translate(-275.24 -29.6)"/><path class="cls-1" d="M303.31,213.56c-1.95-8.92.6-18.24-4.43-27.12-4.13-7.31-.15-12.73,8.14-13.95,2.86-.42,4.79-1.49,3.77-4.66-.69-2.14-.42-5.39-5-3.13-2.93,1.46-5.4-2-6.74-4.86-2.06-4.49-1.81-9.67,2.19-12,8.36-4.76,4.4-8.16-.09-12.29-4.09-3.75-2.93-8.84-3.09-13.59-.06-1.58,2.13-3.54-.22-4.67a5,5,0,0,0-6.05,1.28c-2.83,3-5.43,2.5-8.7.32s-6.29-4.81-5.12-8.92c1.23-4.32,4.54-6.93,9.52-6.3,1.1,2.89-1.38,4.22-2.61,6.1-.63,1.3-.64,2.66.79,3.2.87.33.95-1.08,1.4-1.71a25.45,25.45,0,0,0,10.59-10.74c2.1,0,4.2-.55,6.31-.09,2.28,3.17,4.51,6.41,9.12,6.17,5,2.87,4.55,7.28,3.36,11.9-1,2.69-3.26,3.92-5.54,5.36-4.18,2.65-4,5.9.2,8.6,9.48,6.09,9.46,12.34-.07,19.06-4.12,2.91-4.14,5.8,0,8.71,9.82,7,9.81,11.5,0,18.87-4.05,3-3.93,5.71.38,8.7q13.75,9.57-.07,18.73c-4.53,3-4.51,5.81.08,9,9,6.24,9,12.88.23,19-4.63,3.24-4.58,5.4.22,8.9,8.58,6.27,8.49,12.17-.29,18.6-4.67,3.42-4.61,5.65.26,8.73,8.24,5.22,8.47,12.9.53,18.33-5.76,4-5.72,6,.23,9.83,7.24,4.67,7.38,13,.28,17.83-6.45,4.42-6.46,5.61-.05,10,6.58,4.56,7,11.25,1,16.55-7.14,6.34-7.14,6.34,0,11.9,5.81,4.52,5.61,12.18-.41,16.05-7.32,4.71-7.36,6.63-.25,11.23,6.26,4.06,6.7,12.18.9,16.62-8.2,6.28-8.2,6.28.33,12.52,3.13,7.73,2.09,10-7.2,16-2.26,1.88-2.28,5.69-5.67,6.6-3.31.61-4.25,4-6.63,5.66a18.07,18.07,0,0,0-2.66,2.1c-1.51,1.95-.19,3.33,1.2,4.25,1.11.74,1-.79,1.41-1.39a4.29,4.29,0,0,1,2.48-2c1.83-.42,2.21-2.21,3.2-3.44,2.08-1.74,4.64-2.09,7.16-2.56,5.17.09,9.08,2.17,10.21,7.5,1,5-1.63,8.23-5.72,10.83-5.73,3.64-5.57,6.18.28,9.9,7.64,4.86,7.77,12.41.31,17.46-6.46,4.38-6.43,6.11.2,10.61,7.13,4.86,7.08,12.37-.12,17.12-6.54,4.31-6.54,6.11,0,10.58,6.86,4.71,7.2,10.59.93,16.07-2,.87-4.28,1-6.2,2.19a80.44,80.44,0,0,1-13.36,14.59,28.69,28.69,0,0,0-4.26,3.91c-.66.82-1.24,1.7-1.93,2.49a29.26,29.26,0,0,1-2.46,1.85c-.57.51-1.14,1-1.69,1.56-1.11,1.09-2.2,2.19-3.3,3.29a18.08,18.08,0,0,1-1.77,1.62c-.89.61-1.78,1.26-2.94.68-.08-26.22-.22-52.45-.21-78.67q0-67.77.2-135.54c.74-1.34,1.23-2.67,0-4q0-59.44.05-118.9c2.39-1,4.65,3,7.06.15,2.75-3.5,3.23-8.4,7-11.23a3.67,3.67,0,0,1,2.6-.31c1.62.74,2.7.14,3.37-1.41C296.76,215.31,300.48,215,303.31,213.56Z" transform="translate(-275.24 -29.6)"/><path class="cls-1" d="M599.62,29.86l103,.05a2.7,2.7,0,0,1-.73,2.51c-.26.34-.57.65-.84,1-1.2,1.45-3.61,3.2-1.7,4.87,2.44,2.14,2.08-2.57,4.07-2.51,3.34-1.91,5.73-5.41,9.92-5.88,16.08-.08,32.16-.23,48.24-.22q83.61,0,167.23.19c1.72,2,.75,3.48-.81,4.9-3.56,3.56-8,6.16-11.32,10-.59.67-1.19,1.33-1.76,2-4,5.37-9.73,8.68-14.63,13C895.9,70.21,888.11,71.37,881,62.62c-3.68-4.51-6-4.41-9.66.44-5.27,7-11.74,7.08-17.39.21-4.34-5.28-6.32-5.25-10.6.17-5.1,6.47-11,6.56-16.52.24-5.06-5.85-6.37-5.79-11.39.49-4.36,5.47-11.22,5.52-15.85.13-5.8-6.76-6.46-6.77-12.3-.26-5.23,5.82-11.74,5.45-16.61-1-3.77-5-6.4-5-10.26-.22-5.85,7.25-11.33,7.35-17.29.31-4.35-5.15-6.27-5.1-10.79.25-5.65,6.68-11.5,6.58-16.89-.29-4.11-5.22-6.42-5.17-10.6.24-5.12,6.63-11.83,6.66-17,.09-4.34-5.55-6.13-5.57-10.39-.12-5.24,6.71-12.26,6.67-17.55-.12-4.14-5.31-6.2-5.25-10.41.27-4.87,6.39-12.15,6.41-17.15,0C628,58,626.65,58,622,63.55c-5.41,6.37-12.31,6.33-17.15-.08-4.09-5.43-6.19-5.56-10.45-.11-3,3.89-6.83,5.62-11.55,4.53s-7-4.26-7.3-9a10.78,10.78,0,0,1,.14-2,12.92,12.92,0,0,1,1.26-3.56,13.82,13.82,0,0,1,2-2.92c.92-1,1.93-2,2.87-3a24.2,24.2,0,0,0,3-3.88c1.16-2.93,2.28-5.89,4.72-8.06C592.11,32.28,597.31,33.68,599.62,29.86Z" transform="translate(-275.24 -29.6)"/><path class="cls-1" d="M1054.55,29.9c31-.07,62-.3,93-.14,15.1.08,29.83,14.72,28.94,29.83-1.26,21.26-.45,42.64-.52,64-1,2.36-2,4.76-4.33,6.14-1.29,1.06-2.47,2.22-3.65,3.39-.57.59-1.16,1.16-1.76,1.72-1,.94-1.92,1.89-2.81,2.9s-1.62,2.15-2.5,3.17a30.34,30.34,0,0,1-2.54,2,17.38,17.38,0,0,0-1.66,1.77,15.17,15.17,0,0,1-3.63,3.52,44.33,44.33,0,0,0-4.12,3c-1.53,1.24-2.37,3.42-4.75,3.47-2-.38-2.43-2.42-3.79-3.48-1.77-1.19-4.06-1.5-5.46-3.28-5.1-6.74-4.68-9.17,2.35-13.58,5.74-3.61,5.67-9.14-.15-12.55-8-4.7-8-10.73.29-15.11,2.75-1.45,3.89-3,3.94-6,.06-3.26-1.1-4.94-4.18-6.47-7.87-3.89-7.87-9.91-.39-14.85,6.53-4.31,6.37-10.44-.39-13.89-1.19-.6-2.7-1-3.23-2.18-3.38-7.43-9.34-5.54-15.13-4.36-4.65.5-9,.27-13.36-2.17-3.53-2-8.54-1.57-12.1-1.15-9.73,1.16-19.74-1.72-29.27,2.47-7.94,3.49-15.4-2-23.2-2.32a1.59,1.59,0,0,1-1.41-1.89,3.24,3.24,0,0,1,2.61-2.68c4.07-.75,5-2.87,4.63-7-.35-3.73,2.64-6.85,4.2-10.23A7.08,7.08,0,0,1,1054.55,29.9Z" transform="translate(-275.24 -29.6)"/><path class="cls-1" d="M938.15,29.88l104.44,0c1.65,2.27-.52,3.13-1.6,4.4a40.48,40.48,0,0,0-5.53,5.5c-3,2.9-5.83,5.82-1.18,9.68,1.86,2.16,2.16,4.76,2.1,7.45-.09,3.56-1.22,6.58-4.81,7.91a6.16,6.16,0,0,1-8-3c-3.14-6.45-9.48-6.58-14.2-5.69-7.55,1.44-14.82-.41-22.19.32-4,.4-7.22,1.32-9,5.33-1.69,3.75-3.85,3.62-6.35.49-6-7.51-7.93-8.37-17-4.91-6.64,2.53-12.74,5-19.14-.36-1.23-1-3.44-.39-5.17-.7-3.59-.62-5.28-2.95-5.66-6.35-.33-3,.92-5.11,3.93-6,4.6-1.37,6.52-5,7.45-9.25C936.65,33,936.8,31.2,938.15,29.88Z" transform="translate(-275.24 -29.6)"/><path class="cls-1" d="M938.15,29.88c-.23,7.19-.24,14.48-9.89,15.84-2,.28-2.06,2.07-1.93,3.63.17,2.25.73,5.08,3.21,5.09a21.93,21.93,0,0,1,12.58,4.09c1.32.87,4.07.47,5.76-.27,4.45-1.94,9.52-2.32,13.64-4,6.5-2.72,8.16.57,10.45,4.71.84,1.52,1.7,3,3,5.42,1.93-5.24,4.21-9.89,9.79-9.38,4.61.42,9.41-3.32,13.9.71.69.61,2.86.49,3.73-.14,5.46-4,11.13.12,16.65-.63,1.64-.23,2.59,1.08,3.56,2.45,2.33,3.28,3.65,9,9.66,5.51,3.62-2.12,3.32-8.78-.23-13.42,1.85-1.82,2-5,4.73-6.1a30.31,30.31,0,0,0,6.12-6.57c1.07-4,5-2.12,7.36-3.66a1.76,1.76,0,0,1,1.61.53c-.93,5.11-7.17,9.07-3,15.44.86,1.31-1.51,2.8-3.47,3s-4-.56-5.54,1.28c7.54,3.31,18.23,3.06,25.9,2.18,5.89-.68,12.22-6.3,18.31-.14.34.35,1.82.1,2.34-.35,3-2.63,6.43-.58,9.27-.94,8-1,14.55,5.09,22.31,3.3,2.06,3,.94,5.61-1.77,7.17a8.3,8.3,0,0,1-9.77-.76c-1.42-1.13-1.87-2.9-2.74-4.38-6.59-2.91-9-2.37-12.44,2.8-4,5.94-9.37,6.18-13.77.57-.91-1.18-1.33-2.81-3.07-3.16-4.13-1.05-7,.21-9.49,3.85-4.45,6.36-11.6,6.35-16.62.48-5.36-6.26-6.36-6.27-11.25-.11-4.77,6-11.75,5.89-16.62-.29-4.48-5.69-6.05-5.67-10.76.18-5,6.2-12.2,6-17.16-.43-4.13-5.37-6.5-5.41-10.54-.15-5.48,7.12-12.11,7-17.76-.26-3.83-4.94-6.16-4.87-10.07.32-4.91,6.52-11.84,6.72-17.09.5-5.05-6-5.89-6-10.7,0a8.37,8.37,0,0,1-3,2.49c-3.92,1.08-7.81,1.42-11-1.74-3.5-3.5-2.6-8.52,1.85-10.9a13.41,13.41,0,0,0,3.63-2.68c1.34-1.29.58-3.2,1.35-4.66,1.81-5.16,7.89-4.89,10.83-8.6,4.31-1.84-1.22-5.61,1.52-7.75Z" transform="translate(-275.24 -29.6)"/><path class="cls-1" d="M849.49,680.13c1-6.39,6.62-9,10.59-13,4.59-2,2.46,2.95,4.13,4,1.14.18,2.59,1.19,1.06,1.74-4.24,1.51-6,6.22-10.37,7.34Z" transform="translate(-275.24 -29.6)"/><path class="cls-1" d="M733.14,680.12l13.26-12.94c1.52,1.35,2.6,2.9,2.33,5.08a3.36,3.36,0,0,1-2.35,2.85c-3.11.22-3.44,3.35-5.2,5h-2.72c-.43-1.24-.87-.42-1.31,0Z" transform="translate(-275.24 -29.6)"/><path class="cls-1" d="M1075.65,680.09c.53-4,4.2-5.06,6.67-7.2,2.72-2.33,2.55,2,4.61,2.28,2.54.36.54,1.75-.36,2.31a3,3,0,0,0-1.57,2.6Z" transform="translate(-275.24 -29.6)"/><path class="cls-1" d="M701.44,31l1.22-1.11,10.72,0c-1.49,3.39-7,2.92-7.2,7.58L704,36.39C701.94,35.19,699.81,34,701.44,31Z" transform="translate(-275.24 -29.6)"/><path class="cls-1" d="M599.62,29.86c-.32,6.12-6.23,4.22-9.26,6.44-1.42-1-1.54-2.49-1.4-4.06,0-.78,0-1.57,0-2.35Z" transform="translate(-275.24 -29.6)"/><path class="cls-1" d="M1176,476.72l-3.72,1.3c-2.22.41-3.07-.54-2.72-2.71-1.16-1.83-1.7-3.79.51-5.07,2.77-1.6,3.65,2.3,5.92,2.38Z" transform="translate(-275.24 -29.6)"/><path class="cls-1" d="M1050.66,33.73c-1,1.61-2,2.87-4.21,1.91-1.88-.82-2.25.41-2.33,1.9-3.16.55-3.17-2.24-4.19-3.95.8-1.29,2.79-1.72,2.66-3.68l6.64-.06C1049.49,31.22,1051.23,32.05,1050.66,33.73Z" transform="translate(-275.24 -29.6)"/><path class="cls-1" d="M931.59,29.87c-.68,3.44,2,3.61,4.24,4.24-.15,2.84-4.74,1.57-4.25,4.81-4.54,1-6.19-.84-5.32-5.26,2.52-.13,2.71-1.86,2.59-3.8Z" transform="translate(-275.24 -29.6)"/><path class="cls-1" d="M405.18,679c0,.36,0,.73.05,1.1h-6.71c-1.09-.57-2.26-1-2.58-2.42,1.12-2.19,2.57-3.92,5.29-4l.54.64C402.41,676.28,404,677.48,405.18,679Z" transform="translate(-275.24 -29.6)"/><path class="cls-1" d="M282.11,575.82c-1.88,1.43-4,1.57-6.27,1.41l0-6.7C280.32,569.4,281.57,572.19,282.11,575.82Z" transform="translate(-275.24 -29.6)"/><path class="cls-1" d="M283.54,233.33c-3.57,5.86-5.19-.51-7.71-1.24l0-2.8,2.44-1.25C280.9,228.89,281.92,231.42,283.54,233.33Z" transform="translate(-275.24 -29.6)"/><path class="cls-1" d="M282.11,575.82c-2.38-1.43-2.88-5.13-6.32-5.29v-1.32l2.4-1.3c3,.79,4.72,3.2,6.65,5.33A4.38,4.38,0,0,1,282.11,575.82Z" transform="translate(-275.24 -29.6)"/><path class="cls-1" d="M1170.91,128.76l5.08-5.2v9.26h-1.07l-.69-.46a24.65,24.65,0,0,0-2.9-2.88Q1171.11,129.12,1170.91,128.76Z" transform="translate(-275.24 -29.6)"/><path class="cls-1" d="M1050.66,33.73c-1.87-.78-3.4-1.68-1.43-3.88l5.32,0c-.89,1.25-1.77,2.5-2.66,3.74Q1051.28,33.66,1050.66,33.73Z" transform="translate(-275.24 -29.6)"/><path class="cls-1" d="M395.94,677.69l2.58,2.42-5.25-.06Z" transform="translate(-275.24 -29.6)"/><path class="cls-1" d="M275.78,351c4,1.33,1.74,2.67,0,4Z" transform="translate(-275.24 -29.6)"/><path class="cls-1" d="M737.15,680.1c.14-1.58.64-2.91,3.24-3.65l-1.93,3.65Z" transform="translate(-275.24 -29.6)"/><path class="cls-1" d="M925.22,637.89c1,4.56,4.66,3.48,7.81,3.76s3.79-1.64,4.57-4.19c1-3.42,3.75-5.32,7.46-5.39s6.89,1.36,7.73,4.89c1,4.23,3.32,4.71,7,4.81s4.67-1.41,5.56-4.61c1-3.43,4-5.18,7.64-5.13,3.94,0,7.15,1.93,7.87,5.72.78,4,3.1,4,6.12,3.92s5.08.17,6.27-3.83c1.85-6.17,6-7,12.27-3.6,2.23,2.78,3.93,5.39-1.75,5.82-1.48.11-2,1.49-3,2.35-7.1,5.78-7.1,5.78-1.86,11.37-1,2.29-4.07.61-5.21,2.66-2.27,0-3.45-5.5-6.54-1.28-.91-3.34-.91-3.34,4.43-9.7-2-1.55-4.19-.74-6.18-.8-3.3-.1-5.8-1.49-6.12-4.76-.37-3.84-2.86-4.87-5.78-5s-6.06.77-6.66,4.15c-1.12,6.25-5.61,5.75-10,5.58-4.61-.18-8.28-1.4-8.24-7.1a2.76,2.76,0,0,0-3.18-2.67,6,6,0,0,0-5.52,4.13c-1.25,4.41-4,5.43-8.28,5.81-5.49.49-6.73-2.89-8-6.76C924.09,637.26,924.63,637.22,925.22,637.89Z" transform="translate(-275.24 -29.6)"/><path class="cls-1" d="M1132.5,450.38c-3-5.41-1.18-9.51,4-11.59,3.15-1.25,4.48-2.43,4.35-5.92-.11-3.14-.29-5.14-4-6.05-4-1-6-4.34-5.74-8.55.25-3.9,2.4-7,6.23-7.49,3.61-.45,3.58-2.4,3.43-4.89s1.15-5.9-3.14-6.71c-4.66-.89-6.61-4.21-6.48-8.58.12-4.15,2.37-7.26,6.72-7.62,4.15-.34,2.88-3.21,2.82-5.27-.07-2.31,1.46-5.62-2.75-6.22-2.74-.39-5.19-1.18-5.63-4.47,2.26.68,3.93,2.41,6.57,2.68,4.51.47,3.82,4.66,4.16,7.7.31,2.78.59,6-3.47,6.65-3.65.57-6.63,2.63-6.65,6.12a7.2,7.2,0,0,0,5.92,7.37c4,.93,4.33,4.3,4.34,7.81,0,3.34-.37,5.87-4.36,6.91-3.16.83-6.42,2.53-6.1,6.68a7.45,7.45,0,0,0,6,7c3.44.83,4.66,2.8,4.45,6.15-.19,3.08,0,6.26-3.71,7.6C1134.45,441.5,1132.39,445.24,1132.5,450.38Z" transform="translate(-275.24 -29.6)"/><path class="cls-1" d="M1075.23,641.81c.51-4.62,1.8-8.84,7.18-9.62s8.75,1.86,10,7.17c.86,3.66,3.86,2,6,2.15,1.93.11,4.52,1,5.09-2.43.75-4.48,3.52-7,8.12-7s7.44,2.39,8.34,6.85c.74,3.64,3.5,2.6,5.71,2.65s4.92.71,5.53-2.92a6.78,6.78,0,0,1,5.35-5.94,5.43,5.43,0,0,1,5.27-.07c-3.9,2.21-7.63,4.06-9.4,9.07-1.7,4.83-11.41,4.2-14.08-.52-1.4-2.47-2.16-5.54-5.35-6.28-3.88-.9-6.2.75-6.91,4.8s-3.65,5-7.34,5c-3.45,0-7,0-8.11-4-.83-3-1.38-5.33-5.23-5.41-3.63-.08-6.48.49-7.92,4.3C1077.11,640.49,1076,641.08,1075.23,641.81Z" transform="translate(-275.24 -29.6)"/><path class="cls-1" d="M1137.8,245.05c4.75-3.94,4.29-10-.94-12-3.72-1.38-5.76-4.08-5.73-8s1.45-7.16,5.58-7.87c3.78-.64,4.25-2.7,4.16-5.94s.07-5.62-4.35-6.24c-3.43-.48-5.34-3.73-5.4-7.39,0-3.86,1.53-7,5.38-8.14,3.22-.92,4.5-2.31,4.44-5.85s-.86-5.1-4.54-6.39c-6.66-2.35-7-9.22-1.29-14.33a1.05,1.05,0,0,1,.41,1.05c-.09.37-.19.56-.3.56-4.44,6.78-3.37,8.91,6.67,13.2a22.4,22.4,0,0,1,.09,10.58,5.44,5.44,0,0,1-4.18,2.76c-3.62.75-4.46,3.7-4.71,6.86-.27,3.43,2.08,4.44,4.85,5,4.5.85,5.08,4.34,5.15,7.94s.35,7.09-4.56,8.09c-3.17.64-5.6,2.85-5.78,6.28-.2,3.84,2.9,4.77,5.87,6,5,2,6.52,9.78,2.87,13.66C1140.4,246,1139.14,247.06,1137.8,245.05Z" transform="translate(-275.24 -29.6)"/><path class="cls-1" d="M871,641.62c5.17-.12,10.2,1.23,12.75-6.29,1.87-5.51,11.62-4.43,13.67,1.46,1.36,3.92,3,4.81,6.78,5,4.17.18,5.29-1.91,6.07-5.18a3.47,3.47,0,0,1,2.65-2.66l.59.68-.41.79c-4.4,10.44-4.42,10.51-15.5,7.69-1.81-.46-2,1.31-3.21,1.48-3.38-.64-7-3.86-9.89.92-1.25,1-2.32.55-3.34-.4-3.15-2.55-7.17,0-10.44-1.76Z" transform="translate(-275.24 -29.6)"/><path class="cls-1" d="M1133.45,618.4c-4.07-6.81-2.86-11.68,4.21-13.54,4.17-1.1,3-3.69,3-6s1.16-5.34-3.18-5.78-6.37-3.81-6.39-7.91,1.87-6.9,6.16-8.23c6.93-2.13,2.5-7.5,2.87-11.5,3.47,6.37,2.45,10.3-3.24,13.76-2.21,1.35-4.48,3.11-4.19,6.19a6.54,6.54,0,0,0,5.3,6c5.72,1,3.65,5.1,3.82,8.16.15,2.8,1.23,6.4-3.64,7-1.32.15-2.6,1.5-3.7,2.52-2,1.83-2.79,4.21-.93,6.41,2.33,2.75,3.67-.7,5.47-1.31,2.44,1.74,4.52,3.76,5.44,6.71l-2.27,4c-2-.62-.09-3.23-2-3.9l.11.11C1138.56,618.86,1135.61,619.63,1133.45,618.4Z" transform="translate(-275.24 -29.6)"/><path class="cls-1" d="M1140.37,565.55c-4.94.44-8.19-1.81-9.06-6.57-.91-5,1.47-8.68,6.49-9.79,4-.89,2.86-3.75,3-6.14s.66-4.77-3-5.44c-5.25-1-7.26-4.75-6.44-9.72s4.15-6.94,9-6.52a31.23,31.23,0,0,1-2.34,2.13c-2.44,1.77-5.62,3.19-5.2,6.84.39,3.38,3.28,4,6.16,4.84,3.74,1.14,4.09,4.7,4.15,8.09s-.28,7.09-3.82,8.33c-3.25,1.15-6.73,1.67-6.55,5.89.17,4.06,3.55,5.65,6.86,7C1140,564.66,1140.12,565.2,1140.37,565.55Z" transform="translate(-275.24 -29.6)"/><path class="cls-1" d="M1140.26,327.12c.77-5.06,2.17-9.66-5.1-12.22-5.82-2-5.91-11.72-.09-13.8,7.09-2.55,6-7,5.35-12.1-.68-.55-.64-1,.12-1.48,4.54,5.62,3.61,11-2.35,13.8-2.6,1.21-5.52,2.46-5.42,5.83s2.21,5.72,5.54,7.23C1144.41,317.13,1145.21,323.3,1140.26,327.12Z" transform="translate(-275.24 -29.6)"/><path class="cls-1" d="M1140.24,521.44c.38-5,3.06-10.31-5.16-12.61-5.48-1.54-5.61-12.38-.19-13.82,8.74-2.31,5.76-7.73,5.18-12.91,5.19,4.69,4.34,10.75-1.81,13.23-3,1.21-5.63,3.08-5.5,6.6s2.61,5.6,5.8,6.28c2.73.58,5,1.57,4.44,4.53S1145.7,520,1140.24,521.44Z" transform="translate(-275.24 -29.6)"/><path class="cls-1" d="M1133.82,274.3c2.36-3,8-2.4,7.25-9.22-.62-5.78-6.4-2.92-7.23-6.61,7,.08,9.69,3.64,7.93,10.47,3.08.54,4-3.07,6.57-2.62,3.27.39,2,2.41,1.47,4.14-2.43,2.07-2.14,5.51-4,7.88C1141.52,277.93,1138.25,274.38,1133.82,274.3Z" transform="translate(-275.24 -29.6)"/><path class="cls-1" d="M1137.62,161.79c4.75-1.36,2.61-5.28,3-8.23.47-3.16-1.82-3.4-4.06-3.81a3.49,3.49,0,0,1-3-2.28,1.89,1.89,0,0,1,2.86,0c1.31,1.91,4.23.44,5.44,2.57,1.54.91-1.09,4.49,2.59,4,1.58-1.06,1.81-3.45,3.92-4a3.6,3.6,0,0,1,1.08,1.34c.32,2.22,2.4,4,1.57,6.51-1.34.23-2.69.55-2.1,2.36,1.11,3.36-1.26,2.85-3.14,2.94C1143.47,160.6,1140.08,164,1137.62,161.79Z" transform="translate(-275.24 -29.6)"/><path class="cls-1" d="M1151.17,488.61c4.63-2.75,6.09-10,13.15-9.29l0,0c-1.12,2.45,2.7,6.13,1.4,5.93-4.72-.73-3.63,9.13-9.41,4.65C1154,491.64,1152,492.6,1151.17,488.61Z" transform="translate(-275.24 -29.6)"/><path class="cls-1" d="M1133.82,274.3c5.47-3,8.46,1.36,12,4l-1.38,1.27c-1.66,1.44-3.18.76-4.67-.38.15,2.08,2.57,1.6,3.29,3-1.62,1.49-2.7,3.66-5.18,4-5-1.92-7-5.38-5.35-10.63Z" transform="translate(-275.24 -29.6)"/><path class="cls-1" d="M1132.37,367.12c-2.16-6.36-1-9.85,5-11.43,3.85-1,3.42-3.28,3.34-5.82s1.22-5.8-3.53-6.11a5.17,5.17,0,0,1-4.89-4.55c1.87,1.06,3.63,2.47,5.63,3.12,3.18,1,5.51,2.24,5.22,6.19-.28,3.74-.2,7.54-4.6,9.08C1134,359.19,1132.34,362.58,1132.37,367.12Z" transform="translate(-275.24 -29.6)"/><path class="cls-1" d="M1137.85,481.9c-4.67-.2-6.48-3.32-6.69-7.33a7.82,7.82,0,0,1,5.23-8.25c5.3-2.15,6.06-6.41,2.3-12,3.11-.3,4.34,1.39,4.42,4.23.08,3.26.4,6.67-2.83,8.8-2.74,1.81-6.92,1.69-7.63,6.15S1137.43,478.3,1137.85,481.9Z" transform="translate(-275.24 -29.6)"/><path class="cls-1" d="M1000.5,642c0-2.15.85-3.86,3-4.39,2.57-.63,2.6-.51,2-3.33,2-.19,2.86,1.55,3.09,2.77.71,3.84,3,4.15,6.39,4.51,4.29.46,4.89-2.51,6.39-4.93.91,4.84-1.18,7.44-6,6.55-3.86-.71-7.45,2.62-11.21.27C1003.35,642,1001.64,642.72,1000.5,642Z" transform="translate(-275.24 -29.6)"/><path class="cls-1" d="M872,653.87c1.7-2.4,3.27-5,6.64-5.28,2.23-.36,3.12.6,2.76,2.8-2.46,2.63-1.14,7.53-5.42,9.09l-.88-.19C872.8,658.76,870.63,657.17,872,653.87Z" transform="translate(-275.24 -29.6)"/><path class="cls-1" d="M1000.5,642c1.92-1.25,3.09-.58,3.74,1.45,0,4.36-6.59,5.36-5.3,10.37-3.28-.12-6.16-2.51-5.94-4.9C993.34,645.21,996.51,642.68,1000.5,642Z" transform="translate(-275.24 -29.6)"/><path class="cls-1" d="M1152.4,261.09c3.51-6.27,6.74-1.51,11.37.19l-6,5.17C1154.06,266.59,1152.26,264.81,1152.4,261.09Z" transform="translate(-275.24 -29.6)"/><path class="cls-1" d="M864.21,671.05c-1.87-.81-1.22-4.24-4.13-4,2.43-1.48,3-5.32,6.64-5.27,1.34-.74,2.14.1,2.94,1,0,1.55,1.67,2.67,1.17,4.37C870.22,671.19,865.12,667.54,864.21,671.05Z" transform="translate(-275.24 -29.6)"/><path class="cls-1" d="M1160.34,593.17c3.75,1.57,1.87-3.11,4.42-3.6.77,2.42,2.68,3.88,5.92,4-1.48,2.73-6.17,2.18-5,6.11-1.31,1.09-2.44.6-3.53-.38C1160.74,597.48,1158.8,595.82,1160.34,593.17Z" transform="translate(-275.24 -29.6)"/><path class="cls-1" d="M1152.4,261.09a13.68,13.68,0,0,0,5.37,5.35c-1.27,1.58-1.49,5.08-5,2.45-1.55-1.16-1.89,1.18-3,1.57-.11-1.51.18-3.17-1.47-4.14C1148.62,263.74,1150.31,262.26,1152.4,261.09Z" transform="translate(-275.24 -29.6)"/><path class="cls-1" d="M881.4,651.39a4.82,4.82,0,0,0-2.76-2.8L880,646c.6-1,1.08-2.13,2.59-1.44.41.9.85,1,1.33.06,3.14-.5,4.44,1.47,5.33,4C888.05,653.51,883.78,649.77,881.4,651.39Z" transform="translate(-275.24 -29.6)"/><path class="cls-1" d="M1157.7,603.63l-3.87,4.07c-2.54-.14-3.88-1.48-4-4,1-3.27,4.42-3.53,6.61-5.32,1.26-.27,1.8.5,2.2,1.5A4.49,4.49,0,0,1,1157.7,603.63Z" transform="translate(-275.24 -29.6)"/><path class="cls-1" d="M889.26,648.61l-5.33-4c.16-3,4.87-2.15,4.45-6.1.35,4.36,4.16,4.15,6,6.05C891.1,643.91,890.7,646.92,889.26,648.61Z" transform="translate(-275.24 -29.6)"/><path class="cls-1" d="M1169.57,475.31a4.72,4.72,0,0,0,2.72,2.71c-1.69,6.55-4.93,3.34-8,1.27l0,0C1161.62,472.14,1167.82,476.65,1169.57,475.31Z" transform="translate(-275.24 -29.6)"/><path class="cls-1" d="M1148.45,151.37V150l4-2.73.87.12c2.8.33,1.82,5,5.24,4.59l.59.64c-1.13,2.22-5.37.22-5.37,4C1150.17,156.67,1149.79,153.54,1148.45,151.37Z" transform="translate(-275.24 -29.6)"/><path class="cls-1" d="M869.38,663.14l-2.66-1.33c.1-2.7,1.84-4.17,4-5.33,1.79,1.31,3,3.39,5.3,4l0,0c0,2.72-1.82,4.15-4,5.31A4.91,4.91,0,0,1,869.38,663.14Z" transform="translate(-275.24 -29.6)"/><path class="cls-1" d="M1132.56,275.63c-1.1,5,3.2,7.27,5.35,10.63.57,1.07,1.61,1.14,2.63,1.26l-.12,1.48C1131.49,287.11,1129.2,283.21,1132.56,275.63Z" transform="translate(-275.24 -29.6)"/><path class="cls-1" d="M1160.29,140.74a4.38,4.38,0,0,1,2.68-4c4.26.22,4.35,3.79,5.32,6.65l-1.32,1.35C1163,146.37,1161.53,143.72,1160.29,140.74Z" transform="translate(-275.24 -29.6)"/><path class="cls-1" d="M1167,132.82a9.35,9.35,0,0,1,4-4.06l.08.24a6.76,6.76,0,0,1,3.68,3.71l.25.11c-.89,1.78-2.86,3-2.81,5.28C1168.8,137.89,1167.42,135.8,1167,132.82Z" transform="translate(-275.24 -29.6)"/><path class="cls-1" d="M1144.48,620.85c-2.54-1.64-5-3.35-5.43-6.7l1.4-1.37c2.64,1.29,6.63.92,6.69,5.41Z" transform="translate(-275.24 -29.6)"/><path class="cls-1" d="M1143.13,610.23l2.65-2.65c4.39.12,4.19,3.94,5.36,6.66l-1.35,1.34C1145.37,616.53,1143.71,614.05,1143.13,610.23Z" transform="translate(-275.24 -29.6)"/><path class="cls-1" d="M987.19,655.16c-.07-2.15,1-4.33,2.87-4.27,3.09.1,2.19,3.81,3.67,5.55C990.37,662.05,989.54,654.71,987.19,655.16Z" transform="translate(-275.24 -29.6)"/><path class="cls-1" d="M1156.35,143.38l1.32-1.36a7.46,7.46,0,0,1,6.66,5.35l-4,2.6C1157.26,148.83,1154.87,147.27,1156.35,143.38Z" transform="translate(-275.24 -29.6)"/><path class="cls-1" d="M1151.17,488.61c1.28,2.15,3.2,1.7,5.12,1.26-1.64,1.81,0,4.1-.81,6.64C1152.55,494.31,1148.47,493.43,1151.17,488.61Z" transform="translate(-275.24 -29.6)"/><path class="cls-1" d="M1143.09,282.23a11.69,11.69,0,0,1-2-.07,5,5,0,0,1-4.13-3.72,1.91,1.91,0,0,1,.71-1.67c2.64-1.24,3,1.37,4.24,2.56.49.46,1.67.21,2.53.28Z" transform="translate(-275.24 -29.6)"/><path class="cls-1" d="M1149.83,603.67c1.33,1.34,2.66,2.69,4,4a3,3,0,0,1-.2,3.73c-3.81-.51-6.24-2.11-5.21-6.49Z" transform="translate(-275.24 -29.6)"/><path class="cls-1" d="M1148.42,604.94c.34,3.28,2.73,4.92,5.21,6.49a4.16,4.16,0,0,1-2.5,2.81l-5.35-6.66Z" transform="translate(-275.24 -29.6)"/><path class="cls-1" d="M1143.13,610.23c1.65,2.49,3.31,5,6.66,5.35l-2.65,2.61-6.69-5.41Z" transform="translate(-275.24 -29.6)"/><path class="cls-1" d="M1167,132.82l5.16,5.28a3.81,3.81,0,0,1-2.52,2.62c-2.31-1.6-5.51-2.67-4-6.59Z" transform="translate(-275.24 -29.6)"/><path class="cls-1" d="M1157.68,599.63l-1.24-1.28c.16-2.59,2.45-3.56,3.9-5.18-.14,2.24,1.92,3.36,2.64,5.15C1161.68,600.66,1160.39,603,1157.68,599.63Z" transform="translate(-275.24 -29.6)"/><path class="cls-1" d="M1156.35,143.38c-.13,3.07,3,4.16,4,6.59a2.77,2.77,0,0,1-1.24,2.68l-.2,0c-3.28-.29-3-5.06-6.4-5.14l-.1-.17Z" transform="translate(-275.24 -29.6)"/><path class="cls-1" d="M1164.33,147.37l-6.66-5.35a2.67,2.67,0,0,1,2.62-1.28c2.51.87,3.58,4.12,6.68,4Z" transform="translate(-275.24 -29.6)"/><path class="cls-1" d="M1165.62,134.13c-.11,3.06,3.08,4.13,4,6.59a2.71,2.71,0,0,1-1.3,2.68l-5.32-6.65Z" transform="translate(-275.24 -29.6)"/><path class="cls-1" d="M1157.68,599.63c2.32,1.78,3.6-.6,5.3-1.31a2.77,2.77,0,0,0,2.65,1.35c-1.3,4-5,3.22-7.93,4Z" transform="translate(-275.24 -29.6)"/><path class="cls-1" d="M925.22,637.89l-1.62.13a4.56,4.56,0,0,0-2.64-2.66c-2.39-1.58-5.22,0-7.68-1l-.36-.4C919.21,630.59,922.32,631.59,925.22,637.89Z" transform="translate(-275.24 -29.6)"/><path class="cls-1" d="M1137.62,161.79c2.57,1.5,6.22-3.36,8.23,1.39a28.82,28.82,0,0,0-10.63,1.38c0-.54-.07-1.07-.11-1.61A2.1,2.1,0,0,1,1137.62,161.79Z" transform="translate(-275.24 -29.6)"/><path class="cls-1" d="M1140.22,621c2.22.51,1.61,2.45,2,3.9-.14,2.58-.29,5.17-.43,7.76l-5.27.07C1143.24,630.54,1140.23,625.29,1140.22,621Z" transform="translate(-275.24 -29.6)"/><path class="cls-1" d="M1148.45,151.37l5.27,5.25a2.25,2.25,0,0,1-2.63,1.26C1149.89,155.84,1147.86,154.13,1148.45,151.37Z" transform="translate(-275.24 -29.6)"/><path class="cls-1" d="M1142,188.34l-.09-10.58A10.7,10.7,0,0,1,1142,188.34Z" transform="translate(-275.24 -29.6)"/><path class="cls-1" d="M913.28,634.32c2.61-.05,5.39-1.26,7.68,1l-7.86,0A2.6,2.6,0,0,1,913.28,634.32Z" transform="translate(-275.24 -29.6)"/><path class="cls-1" d="M869.38,663.14a4.45,4.45,0,0,1,2.65,2.65l-1.21,1.37C868.8,666.37,867.73,665.24,869.38,663.14Z" transform="translate(-275.24 -29.6)"/><path class="cls-1" d="M715.71,640.56c-.29-4.77,2.18-7.62,6.63-8.35,4.78-.79,8.43,1.39,9.4,6.19.83,4.06,3.57,3,6,3.22,2.79.21,5,.12,5.72-3.6.73-3.88,3.7-5.92,7.7-5.94,4.23,0,7.55,1.93,8.21,6.15s3.28,3.3,5.79,3.38,5.14.46,5.92-3.36c.84-4.16,3.92-6.33,8.2-6.17s7.3,2.34,7.89,6.57c.55,3.94,3.24,3,5.4,2.88,2.33-.11,5.6,1.47,6.35-2.67s3.4-6.65,7.69-6.77c4.53-.12,7.67,2.14,8.56,6.64.72,3.66,3.36,2.88,5.63,2.85s4.93,1,5.68-2.73c.89-4.46,3.82-6.89,8.44-6.76,4.3.12,7.1,2.5,7.86,6.67.68,3.78,3.41,2.8,5.6,2.78s4.9,1.19,5.67-2.62c.95-4.73,4.14-7.27,9-6.82,5.75.52,7.52,4.62,8,9.67-1.79-.43-2-2.16-2.87-3.39-4-5.83-8.75-5.78-11,.77-1.84,5.28-5,5.64-9.55,5.55s-7-1.75-7.56-6.37c-.32-2.57-2.7-3.68-4.83-3.77a5.77,5.77,0,0,0-5.92,4.39c-1.66,5.94-6,6.07-10.9,5.69-3-.23-5.3-1.56-5.68-4.49-.45-3.45-2.31-5.42-5.39-5.58a6.17,6.17,0,0,0-6.19,4.19c-1.41,4.67-4.29,5.85-8.85,6s-6.08-2.31-7.25-5.93a5.78,5.78,0,0,0-6-4.28c-2.92.22-5.47,1.64-6.12,5s-2.44,5.3-6.34,5.14c-3.63-.15-7,.17-8.47-4.3-1.06-3.34-3.32-6.07-7-6.09-3.89,0-4.49,3.63-5.49,6.49-1.29,3.71-4.2,3.92-7.47,3.85s-6.69.24-8.56-3.45c-4.43-8.77-5.74-8.92-12.19-1.57A5.59,5.59,0,0,1,715.71,640.56Z" transform="translate(-275.24 -29.6)"/><path class="cls-1" d="M371,641.53c2.42,0,4.84,0,7.26.09,2.62.13,4.4-.12,5-3.48.7-3.76,3.55-6,7.58-6.12,4.23-.1,7.61,1.88,8.39,6,.74,3.82,2.92,3.69,5.64,3.63s5.68.59,6.43-3.63c.7-4,3.7-5.92,7.65-6,4.23,0,7.36,2,8.18,6.21.76,3.87,3.38,3.34,6,3.36s5.06.46,5.72-3.52c.62-3.81,3.65-5.92,7.64-6s7.16,1.65,8,5.48,2.92,4,6.09,4.18c3.68.18,5.38-.85,6.23-4.61.73-3.2,3.61-4.92,7-5.08,3.6-.18,6.93,1.09,8,4.56,1.24,4,3.12,5.09,7.33,5.24,4.66.16,4.56-2.95,5.77-5.52.25-.54.89-.9,1.34-1.34a1.07,1.07,0,0,1,.23,1.74c-.66,2.32-.89,4.8-2.71,6.65a19.69,19.69,0,0,1-10.58,0,4,4,0,0,1-2.58-3.52c0-4.35-3.48-4.88-6.33-5.24a5.52,5.52,0,0,0-5.95,4.25c-1.2,4.08-3.17,6.16-7.9,5.92s-7.17-1.89-8-6.71c-.51-2.88-3.54-3.76-6.24-3.87s-4.49,1.71-5.18,4.23c-1.11,4-2.95,6.3-7.73,6.38s-6.75-1.74-7.94-5.9a6.15,6.15,0,0,0-6.53-4.56c-5.26.4-6.15,4.81-7,9a24.41,24.41,0,0,1-11.92,0c-2.57-.44-2.13-3.06-2.95-4.58-1.49-2.77-3.45-4.57-6.4-4.55-3.36,0-4.95,2.35-5.22,5.6a4.19,4.19,0,0,1-2.6,3.52,20.38,20.38,0,0,1-10.6.06Z" transform="translate(-275.24 -29.6)"/><path class="cls-1" d="M577.09,640.61c-.28-4.71,2-7.65,6.53-8.4,4.7-.78,8.47,1.17,9.53,6,1,4.25,3.83,3.32,6.55,3.46s4.9,0,5.56-3.75S609,632,613,632s7.15,1.78,7.93,5.66,3.09,4.06,6.16,4c2.75-.08,5,.08,5.78-3.63,1-4.46,4.49-6.53,9-5.86s7.18,3.15,6.94,8c.84,1.73,2.42,2.2,4.14,2.46,4.08.61,4.09,2.89,2.4,5.86-3.41-4-8.29-6.25-10.23-12.08-1.31-3.9-8.38-2.31-9.54,2.26-1,4.14-3,5.92-7.21,6s-7.79-.29-9.16-5.34a6.45,6.45,0,0,0-6.45-4.75c-3,.07-4.88,2.08-5.4,5.52-.54,3.64-3.47,4.71-6.91,4.53-3.2-.17-7.35.76-8.4-3.24s-2.64-6.75-6.62-6.83c-4.67-.09-6.44,3.78-8,7.47C576.53,641.7,576.44,641.23,577.09,640.61Z" transform="translate(-275.24 -29.6)"/><path class="cls-1" d="M496.5,636.69c-.08-.58-.15-1.16-.23-1.74,5.78-4.69,11.54-3.72,13.78,3,1.13,3.42,2.78,3.81,5.59,3.69s5.49.55,6.33-3.69c.8-4.05,4.09-6.19,8.34-5.85,4.08.33,7,2.28,7.32,6.83.58,1.47,1.06,2.95-.17,4.35-2.55-2.79-2-8.59-8.1-8-2.67.27-5,.7-5.06,3.86-.1,3.36-1.16,5.69-4.94,5.4-4.05-.32-9,1.93-11.15-4.09S502,632.89,496.5,636.69Z" transform="translate(-275.24 -29.6)"/><path class="cls-1" d="M537.46,643.29c.06-1.45.12-2.9.17-4.35,5.2,4.47,9.48,3.79,12.11-1.81,1.47-3.12,3.47-5.62,7.55-4.23.79,1.78,4.32.72,3.91,3.75-3.42.29-4.16,3.83-6.51,5.4-1.77-.95-2.79.49-4,1.25-3.5,2.1-5.89,4.83-5.28,9.27-4.59,1.18-6.4-1.13-6.68-5.34C539.85,645.42,539.52,644.08,537.46,643.29Z" transform="translate(-275.24 -29.6)"/><path class="cls-1" d="M517.58,668.41l11.92-13.19a1.11,1.11,0,0,1,1.51-.32,64.67,64.67,0,0,0,5.09,6.91c-3.87,3.76-7.82,7.38-13,9.44-.38.15-.25,1.6-.36,2.44C519.42,673.54,518.07,671.4,517.58,668.41Z" transform="translate(-275.24 -29.6)"/><path class="cls-1" d="M310.18,549.27c1.07.06,2.08.23,2.52,1.41-3.27-.06-6.82-.13-8.51,3.2-1.84,3.64-5.92-1.63-7.36,2.25a12.26,12.26,0,0,1-3.62-2.09l-.48-.69c4.68-5.07,10.44-9.23,13.26-15.85,1.37,2,.59,4.08.12,6.09C305.31,547.09,306.83,548.81,310.18,549.27Z" transform="translate(-275.24 -29.6)"/><path class="cls-1" d="M417.09,665.79c-6.06,1.61-9.84,5-9.31,11.82-4,1.76-4.8-1.91-6.58-3.91l0,0c1.91-6.26,8-8.75,11.87-13.27C415.63,661.35,417.6,662.65,417.09,665.79Z" transform="translate(-275.24 -29.6)"/><path class="cls-1" d="M655.3,648.52c0-3-.47-5.52-4.4-5.61a2.26,2.26,0,0,1-2.14-2.71c8.42,2.56,9.85,2,13-4.84,3.84,6.19,4,7.44,1.37,10.53-1.18-.3-2.72-1.1-2.69,1.11C660.54,653.84,657.49,649.67,655.3,648.52Z" transform="translate(-275.24 -29.6)"/><path class="cls-1" d="M316.67,640.5c5.14,1.14,9.59,2.26,12.45-4.71,1.87-4.54,6.93-5.65,11.55-2-5.53-1.2-8.8,2.53-11.79,6C325.11,644.16,321.05,644.66,316.67,640.5Z" transform="translate(-275.24 -29.6)"/><path class="cls-1" d="M663.12,645.89c2.13-3.85-2.21-6.85-1.37-10.53a4.49,4.49,0,0,1,3.68-2.78c2.6-.87,4.48.09,5.88,2.3a2.6,2.6,0,0,1-2.2,1.63,8.57,8.57,0,0,1-2.51-.37c1.06,1,1.85,2.35,3.46,2.63.78.4,1.53.82,1,1.9C667.54,641.1,666.49,645.26,663.12,645.89Z" transform="translate(-275.24 -29.6)"/><path class="cls-1" d="M747.71,672.36l-1.31-5.18c2.6-2.64,5.57-3.48,7.59.15,1.84,3.3-3.38,3.68-3.6,6.43C748.87,674.51,748.33,673.36,747.71,672.36Z" transform="translate(-275.24 -29.6)"/><path class="cls-1" d="M417.09,665.79l-4-5.33c3.47-6.46,6.41-1.74,10.36,1.07C419.32,660.93,420,665.42,417.09,665.79Z" transform="translate(-275.24 -29.6)"/><path class="cls-1" d="M283.48,562.6l1.34-1.34c2.81,1,6.42,1,6.6,5.32a4.32,4.32,0,0,1-3.92,2.74C284.54,568.05,281.86,566.61,283.48,562.6Z" transform="translate(-275.24 -29.6)"/><path class="cls-1" d="M542.73,655.21l-1.36,2.52c-1.79,1.68-3.41.55-5-.29a5.66,5.66,0,0,1-1.3-1.33c-1.45-2.45-1.42-4.66,1-6.5C539,650.65,542.27,651.23,542.73,655.21Z" transform="translate(-275.24 -29.6)"/><path class="cls-1" d="M536.1,661.81c-3.75-.56-5.41-2.81-5.25-6.52,2.82-4,3.63.4,5.29,1.27l-.07-.06c2.08,1.37,3.13,3,1.24,5.28C536.91,661.77,536.51,661.78,536.1,661.81Z" transform="translate(-275.24 -29.6)"/><path class="cls-1" d="M288.79,557.33a8.73,8.73,0,0,1,3.94-4l.14.08a4.85,4.85,0,0,1,3.79,3.83l-2.61,4C290.93,561.79,289.67,559.81,288.79,557.33Z" transform="translate(-275.24 -29.6)"/><path class="cls-1" d="M283.48,562.6c-.12,3.12,3.14,4.21,4,6.72a2.59,2.59,0,0,1-1.37,2.55c-2.91-.88-5.45-2.25-6.61-5.31A9,9,0,0,1,283.48,562.6Z" transform="translate(-275.24 -29.6)"/><path class="cls-1" d="M517.58,668.41l5.2,5.28c-.06,1.92-1,3.18-2.63,1.6C518.36,673.54,514.31,672.2,517.58,668.41Z" transform="translate(-275.24 -29.6)"/><path class="cls-1" d="M671,635.39c-1.33-2-3.48-2.31-5.55-2.81,5.25-1.44,9.23-.38,10.8,5.45-.86-.25-1.68-1.4-2.62-.12C671.47,638.39,670.64,637.5,671,635.39Z" transform="translate(-275.24 -29.6)"/><path class="cls-1" d="M542.73,655.21l-6.62-5.3c-.38-.3-.5-.59-.37-.88s.26-.44.39-.44l2.57-1.36c1.68,2.46,3.28,5,6.68,5.34Z" transform="translate(-275.24 -29.6)"/><path class="cls-1" d="M279.52,566.56c2.77,1.07,4.61,3.28,6.61,5.31l-1.28,1.37c-3.4-.3-5-2.84-6.65-5.33Z" transform="translate(-275.24 -29.6)"/><path class="cls-1" d="M291.42,566.58l-6.6-5.32a2.65,2.65,0,0,1,2.62-1.28c3.52-.89,4.49,2.52,6.63,3.95A4.35,4.35,0,0,1,291.42,566.58Z" transform="translate(-275.24 -29.6)"/><path class="cls-1" d="M294.07,563.93c-3.1.17-4.15-3.09-6.63-3.95a2.91,2.91,0,0,1,1.36-2.65l5.25,4C294.06,562.18,294.07,563.06,294.07,563.93Z" transform="translate(-275.24 -29.6)"/><path class="cls-1" d="M536.13,648.59c0,.44,0,.88,0,1.32-2,2.22-.25,4.43,0,6.65-2,.48-2.94-3.3-5.29-1.27l-1.35-.07Z" transform="translate(-275.24 -29.6)"/><path class="cls-1" d="M876,660.5c-4.53,2.31-4.1-1.93-5.3-4a2.75,2.75,0,0,1,1.29-2.61C871.92,656.94,875.06,658.06,876,660.5Z" transform="translate(-275.24 -29.6)"/><path class="cls-1" d="M401.2,673.7c2.43.91,3.48,4.14,6.58,3.91a2.56,2.56,0,0,1-2.6,1.4C401.31,679.14,400.7,676.84,401.2,673.7Z" transform="translate(-275.24 -29.6)"/><path class="cls-1" d="M577.09,640.61c.09.47.18.95.28,1.42-4.27,1.16-8.85,4.21-11.93-1.94C569.22,642.51,573.14,641.86,577.09,640.61Z" transform="translate(-275.24 -29.6)"/><path class="cls-1" d="M882.6,644.56,880,646c-2.47-3.07-6.8.32-9.29-2.67C874.66,643.88,878.86,642.05,882.6,644.56Z" transform="translate(-275.24 -29.6)"/><path class="cls-1" d="M671,635.39l2.63,2.52a4.31,4.31,0,0,1-2.56,2.76l-1.37-1.33c-3.21-.37-1.82-2.34-1.4-4Z" transform="translate(-275.24 -29.6)"/><path class="cls-1" d="M399.88,643.34l11.92,0A12.17,12.17,0,0,1,399.88,643.34Z" transform="translate(-275.24 -29.6)"/><path class="cls-1" d="M537.31,661.78c.47-2-.38-3.63-1.24-5.28l5.3,1.23A7.1,7.1,0,0,1,537.31,661.78Z" transform="translate(-275.24 -29.6)"/><path class="cls-1" d="M561.2,636.65c-.85-1.72-4.09-.95-3.91-3.75,3.18-.47,5.35.78,6.48,3.8Z" transform="translate(-275.24 -29.6)"/><path class="cls-1" d="M747.71,672.36l2.68,1.4a2.94,2.94,0,0,1-2.69,3c-1.11.16-1.23-.83-1.32-1.67C746.82,674.2,747.26,673.28,747.71,672.36Z" transform="translate(-275.24 -29.6)"/><path class="cls-1" d="M372.11,643.39l10.6-.06A10.36,10.36,0,0,1,372.11,643.39Z" transform="translate(-275.24 -29.6)"/><path class="cls-1" d="M483.21,643.35l10.58,0A10.16,10.16,0,0,1,483.21,643.35Z" transform="translate(-275.24 -29.6)"/><path class="cls-1" d="M550.66,643.3c.87-1.95,1.61-4.29,4-1.25C554.27,645.44,552.38,644.1,550.66,643.3Z" transform="translate(-275.24 -29.6)"/><path class="cls-1" d="M296.66,557.26l-3.79-3.84c2.05-.17,3.78.14,4,2.71A8.56,8.56,0,0,1,296.66,557.26Z" transform="translate(-275.24 -29.6)"/><path class="cls-1" d="M298,101.15c.27,4.2-5.28,9.78-10.51,10.57-2.38.63-3.83-.13-4-2.72,1.54-1.61,3.3-3,4-5.28,3-2.72,7.31-4,9.22-8l.67.55C298.21,97.81,299.05,99.36,298,101.15Z" transform="translate(-275.24 -29.6)"/><path class="cls-1" d="M300.66,91.75c3.36-2.8,5.36-7,9.31-9.19a3.47,3.47,0,0,1,3.67,3.2c-.07,2-.26,4,.69,5.84a3,3,0,0,1-.35,1.77c-1.9,2.17-4.48,2.54-7.13,2.72a14.24,14.24,0,0,1-4.17-.33C300.84,95,299.31,94.1,300.66,91.75Z" transform="translate(-275.24 -29.6)"/><path class="cls-1" d="M283.54,233.33a6,6,0,0,1-5.31-5.29c2.8-3.92,6-7.44,10.59-9.26,2.27.05,2.16,1.24,1.35,2.78C286.93,224.9,288.35,230.87,283.54,233.33Z" transform="translate(-275.24 -29.6)"/><path class="cls-1" d="M451.61,65.41c-3.91,2.26-7.55,2.4-10.67-1.38.6-.91,2-.44,2.54-1.45,4.4-4.52,8-10,14.59-11.82.8,3.63-.63,6.1-3.95,7.59C453.88,60.92,451.44,62.7,451.61,65.41Z" transform="translate(-275.24 -29.6)"/><path class="cls-1" d="M452.79,57.39c3.25-1,3.83-4.17,5.28-6.63.22-1.66-.21-5.06,2.58-1.6,1.25,1.55,4.34,1.34,4,4.24-1.34,1.82.61,1.91,1.38,2.63L466,57.56c-4.62.17-10.29-2.06-11.83,5.17C452.14,61.33,454.38,58.89,452.79,57.39Z" transform="translate(-275.24 -29.6)"/><path class="cls-1" d="M303.31,213.56c-1.42,3-5.93,2.87-6.55,6.62-1.28.72-2.27-.05-3.31-.63-1-1-2.79-1.47-2-3.47,3.92-4.88,4-4.85,8.67-2.77C301,213.73,302.23,213.5,303.31,213.56Z" transform="translate(-275.24 -29.6)"/><path class="cls-1" d="M589,32.24c1.58,1,1.33,2.57,1.4,4.06-3,1.78-1.68,6.52-5.34,7.88L584.2,44a6.56,6.56,0,0,1-2.94-2.93c0-.27-.11-.55-.16-.82C582.08,36,584.86,33.46,589,32.24Z" transform="translate(-275.24 -29.6)"/><path class="cls-1" d="M300.66,91.75c.07,1.63.79,2.65,2.55,2.69a11.42,11.42,0,0,1,3.69,5.23c.25,3.83,3.48,5,6.06,6.71a1,1,0,0,1-.65,1.4c-5.59,1.25-7.61-2.29-8.95-6.7-3.07-.65-5.06-2.66-6.61-5.22l0-.15A9.27,9.27,0,0,1,300.66,91.75Z" transform="translate(-275.24 -29.6)"/><path class="cls-1" d="M585,44.18a4.27,4.27,0,0,1-2.57,4.12c-3.91,1.4-5.48-1-6.64-4.1,1.12-2.17,2.55-3.93,5.29-3.94l0-.06a4,4,0,0,0,4,4Z" transform="translate(-275.24 -29.6)"/><path class="cls-1" d="M579.82,50.84l-1.45,2.52c-5.44,1.12-7.33-1.32-6.48-6.48l1.29-1.3C577.24,45,578.1,48.46,579.82,50.84Z" transform="translate(-275.24 -29.6)"/><path class="cls-1" d="M571.89,46.88a7.24,7.24,0,0,0,6.48,6.48c-.43.94-.87,1.87-1.31,2.81-3.56,1.25-5.51-1-7.38-3.4a16.91,16.91,0,0,1-1.79-1.9Z" transform="translate(-275.24 -29.6)"/><path class="cls-1" d="M443.48,62.58C443,63.76,442,64,440.94,64c-2.08-6.92-7.2-7.38-13.1-6.17,5.78-3.43,9.64-2.64,12.68,2.67C441.21,61.74,442,62.66,443.48,62.58Z" transform="translate(-275.24 -29.6)"/><path class="cls-1" d="M565.31,61.65A.81.81,0,0,1,565,62.7,5.62,5.62,0,0,1,560,64c-3.71-5.07,3.07-5.08,3.85-8l.76.5C565.49,58.13,566.32,59.76,565.31,61.65Z" transform="translate(-275.24 -29.6)"/><path class="cls-1" d="M579.82,50.84c-3.34-.33-3.78-4.33-6.64-5.26a2.58,2.58,0,0,1,2.63-1.38c2.46,1,3.6,4.08,6.64,4.1Z" transform="translate(-275.24 -29.6)"/><path class="cls-1" d="M560,64c1.31-1.85,3.28-1.11,5-1.29-3.05,4.58-6.79,6.18-11.69,2.68C555.46,64.69,558.15,66.44,560,64Z" transform="translate(-275.24 -29.6)"/><path class="cls-1" d="M312.6,86.61c.26-2.09-1.79-2.67-2.63-4l2.58-2.51c3.75.11,2.29,3.19,2.9,5.1l-.39.83A2,2,0,0,1,312.6,86.61Z" transform="translate(-275.24 -29.6)"/><path class="cls-1" d="M291.42,216.08l2.66,2.64c.7,1.47-.11,2.23-1.31,2.81l-2.6,0a3,3,0,0,0-1.35-2.78C288.78,217,289.72,216.18,291.42,216.08Z" transform="translate(-275.24 -29.6)"/><path class="cls-1" d="M567.89,50.87h2.62c.72,5.38-2,6.46-6.57,5.3l-.13-.14Z" transform="translate(-275.24 -29.6)"/><path class="cls-1" d="M466,56c-1.59-.42-4.16,1.12-4.52-1.57-.16-1.18,2-.92,3.14-1.06Z" transform="translate(-275.24 -29.6)"/><path class="cls-1" d="M306.2,428.26c1,3.21-.38,6.76,1.39,9.87l-7.11,2.7c-1.07.29-1.49-.34-1.74-1.21-.07-1.41.77-2.53,1.17-3.78.21-1,0-2,.78-2.84,3.91-.36,2.2-5.4,5.33-6.4A1,1,0,0,1,306.2,428.26Z" transform="translate(-275.24 -29.6)"/><path class="cls-1" d="M306.2,428.26,306,426.6c2.09-3,7.32-2.14,8.12-7.39.34-2.25-.42-4.1-.15-6.12C319.47,420.12,316.82,425.27,306.2,428.26Z" transform="translate(-275.24 -29.6)"/><path class="cls-1" d="M300.69,433l1.3,2.7c-1.22,1.09-3.5,1.48-2.6,4l1.09,1.17c-.06,1.61,1.18,4.35-2.47,2.84-1.78-.9-3.59-1.79-4-4.05C296.11,437.28,296.71,433.44,300.69,433Z" transform="translate(-275.24 -29.6)"/><path class="cls-1" d="M310.18,549.27c-4.88.63-6.95-1-5.12-6.1a31.21,31.21,0,0,0,.93-5.67c2.25-.43,4.33-1.8,6.76-1.22C305.66,540.28,304.64,545.43,310.18,549.27Z" transform="translate(-275.24 -29.6)"/><path class="cls-1" d="M295.45,444.94c-.36,1.41,1.71,3.32-.05,4.09-2.57,1.13-3.37-1.89-4.86-3.15-2.36-2-1.47-3.66.91-4.92C294.26,440.8,295.51,442.22,295.45,444.94Z" transform="translate(-275.24 -29.6)"/><path class="cls-1" d="M283.5,109l4,2.72c-.42,1.4,1.73,2.87,0,4.19-.84.63-1.71.08-2.24-.61C283.87,113.45,280.39,112.13,283.5,109Z" transform="translate(-275.24 -29.6)"/><path class="cls-1" d="M296.75,95.86c2.85.92,4.59,3.24,6.61,5.22-1.76.78-3.51,2.48-5.32.07A9.44,9.44,0,0,1,296.75,95.86Z" transform="translate(-275.24 -29.6)"/><path class="cls-1" d="M295.45,444.94l-4-4a2.64,2.64,0,0,1,2.56-1.34,7.83,7.83,0,0,1,4,4.05Z" transform="translate(-275.24 -29.6)"/><path class="cls-1" d="M292.77,221.53c.44-.94.88-1.87,1.31-2.81l2.68,1.46c-.13,1.53-.55,3-2.24,3.35C293.1,223.83,293,222.56,292.77,221.53Z" transform="translate(-275.24 -29.6)"/><path class="cls-1" d="M922.31,65.38c-4.44,3.36-9.89,2.25-11-1.94-2.24-8.26-7.54-5.82-12.61-5.6,6.22-2.83,11-7.55,15.69-12.29,2.68.86,2.06,5,5.34,5.29-1.94,2.08-2.85,5.55-6.9,4.72-1.26-.25-1.47.47-1.12,2,.7,3-.15,6.72,4.14,7.53A45.09,45.09,0,0,0,922.31,65.38Z" transform="translate(-275.24 -29.6)"/><path class="cls-1" d="M926.26,33.66a5.5,5.5,0,0,0,5.32,5.26c-3.07,3.93-9,3.59-11.8,8-3,1.58-3.61-.5-4.13-2.7C918,39.51,923.74,38.19,926.26,33.66Z" transform="translate(-275.24 -29.6)"/><path class="cls-1" d="M701.44,31c-.23,2.31,2,3.43,2.6,5.37a8.42,8.42,0,0,0-1.14,1.49c-.68,1.41.86,3.94-1.52,4.32-2.09.34-3.2-1.88-4.37-3.32-1.58-2-.59-3.54,1.11-4.91C699.28,33.05,700.34,32,701.44,31Z" transform="translate(-275.24 -29.6)"/><path class="cls-1" d="M563.94,56.16c3.63,0,6-1.49,6.57-5.3,1.71,2.36,3,5.21,6.55,5.31,0,.53-.1,1-.16,1.58-4.13.5-9.68-3.22-11.59,3.9Q564.62,58.91,563.94,56.16Z" transform="translate(-275.24 -29.6)"/><path class="cls-1" d="M915.65,44.19c1.39.87,2,2.91,4.13,2.7-.53,1.31,1.44,2.67-.08,4-3.21-.32-4.64-2.44-5.34-5.29Z" transform="translate(-275.24 -29.6)"/><path class="cls-1" d="M1136.49,147.44l-2.86,0c-4.32-6.74-3.26-11.29,4-13.6,4.36-1.37,2.85-4.26,3.08-6.79.21-2.38.48-4.61-3.28-5-4.29-.49-6.39-3.82-6.34-8s2-7.37,6.39-8c4-.6,3.28-3.4,3.25-5.93s.83-5.23-3.4-5.7c-4-.44-6-3.54-6.21-7.45-.19-4.15,1.56-7.73,5.83-8.43s3.74-3.37,3.84-6.24-.06-5.15-3.79-5.55a5.94,5.94,0,0,1-5.17-4.58c-.82-3.56-2.34-4.94-6.24-4.93s-4.93,1.5-6.26,4.83c-2.63,6.62-10.4,6.39-14.8-.08-.4-1.55-.86-3.1.26-4.57,2.18,1.7.46,6,4.51,6.54,5.09.65,8.9-.19,8.67-6.51,3.44-2.13,8.12-2.6,10.78-1,5.28,3.09,10.75,7.21,13.78,12.3,2.17,3.64,2,10.1-5,12.14-2.8.81-5.33,2.72-4.88,6.19a6.52,6.52,0,0,0,5.52,5.84c5.17.64,4.87,4,4.92,7.64s0,6.89-5.08,7.53a6.39,6.39,0,0,0-5.37,6c-.32,3.48,2.26,5.33,5,6.09,4.11,1.12,5.77,3.29,5.44,7.55-.31,3.87-.4,6.88-5.4,8.3C1131.91,137.59,1131.82,141.11,1136.49,147.44Z" transform="translate(-275.24 -29.6)"/><path class="cls-1" d="M1144.52,154c-.62.51-1.75,1.5-1.78,1.47-1.5-1.62-.5-3.64-.81-5.49Z" transform="translate(-275.24 -29.6)"/><path class="cls-1" d="M1039.93,33.59c2.91-.29,2.26,3.2,4.19,3.95-1.71,2.77-2.55,6.43-6.78,6.63-2.38-1-4.1-2.41-2.73-5.36A15.28,15.28,0,0,1,1039.93,33.59Z" transform="translate(-275.24 -29.6)"/><path class="cls-1" d="M1034.61,38.81c-.1,2.3,1.92,3.52,2.73,5.36-3.22.29-.08,6.95-5.27,5.27C1025.92,44.22,1031.66,41.85,1034.61,38.81Z" transform="translate(-275.24 -29.6)"/><path class="cls-1" d="M1104.84,57.4c-.09,1.52-.17,3.05-.26,4.57-.8-3.95-3.37-4.75-7.09-4.61-3,.12-4.51.7-5.35,4-1.12,4.38-4.82,6.18-9.24,5.52-5.25-.78-7.17-4.48-7.34-9.4,3.89,1.43,2.68,8,8.42,7.9s5.16-5.85,8.08-8C1095.79,54.71,1100.56,55.22,1104.84,57.4Z" transform="translate(-275.24 -29.6)"/><path class="cls-1" d="M860.58,671.24c-.62.49-1.21,1.27-2,1.47s-1-.74-.57-1.18a9.71,9.71,0,0,1,2-1.45Z" transform="translate(-275.24 -29.6)"/><path class="cls-1" d="M1174.67,132.71A8.46,8.46,0,0,1,1171,129C1174,128.5,1175.26,129.67,1174.67,132.71Z" transform="translate(-275.24 -29.6)"/><path class="cls-1" d="M452.79,57.39c2,1.41,1,3.54,1.33,5.34a3,3,0,0,1-2.51,2.68c-1.36-.25-2.59-.5-1.27-2.29A10.45,10.45,0,0,0,452.79,57.39Z" transform="translate(-275.24 -29.6)"/><path class="cls-1" d="M1133.45,618.4c2.73-.22,5.77-1.22,6.88,2.69C1137.74,621,1135.1,621,1133.45,618.4Z" transform="translate(-275.24 -29.6)"/><path class="cls-1" d="M1161.3,484.16c-.61.42-1.24,1.13-2,1.26s-.92-.69-.46-1.18a14.88,14.88,0,0,1,2-1.48C1161,483.14,1161.11,483.52,1161.3,484.16Z" transform="translate(-275.24 -29.6)"/><path class="cls-1" d="M997.39,649.45a13.57,13.57,0,0,1-1.41-2.06,5.48,5.48,0,0,1,1.75-1.77c.86-.36,1,.45.77,1.1C998.22,647.56,997.84,648.36,997.39,649.45Z" transform="translate(-275.24 -29.6)"/><path class="cls-1" d="M1152.49,147.47c4.29-1,3.92,3.86,6.4,5.14C1154.17,154.12,1155,148.67,1152.49,147.47Z" transform="translate(-275.24 -29.6)"/><path class="cls-1" d="M526.57,666.62c-1-1.5-1.46-2-1.39-2,.52-.65,1-1.46,1.73-1.76.86-.36,1,.44.76,1.08C527.4,664.74,527,665.54,526.57,666.62Z" transform="translate(-275.24 -29.6)"/><path class="cls-1" d="M408.52,668.62c-.74,2.14-1.7,3.14-4,3.56C405.12,670.17,406.05,669.15,408.52,668.62Z" transform="translate(-275.24 -29.6)"/><path class="cls-1" d="M668.28,635.36c.16,1.44-.14,3,1.4,4-2.39,2.27-2.33,1.07-3.3-1.42C665.2,634.88,666.5,635.35,668.28,635.36Z" transform="translate(-275.24 -29.6)"/><path class="cls-1" d="M314.8,85.31c.92,2.44.86,4.66-1.35,6.44-2.38-1.37-2.08-3.18-.85-5.14Z" transform="translate(-275.24 -29.6)"/><path class="cls-1" d="M307.36,94.48c-1.44,1.5-.79,3.53-1.31,5.26-1.83-1.29-2.33-3.3-2.84-5.3Z" transform="translate(-275.24 -29.6)"/><path class="cls-1" d="M284.55,226.09c-.27-.55-.65-1.06-.55-1.18a4.8,4.8,0,0,1,1.73-1.66c.73-.28,1.11.42.65,1.06A14.77,14.77,0,0,1,284.55,226.09Z" transform="translate(-275.24 -29.6)"/><path class="cls-1" d="M447.86,64.1c-.86-1.25-1.28-1.7-1.21-1.79a5.45,5.45,0,0,1,1.65-1.75c.67-.33,1.22.15.84,1S448.36,63.12,447.86,64.1Z" transform="translate(-275.24 -29.6)"/><path class="cls-1" d="M585.08,44.22c-3.53.85-4.88-.49-4-4A9.85,9.85,0,0,1,585.08,44.22Z" transform="translate(-275.24 -29.6)"/><path class="cls-1" d="M588.17,35.37c-.5,1.92-1.41,3-3.6,3.11C585.06,36.56,586,35.52,588.17,35.37Z" transform="translate(-275.24 -29.6)"/><path class="cls-1" d="M299.39,439.66c-2.41-3.48.55-3.42,2.6-4Q300.7,437.68,299.39,439.66Z" transform="translate(-275.24 -29.6)"/><path class="cls-1" d="M1039,35.87a18.6,18.6,0,0,1,1.4,1.5,6.39,6.39,0,0,1-1.69,1.84c-.88.46-1.15-.28-.89-1A21.38,21.38,0,0,1,1039,35.87Z" transform="translate(-275.24 -29.6)"/></svg>