<svg id="Capa_17" data-name="Capa 17" xmlns="http://www.w3.org/2000/svg" viewBox="0 0 1158.07 586.33"><defs><style>.cls-1{fill:#878576;}</style></defs><title>nombres2</title><path class="cls-1" d="M1146.34,594.36a5.2,5.2,0,0,1-2.06,4.29,9.06,9.06,0,0,1-5.51,1.7q-6.64.14-13.29.14v-1.23l.73-.14a12.89,12.89,0,0,0,1.73-.38,7,7,0,0,0,1-.58,2.2,2.2,0,0,0,.61-1.47,7.31,7.31,0,0,0,.09-1.17V583.85a9.72,9.72,0,0,0-.18-2.16,4,4,0,0,0-.61-1.31,2.59,2.59,0,0,0-.94-.74,6.39,6.39,0,0,0-1.47-.54l-.76-.17v-1.24h.79l3.29,0,3,0a47.43,47.43,0,0,1,5.41.16,11.39,11.39,0,0,1,4.74,1.4,4.56,4.56,0,0,1,.59,7.05c-1,.59-2,1.17-3.08,1.74a9.64,9.64,0,0,1,4,2A5.38,5.38,0,0,1,1146.34,594.36Zm-6.53-10.7a3.78,3.78,0,0,0-1.42-3.16,5.43,5.43,0,0,0-3.57-1.09h-.56V588h.47a6.17,6.17,0,0,0,3.45-.93A3.8,3.8,0,0,0,1139.81,583.66Zm1.26,11.13a4.73,4.73,0,0,0-1.7-3.84,6.06,6.06,0,0,0-4.13-1.36h-1v6.09a3.65,3.65,0,0,0,.56,2.18,2.62,2.62,0,0,0,2.35,1,3.82,3.82,0,0,0,3.9-4.07Z" transform="translate(-145.1 -14.16)"/><path class="cls-1" d="M1183.42,598.55h-1.71c-1.37.1-2.28.14-2.72.13a10.6,10.6,0,0,1-4.15-.93,8.1,8.1,0,0,1-2.81-2.66q-.45-.65-2.38-3.7c-.81-1.3-1.38-2-1.73-2.12s-.6-.18-.78-.22a3.56,3.56,0,0,0-.69,0l-.62,0v4.72a5.87,5.87,0,0,0,.2,1.64,2.49,2.49,0,0,0,1,1.42,3.22,3.22,0,0,0,1,.45l2.07.27.81.12V599q-7,.42-14,.75v-1.24l.56-.08a4.15,4.15,0,0,0,1.49-.35,6.4,6.4,0,0,0,1.25-.71,2.58,2.58,0,0,0,.68-1.74q0-.65.09-1.32V581.15a3.38,3.38,0,0,0-.24-1.32,2.36,2.36,0,0,0-.6-.88,2.83,2.83,0,0,0-1.06-.51,6.54,6.54,0,0,0-1.38-.24l-.65-.06v-1.23l.48,0,5.62-.24,3.52-.15q4.86-.29,7.42.94a4.3,4.3,0,0,1,2.57,4.2,5.26,5.26,0,0,1-1.52,3.69,10.55,10.55,0,0,1-2,1.55l-.5.34c.36.66.73,1.31,1.09,2a23.74,23.74,0,0,0,3.23,4.35,11.34,11.34,0,0,0,2.94,2.5l1.63.79a6.49,6.49,0,0,0,1.32.39l.53.1Zm-12-16.16a3.82,3.82,0,0,0-1.65-3.32,5.71,5.71,0,0,0-3.7-.94l-.26,0v9.22h.23a6.27,6.27,0,0,0,3.59-1.3A4.43,4.43,0,0,0,1171.44,582.39Z" transform="translate(-145.1 -14.16)"/><path class="cls-1" d="M1219.37,595.41l-11.22.89v-1.24l.71-.19c.57-.16.92-.26,1-.31a1.29,1.29,0,0,0,.72-.67,2.46,2.46,0,0,0,.21-1,3.72,3.72,0,0,0-.25-1.27c-.53-1.4-1-2.81-1.58-4.22l-7,.54-1.26,4.55a2.36,2.36,0,0,0-.11.59c0,.19,0,.35,0,.46a1.92,1.92,0,0,0,.18.92,1.48,1.48,0,0,0,.46.5,3.44,3.44,0,0,0,1.14.43,5.41,5.41,0,0,0,1.42,0l.67,0v1.23c-3.51.28-7,.55-10.52.81v-1.18l.67-.1a2.21,2.21,0,0,0,1-.34,7.56,7.56,0,0,0,.85-.63,5.54,5.54,0,0,0,.71-1,6.45,6.45,0,0,0,.63-1.2l6.51-17c-.1-.37-.19-.73-.28-1.1a6.3,6.3,0,0,0,1-.54,8.85,8.85,0,0,0,.92-.73,7.59,7.59,0,0,0,1.23-1.41l.93-.08,7.65,19.42a4.36,4.36,0,0,0,1.21,1.87,5,5,0,0,0,1,.51,2.83,2.83,0,0,0,1,.26l.33,0ZM1208,585l-2.72-6.59q-1.26,3.5-2.51,7Z" transform="translate(-145.1 -14.16)"/><path class="cls-1" d="M1246.49,587.1a6.39,6.39,0,0,1-2.8,5.3,10.62,10.62,0,0,1-5.67,2.09,11.6,11.6,0,0,1-3.73-.29c-1.23-.41-2.11-.7-2.63-.86l-.62-.21c-.33-2.24-.66-4.47-1-6.71l1.29-.35c.1.32.2.64.31,1a8,8,0,0,0,2.59,4.05,5.4,5.4,0,0,0,3.94,1.57,3.56,3.56,0,0,0,2.66-1.27,4.24,4.24,0,0,0,.93-2.75q0-2-2.66-3.42c-1.67-.85-3.33-1.71-5-2.58a5.46,5.46,0,0,1-2.69-4.67,6.45,6.45,0,0,1,2.78-5.15,9.77,9.77,0,0,1,5.5-2.2,10.72,10.72,0,0,1,3.14.17,7.24,7.24,0,0,1,2,.81l.47.27-.45,5.92-1.15.08c-.08-.26-.16-.53-.25-.79a18.06,18.06,0,0,0-1.2-3.17,3.08,3.08,0,0,0-3-1.44,3.33,3.33,0,0,0-2.55,1.26,3.83,3.83,0,0,0-.76,2.41q0,1.93,2.73,3.42l5,2.63A5.79,5.79,0,0,1,1246.49,587.1Z" transform="translate(-145.1 -14.16)"/><path class="cls-1" d="M1270.47,592c-4.43.21-8.86.46-13.29.72v-1.23l.64-.12c.71-.12,1.19-.21,1.43-.28a3.38,3.38,0,0,0,1.17-.59,2.46,2.46,0,0,0,.71-1.14,8.34,8.34,0,0,0,.25-2.44V574.57a6.61,6.61,0,0,0-.18-1.61,2.21,2.21,0,0,0-.56-1.08,2.91,2.91,0,0,0-1.16-.6,4.17,4.17,0,0,0-1.6-.2l-.7,0v-1.24c4.43-.26,8.86-.51,13.29-.72v1.24l-.64,0a4.25,4.25,0,0,0-1.48.35,4.56,4.56,0,0,0-1.19.7,2.57,2.57,0,0,0-.71,1.17,5.19,5.19,0,0,0-.27,1.68v12.3a9,9,0,0,0,.22,2,2.48,2.48,0,0,0,.54,1.27,2.74,2.74,0,0,0,1.29.6l1.57.15.67.08Z" transform="translate(-145.1 -14.16)"/><path class="cls-1" d="M1303.17,583.13c-.19.86-.36,1.61-.53,2.25s-.42,1.46-.76,2.47c-.19.58-.37,1.15-.55,1.72a7.11,7.11,0,0,1-.66,1.56q-9.81,0-19.63.4v-1.24l.7-.08a4.75,4.75,0,0,0,1.41-.25,3.3,3.3,0,0,0,1.06-.58,2.93,2.93,0,0,0,.83-1.22,7.83,7.83,0,0,0,.24-2.32V573.11a3.13,3.13,0,0,0-.32-1.4,2.34,2.34,0,0,0-.73-.89,4.43,4.43,0,0,0-1-.41c-.39-.11-.92-.23-1.57-.36L1281,570v-1.23c4.34-.15,8.68-.27,13-.33v1.23l-.56.15c-.79.2-1.29.34-1.49.42a2.73,2.73,0,0,0-1.11.64,2.39,2.39,0,0,0-.49.71,5.42,5.42,0,0,0-.34,2.11v15.62l2.19,0,.93,0a13.64,13.64,0,0,0,2.35-.2,5.88,5.88,0,0,0,2.44-1,15.35,15.35,0,0,0,1.85-1.71,12.2,12.2,0,0,0,1.43-2l1-1.63Z" transform="translate(-145.1 -14.16)"/><path class="cls-1" d="M159.26,29.71l-.47-.2a4.72,4.72,0,0,0-.55-.22.94.94,0,0,0-.45,0,.45.45,0,0,0-.29.18,2.91,2.91,0,0,0-.29.37,1.15,1.15,0,0,0-.12.19L156,31.66c.3.29.61.57.91.84l-.3.46-.38-.18a16.85,16.85,0,0,1-2.66-1.59,22.39,22.39,0,0,1-3.41-2.92,19.83,19.83,0,0,1-4.56-7.37c-.75-2.41-.65-4.22.3-5.46a3.36,3.36,0,0,1,3.3-1.24,11.43,11.43,0,0,1,4.09,1.57,20.57,20.57,0,0,1,3.64,2.65c.91.84,1.66,1.58,2.24,2.23a21.59,21.59,0,0,1,1.62,2l.5.7c-.61,1-1.23,2-1.85,3q-.36-.3-.72-.63l.11-.47A5.26,5.26,0,0,0,158.4,22a8.29,8.29,0,0,0-2-2.79,7,7,0,0,0-4-2.13,3.29,3.29,0,0,0-3.15,1.47,5.37,5.37,0,0,0-.59,4.38,10.9,10.9,0,0,0,2.91,5.49,3.2,3.2,0,0,0,1.26.95c.2,0,.38-.07.55-.32l.17-.24.9-1.33a1.27,1.27,0,0,0,.24-.61,2.92,2.92,0,0,0-.08-.72,3.61,3.61,0,0,0-.62-1c-.27-.32-.52-.65-.77-1-.13-.16-.26-.31-.38-.47l.34-.5q3.22,3.21,6.44,6Z" transform="translate(-145.1 -14.16)"/><path class="cls-1" d="M183.23,37.74l-.37-.08-.5-.12a1.5,1.5,0,0,0-.83.26,3.39,3.39,0,0,0-1,1c-.1.16-.25.38-.43.68C179.07,41.23,178,43,177,44.68a3.6,3.6,0,0,1-2.71,2,6.17,6.17,0,0,1-4.49-1.31,9.19,9.19,0,0,1-3.55-4.07,4,4,0,0,1,.21-3.63q1.49-2.53,3-5.14l.11-.19a3.48,3.48,0,0,0,.3-.73,1.55,1.55,0,0,0,0-.83,2.21,2.21,0,0,0-.59-.92l-.53-.55-.31-.36c.12-.2.23-.41.35-.62C171.14,30,173.56,31.54,176,33l-.35.66-.48-.19-.94-.37a1.69,1.69,0,0,0-1,0,1.46,1.46,0,0,0-.61.46c-.18.25-.36.49-.53.74q-1.37,2.46-2.73,4.86A3.29,3.29,0,0,0,169.1,42a5.5,5.5,0,0,0,2.27,2.66,3.17,3.17,0,0,0,3,.57A6.14,6.14,0,0,0,177,42.28l2-3.94a4.63,4.63,0,0,0,.41-1,1.43,1.43,0,0,0,0-.85,2.21,2.21,0,0,0-.39-.66,6.13,6.13,0,0,0-1.07-.85l-.33-.23.35-.67q2.85,1.61,5.71,3Z" transform="translate(-145.1 -14.16)"/><path class="cls-1" d="M197,58.55q-3.1-1-6.23-2.29c.12-.25.24-.49.35-.73l.43.07.64.09a.84.84,0,0,0,.58-.22,1.63,1.63,0,0,0,.4-.55,2.43,2.43,0,0,0,.23-.82c.13-1,.25-2,.37-2.92-1.28-.48-2.57-1-3.86-1.5L188,52a2.26,2.26,0,0,0-.23.31c-.07.11-.12.2-.15.26a1.28,1.28,0,0,0-.16.59.84.84,0,0,0,.1.42,2.05,2.05,0,0,0,.48.57,3,3,0,0,0,.74.43l.38.15-.36.72c-1.94-.82-3.89-1.7-5.84-2.66.11-.23.23-.45.34-.67l.39.15a1.26,1.26,0,0,0,.63.13c.08,0,.29,0,.63-.11a2.58,2.58,0,0,0,.66-.33,4.81,4.81,0,0,0,.68-.5q4.17-3.91,8.33-8.21l.16-.73a3.72,3.72,0,0,0,.68-.08,7,7,0,0,0,.69-.23,4.33,4.33,0,0,0,1.06-.56l.52.17q-.75,6.8-1.48,13.58a2.81,2.81,0,0,0,.11,1.42,2.49,2.49,0,0,0,.4.55,1.32,1.32,0,0,0,.47.4l.19.06Zm-3.06-9c.15-1.54.29-3.08.44-4.62l-3.34,3.52C192,48.8,193,49.17,194,49.52Z" transform="translate(-145.1 -14.16)"/><path class="cls-1" d="M220.43,53.12l-.68.08,0-.39a6.63,6.63,0,0,0,.06-1.33,2.64,2.64,0,0,0-.37-1.14,2.06,2.06,0,0,0-.75-.77,4.9,4.9,0,0,0-1.31-.42l-.65-.14-4.12,9.22c-.12.26-.2.45-.26.57a8.78,8.78,0,0,0-.47,1.25,1.42,1.42,0,0,0,0,.89,1.39,1.39,0,0,0,.49.62,3.93,3.93,0,0,0,1,.54l.36.16c-.12.26-.23.52-.35.79-2.66-.6-5.31-1.25-8-2l.35-.77.41,0a3.12,3.12,0,0,0,1,0,4.83,4.83,0,0,0,1-.23,2.58,2.58,0,0,0,1.18-1.3c.14-.27.33-.66.57-1.18q2.07-4.59,4.13-9.2l-.65-.15c-.51-.11-.86-.18-1.05-.2a3.24,3.24,0,0,0-1.49.18,3.87,3.87,0,0,0-1.06.56A8.32,8.32,0,0,0,208.73,50l-.52.61-.59-.3c.84-1.55,1.69-3.11,2.53-4.68l.41.08.42.77c3.29.78,6.58,1.48,9.88,2.13l.89-.57.41.07C221.58,49.77,221,51.44,220.43,53.12Z" transform="translate(-145.1 -14.16)"/><path class="cls-1" d="M235.83,61.93a2.44,2.44,0,0,1-.11.32c-.05.11-.1.22-.14.33a19.17,19.17,0,0,1-1.09,2c-.29.47-.54.87-.76,1.18s-.5.69-.85,1.13c-3.76-.7-7.52-1.39-11.28-2.12L222,64l.42,0a2.7,2.7,0,0,0,.92,0,1.92,1.92,0,0,0,.87-.38,2.9,2.9,0,0,0,.85-.94,8.89,8.89,0,0,0,.45-.92q1.77-4,3.52-8a6.83,6.83,0,0,0,.42-1.18,1.46,1.46,0,0,0,0-.8,1,1,0,0,0-.41-.52,4.75,4.75,0,0,0-.88-.44l-.3-.11.35-.8c3.66.67,7.31,1.34,11,2-.68,1.27-1.35,2.54-2,3.81l-.69-.13.15-.48c.1-.42.16-.63.16-.64a2.14,2.14,0,0,0-.13-1.19,1.55,1.55,0,0,0-.67-.65,3.54,3.54,0,0,0-1.11-.42L232.71,52q-1.19,2.67-2.36,5.36l1.74.32a5.85,5.85,0,0,0,1.18.13,1.62,1.62,0,0,0,.67-.17,2.47,2.47,0,0,0,.53-.36,4.55,4.55,0,0,0,.54-.54l.57-.66.51.1-2.49,5.64-.62-.11.12-.73a1.66,1.66,0,0,0-.21-1.16,1.1,1.1,0,0,0-.55-.39,6,6,0,0,0-.92-.24l-1.74-.32L228,62.68a1.79,1.79,0,0,0-.09,1.76,1.89,1.89,0,0,0,1.28.63,4.73,4.73,0,0,0,2.84-.26,7.1,7.1,0,0,0,2.83-2.51l.35-.49Z" transform="translate(-145.1 -14.16)"/><path class="cls-1" d="M257.29,72.26c-2.36-.67-4.72-1.27-7.08-1.83.12-.26.24-.52.35-.78l.36,0a3.17,3.17,0,0,0,1.77-.29,1.38,1.38,0,0,0,.59-.57,9.33,9.33,0,0,0,.57-1.07c1.11-2.74,2.21-5.48,3.32-8.19-3.1,3.41-6.21,6.93-9.31,10.51l-.66-.14q.44-6,.86-11.9c-1.15,2.26-2.29,4.53-3.44,6.8l-.19.42c-.08.15-.15.31-.22.46a6.57,6.57,0,0,0-.36,1,1.25,1.25,0,0,0,0,.7,1.16,1.16,0,0,0,.41.52,2.41,2.41,0,0,0,.71.39l.37.14-.36.79c-1.84-.39-3.69-.77-5.53-1.13.13-.26.26-.53.38-.79h.35a2.51,2.51,0,0,0,.62-.1,3.27,3.27,0,0,0,.81-.37,3.54,3.54,0,0,0,.9-1L243,65c1.44-2.53,2.89-5,4.33-7.55.15-.35.31-.7.46-1a1.3,1.3,0,0,0,.13-.56,1,1,0,0,0-.1-.47,1.54,1.54,0,0,0-.44-.47,3.47,3.47,0,0,0-.52-.33l-.22-.15c.12-.26.23-.52.35-.79,1.62.36,3.23.74,4.85,1.13l-.24.54a1.29,1.29,0,0,0-.19.21,2.13,2.13,0,0,0-.16.25,3.66,3.66,0,0,0-.13.37c0,.16-.09.26-.11.31-.21,3-.43,6.08-.64,9.12q3.41-3.83,6.81-7.5a1.76,1.76,0,0,0,.36-.49,1.22,1.22,0,0,0,.1-.34,1.07,1.07,0,0,0,0-.4l.22-.47c1.74.5,3.49,1,5.23,1.61l-.35.75h-.39a7.13,7.13,0,0,0-.78,0,1.65,1.65,0,0,0-.73.23,2.31,2.31,0,0,0-.63.56,3.66,3.66,0,0,0-.45.72l-3.36,8.4a3.83,3.83,0,0,0-.29,1,1.61,1.61,0,0,0,.09.69,1.18,1.18,0,0,0,.41.55,3.7,3.7,0,0,0,.65.38l.36.18C257.52,71.74,257.4,72,257.29,72.26Z" transform="translate(-145.1 -14.16)"/><path class="cls-1" d="M277.28,79.69c-2.08-1-4.16-1.91-6.24-2.76l.36-.72.43.08.64.11a.78.78,0,0,0,.57-.19,1.67,1.67,0,0,0,.41-.53,2.55,2.55,0,0,0,.23-.81c.12-1,.24-1.93.37-2.89q-1.94-.86-3.87-1.62l-2,2.36A2.35,2.35,0,0,0,268,73l-.15.27a1.42,1.42,0,0,0-.16.59.93.93,0,0,0,.1.42,1.92,1.92,0,0,0,.48.54,2.92,2.92,0,0,0,.75.39l.37.15c-.12.24-.23.49-.35.73q-2.92-1.12-5.85-2.08c.12-.24.23-.48.34-.72l.39.09a1.25,1.25,0,0,0,.64,0l.63-.19a3.31,3.31,0,0,0,.65-.4,4.72,4.72,0,0,0,.69-.57c2.77-2.86,5.55-5.61,8.32-8.22l.17-.71a3.7,3.7,0,0,0,.67,0c.21,0,.44-.08.69-.14a4.25,4.25,0,0,0,1.07-.42l.51.25q-.74,6.67-1.48,13.37a3,3,0,0,0,.11,1.43,3.21,3.21,0,0,0,.4.6,1.58,1.58,0,0,0,.47.46l.19.09Zm-3.06-9.36c.14-1.53.29-3.06.43-4.58-1.11,1.09-2.23,2.21-3.34,3.34C272.28,69.49,273.25,69.9,274.22,70.33Z" transform="translate(-145.1 -14.16)"/><path class="cls-1" d="M297.7,86.91c-.35.33-.66.61-.94.84s-.65.52-1.13.87l-.79.61a4.13,4.13,0,0,1-.81.5,108.65,108.65,0,0,0-10.91-7l.35-.67.41.2a3.34,3.34,0,0,0,.84.33,2,2,0,0,0,.75.06,1.59,1.59,0,0,0,.8-.36,4.36,4.36,0,0,0,.79-1.14c1.22-2.24,2.43-4.44,3.65-6.6a1.87,1.87,0,0,0,.22-.84,1.55,1.55,0,0,0-.15-.73,3,3,0,0,0-.42-.61c-.18-.2-.44-.47-.76-.78l-.31-.29.36-.63q3.62,2.37,7.23,5.19l-.36.59-.35-.17c-.49-.24-.8-.39-.94-.44a1.61,1.61,0,0,0-.79-.15,1.09,1.09,0,0,0-.47.14,2.36,2.36,0,0,0-.79.91q-2.24,3.9-4.47,8l1.21.79.52.34a11.66,11.66,0,0,0,1.35.81,4.4,4.4,0,0,0,1.64.47,10.54,10.54,0,0,0,1.51-.09,6,6,0,0,0,1.37-.37l1-.37Z" transform="translate(-145.1 -14.16)"/><path class="cls-1" d="M315.42,109.74q-3.12-3.61-6.23-6.8l.35-.51.43.35c.35.29.57.46.64.51a.79.79,0,0,0,.57.18.68.68,0,0,0,.41-.28,1.43,1.43,0,0,0,.23-.66c.12-.88.25-1.77.37-2.65q-1.94-2.1-3.86-4c-.66.38-1.32.77-2,1.18a1,1,0,0,0-.23.19,1.5,1.5,0,0,0-.14.18.86.86,0,0,0-.17.5,1.12,1.12,0,0,0,.11.47,3.45,3.45,0,0,0,.48.83,6.62,6.62,0,0,0,.74.83c.12.13.25.25.37.37l-.35.52c-2-1.91-3.89-3.7-5.84-5.38.11-.18.22-.36.34-.54.13.1.26.2.38.31a2.21,2.21,0,0,0,.64.38l.63.16a2.38,2.38,0,0,0,.66,0,2.81,2.81,0,0,0,.68-.18A57.12,57.12,0,0,1,313,92.5l.16-.61a6,6,0,0,0,.67.42,6.57,6.57,0,0,0,.7.33,4,4,0,0,0,1.06.29l.51.61q-.74,6.17-1.48,12.36a3.74,3.74,0,0,0,.11,1.51,8.55,8.55,0,0,0,.4.87,3.93,3.93,0,0,0,.48.78l.18.22Zm-3.06-11.39c.14-1.44.29-2.88.43-4.31-1.11.37-2.22.78-3.34,1.23C310.42,96.26,311.39,97.29,312.36,98.35Z" transform="translate(-145.1 -14.16)"/></svg>