<svg id="Capa_17" data-name="Capa 17" xmlns="http://www.w3.org/2000/svg" viewBox="0 0 644.5 504.13"><defs><style>.cls-1{fill:#878576;}</style></defs><title>nombres</title><path class="cls-1" d="M625.28,335.63l-.64.1a1.56,1.56,0,0,0-.76.28,6.43,6.43,0,0,0-.79.67,4.14,4.14,0,0,0-.75,1.94,26.76,26.76,0,0,0-.4,5v14l-1.29.9q-8.11-8-16.23-16.11l0,6.65c0,.93.06,2.2.18,3.78a9.89,9.89,0,0,0,.55,3.12,2.47,2.47,0,0,0,1.37,1.12,7.43,7.43,0,0,0,2.16.4l.7.05v1.24c-3.7.32-7.4.62-11.1.87v-1.23l.78-.17a5.06,5.06,0,0,0,1.6-.55,2.2,2.2,0,0,0,1-.9,8.28,8.28,0,0,0,.49-1.75,13.25,13.25,0,0,0,.25-2.65l.42-10.55a5.94,5.94,0,0,0-.17-1.11,3.45,3.45,0,0,0-1.33-1.89,4.19,4.19,0,0,0-1.33-.45c-.62-.13-1.06-.22-1.32-.26l-.36-.06v-1.23q3.62-.25,7.25-.55,7.38,7.49,14.76,14.81-.15-5.29-.31-10.59a6,6,0,0,0-.29-1.93,2.46,2.46,0,0,0-.91-1.3,5.7,5.7,0,0,0-1.29-.51,4.36,4.36,0,0,0-1.6-.17l-.73.07v-1.24c3.38-.32,6.77-.67,10.15-1.05Z" transform="translate(-442.53 -135.44)"/><path class="cls-1" d="M662.72,330.85l-.59.23-.81.31a2.94,2.94,0,0,0-1,1.1,6.31,6.31,0,0,0-.65,2.22c0,.31-.08.74-.12,1.31L659,346a7.57,7.57,0,0,1-2.27,5.4,11.29,11.29,0,0,1-6.9,3.21q-4.93.66-7.51-1.17a5.84,5.84,0,0,1-2.39-5.09v-10.7a6.05,6.05,0,0,0-.14-1.32,2.12,2.12,0,0,0-.6-1.12,2.42,2.42,0,0,0-1.43-.55l-1.08-.12-.67-.11v-1.24q6.53-.8,13.07-1.67v1.24l-.79.24-1.54.49a3.4,3.4,0,0,0-1.38,1.07,3.49,3.49,0,0,0-.47,1.27c-.06.54-.11,1.06-.17,1.57v9.52a4.74,4.74,0,0,0,1.79,4,6.45,6.45,0,0,0,4.91.94,5.91,5.91,0,0,0,4.46-2.55q1.38-2.12,1.38-6.51-.09-3.56-.17-7.13a7.42,7.42,0,0,0-.18-1.73,2,2,0,0,0-.65-1.11,2.79,2.79,0,0,0-1-.5,8.28,8.28,0,0,0-2.11-.07l-.62,0v-1.23l10.26-1.43Z" transform="translate(-442.53 -135.44)"/><path class="cls-1" d="M694.81,339.89a2.34,2.34,0,0,1,.05.47v.51a20.91,20.91,0,0,1-.33,3.19c-.14.77-.27,1.41-.4,1.94a19.11,19.11,0,0,1-.59,1.9q-10.14,1.5-20.3,3v-1.23l.73-.16a6.54,6.54,0,0,0,1.57-.42,3.11,3.11,0,0,0,1.16-.94,3.44,3.44,0,0,0,.72-1.67,10.24,10.24,0,0,0,.08-1.45V332.75a7.44,7.44,0,0,0-.17-1.76,2.08,2.08,0,0,0-.54-1.07,2.12,2.12,0,0,0-1.07-.47,10.56,10.56,0,0,0-1.78-.13h-.59v-1.24q9.85-1.44,19.72-2.91l-.56,6.06-1.24.18c0-.23-.07-.47-.11-.71-.13-.6-.2-.9-.2-.92a3,3,0,0,0-1.09-1.5,3.4,3.4,0,0,0-1.58-.51,7.74,7.74,0,0,0-2.15,0l-3.84.57v8.24l3.14-.46a13.31,13.31,0,0,0,2.06-.43,3,3,0,0,0,1-.57,3.59,3.59,0,0,0,.63-.74,6.75,6.75,0,0,0,.51-1l.45-1.17.92-.13v8.69l-1.12.17c-.11-.34-.22-.68-.34-1a2.5,2.5,0,0,0-1.2-1.42,2.66,2.66,0,0,0-1.19-.23,14.92,14.92,0,0,0-1.7.15l-3.14.47v5.95a2.34,2.34,0,0,0,1.15,2.35,4.47,4.47,0,0,0,2.58.18,9.24,9.24,0,0,0,4.54-1.8,8.68,8.68,0,0,0,2.86-4.74l.23-.82Z" transform="translate(-442.53 -135.44)"/><path class="cls-1" d="M731.32,321l-.67.28a7.11,7.11,0,0,0-1.07.53,5.14,5.14,0,0,0-.92.77,5.36,5.36,0,0,0-.65.84,5.93,5.93,0,0,0-.59,1.12q-4.26,10.24-8.52,20.53l-1.71-.3q-4-8.83-8.05-17.66c-.06-.14-.12-.29-.2-.45a3.77,3.77,0,0,0-1-1.28,3.07,3.07,0,0,0-.79-.44,6.37,6.37,0,0,0-1-.23l-.64-.1v-1.29q6-.87,12-1.7v1.23l-.68.24-1.4.47a1.68,1.68,0,0,0-.95.87,1.79,1.79,0,0,0-.14.8,3.14,3.14,0,0,0,.07.68,1.1,1.1,0,0,0,.12.41q2.64,6,5.27,12.09,2.25-6.4,4.49-12.81a5.24,5.24,0,0,0,.37-1.68,1.13,1.13,0,0,0-.68-1.14,5.64,5.64,0,0,0-1.22-.41,3.62,3.62,0,0,0-1.19,0l-.73.1v-1.29c3.5-.48,7-.95,10.49-1.4Z" transform="translate(-442.53 -135.44)"/><path class="cls-1" d="M767.42,338.68q-5.61.46-11.22,1v-1.24l.7-.21c.58-.17.92-.28,1-.33a1.31,1.31,0,0,0,.71-.68,2.53,2.53,0,0,0,.21-1,3.45,3.45,0,0,0-.25-1.27c-.52-1.4-1.05-2.79-1.57-4.19l-7,.72-1.26,4.59a3.84,3.84,0,0,0-.11.59c0,.2,0,.35,0,.47a1.91,1.91,0,0,0,.18.91,1.28,1.28,0,0,0,.47.48,3.25,3.25,0,0,0,1.13.4,5.59,5.59,0,0,0,1.42,0l.67-.07v1.23c-3.5.37-7,.77-10.52,1.18v-1.18l.68-.13a2.32,2.32,0,0,0,1-.38c.11-.07.39-.29.84-.67a4.66,4.66,0,0,0,.71-1,7.38,7.38,0,0,0,.64-1.23q3.24-8.61,6.5-17.18l-.28-1.09a6,6,0,0,0,1-.57,8,8,0,0,0,.91-.75,7.1,7.1,0,0,0,1.23-1.44l.93-.1,7.66,19.3a4.24,4.24,0,0,0,1.2,1.85,4.69,4.69,0,0,0,1,.5,2.5,2.5,0,0,0,1,.25l.34,0Zm-11.33-10.25-2.73-6.53L750.85,329C752.6,328.78,754.34,328.6,756.09,328.43Z" transform="translate(-442.53 -135.44)"/><path class="cls-1" d="M589.81,388.42l-.71.35a7.85,7.85,0,0,0-.78.42,2,2,0,0,0-.53.57,1.35,1.35,0,0,0-.2.66,7,7,0,0,0-.06.9v4.2l1.63-.08v1l-.56.28a24.25,24.25,0,0,1-4.07,1.56,22.17,22.17,0,0,1-5.72,1c-4.11.13-7.41-.91-9.88-3.05a10.45,10.45,0,0,1-3.72-8.26,11,11,0,0,1,2.32-7,13.39,13.39,0,0,1,5.4-3.88,16.72,16.72,0,0,1,5.93-1.32,27.11,27.11,0,0,1,4.2.14,19.59,19.59,0,0,1,3.35.74l1.12.34v6.48l-1.28.06-.23-.8a6.91,6.91,0,0,0-2.85-3.92,7.27,7.27,0,0,0-4.32-1.22,7.66,7.66,0,0,0-5.93,2.7,10.21,10.21,0,0,0-2.19,6.82,10.67,10.67,0,0,0,2.63,7.11,8.48,8.48,0,0,0,7,3.21,3.11,3.11,0,0,0,2-.55,1.68,1.68,0,0,0,.37-1.25V392a2.94,2.94,0,0,0-.2-1.19,3.42,3.42,0,0,0-.61-.88,2.78,2.78,0,0,0-1.42-.54c-.52-.08-1-.16-1.53-.26l-.76-.09v-1.2q5.79-.18,11.59-.49Z" transform="translate(-442.53 -135.44)"/><path class="cls-1" d="M626.82,395.85l-1.71.07c-1.36.15-2.27.23-2.72.24a10.25,10.25,0,0,1-4.15-.77,7.69,7.69,0,0,1-2.8-2.56q-.45-.63-2.39-3.61c-.8-1.28-1.37-2-1.72-2.06s-.61-.17-.79-.2a3,3,0,0,0-.68,0l-.62.06v4.72a5.82,5.82,0,0,0,.2,1.64,2.39,2.39,0,0,0,1,1.38,3,3,0,0,0,1,.41c.08,0,.77.08,2.08.2l.81.09v1.29q-7,.67-14,1.19V396.7l.56-.1a4.51,4.51,0,0,0,1.49-.39,6.56,6.56,0,0,0,1.24-.75,2.59,2.59,0,0,0,.69-1.76c0-.43,0-.87.08-1.33V379.25a3.45,3.45,0,0,0-.23-1.31,2.3,2.3,0,0,0-.61-.87,2.71,2.71,0,0,0-1.05-.48,7.28,7.28,0,0,0-1.39-.2l-.64,0v-1.23l.47,0,5.63-.4,3.52-.26c3.23-.29,5.71-.07,7.42.69a4.1,4.1,0,0,1,2.56,4.1,5.42,5.42,0,0,1-1.51,3.74,10.84,10.84,0,0,1-2,1.64l-.51.35,1.1,1.92a22.36,22.36,0,0,0,3.22,4.23,10.86,10.86,0,0,0,3,2.38l1.62.73a7.06,7.06,0,0,0,1.32.33l.53.08Zm-12-15.7a3.67,3.67,0,0,0-1.66-3.26,5.6,5.6,0,0,0-3.7-.81l-.25,0v9.23l.22,0a6.5,6.5,0,0,0,3.59-1.42A4.61,4.61,0,0,0,614.85,380.15Z" transform="translate(-442.53 -135.44)"/><path class="cls-1" d="M662.78,390.81l-11.22,1.56v-1.23l.7-.24c.58-.19.93-.31,1-.36a1.39,1.39,0,0,0,.71-.72,2.54,2.54,0,0,0,.21-1,3.32,3.32,0,0,0-.25-1.25c-.52-1.38-1-2.76-1.57-4.14l-6.95.93c-.42,1.54-.84,3.08-1.27,4.61a4.21,4.21,0,0,0-.11.6c0,.2,0,.35,0,.46a1.74,1.74,0,0,0,.19.91,1.16,1.16,0,0,0,.46.47,3,3,0,0,0,1.14.38,5.26,5.26,0,0,0,1.41,0l.67-.08v1.23c-3.5.47-7,.92-10.51,1.35V393l.67-.14a2.27,2.27,0,0,0,1-.38c.11-.07.39-.3.84-.68a4.83,4.83,0,0,0,.72-1,6.87,6.87,0,0,0,.63-1.24q3.26-8.64,6.5-17.31c-.09-.36-.18-.72-.28-1.08a6.93,6.93,0,0,0,1-.59,11.6,11.6,0,0,0,.91-.78,7.79,7.79,0,0,0,1.24-1.49l.92-.12q3.83,9.5,7.66,19a4.11,4.11,0,0,0,1.2,1.79,4.21,4.21,0,0,0,1,.44,2.78,2.78,0,0,0,1,.2l.34-.05Zm-11.33-9.73-2.73-6.43c-.83,2.38-1.67,4.76-2.5,7.13Z" transform="translate(-442.53 -135.44)"/><path class="cls-1" d="M700.39,363.7l-.65.13a1.74,1.74,0,0,0-.76.3,7.39,7.39,0,0,0-.78.71,4.23,4.23,0,0,0-.76,2,26.42,26.42,0,0,0-.39,5v14l-1.29.95-16.24-15.2,0,6.65c0,.93.06,2.19.19,3.77a9.89,9.89,0,0,0,.54,3.08,2.23,2.23,0,0,0,1.38,1,7.2,7.2,0,0,0,2.16.27h.7v1.23l-11.11,1.64v-1.24l.79-.23a5.27,5.27,0,0,0,1.6-.67,2.43,2.43,0,0,0,1-1,8.22,8.22,0,0,0,.49-1.79,13.51,13.51,0,0,0,.26-2.67l.42-10.58a6.94,6.94,0,0,0-.17-1.1,3.13,3.13,0,0,0-1.34-1.79,3.79,3.79,0,0,0-1.32-.35c-.63-.09-1.07-.14-1.33-.16l-.36,0v-1.24l7.26-1.06,14.76,14q-.17-5.3-.31-10.59a5.82,5.82,0,0,0-.3-1.9,2.19,2.19,0,0,0-.91-1.26,4.48,4.48,0,0,0-1.29-.45,4.23,4.23,0,0,0-1.6-.1l-.73.11V364l10.16-1.49Z" transform="translate(-442.53 -135.44)"/><path class="cls-1" d="M736.51,380.34q-5.61.69-11.22,1.45v-1.24l.7-.23c.58-.19.93-.31,1-.36a1.4,1.4,0,0,0,.72-.72,2.5,2.5,0,0,0,.21-1,3.42,3.42,0,0,0-.26-1.26c-.52-1.38-1-2.76-1.57-4.14l-7,.94-1.26,4.63a2.94,2.94,0,0,0-.12.59,4.47,4.47,0,0,0,0,.47,1.84,1.84,0,0,0,.18.9,1.16,1.16,0,0,0,.46.47,3.06,3.06,0,0,0,1.14.37,6.24,6.24,0,0,0,1.41,0l.68-.1v1.24q-5.26.72-10.52,1.47v-1.19l.67-.14a2.44,2.44,0,0,0,1-.4c.11-.08.39-.31.84-.7a5,5,0,0,0,.72-1,6.87,6.87,0,0,0,.63-1.24q3.25-8.7,6.51-17.37c-.1-.36-.19-.72-.29-1.08a6.13,6.13,0,0,0,1-.6,7.6,7.6,0,0,0,.91-.78,8,8,0,0,0,1.24-1.48l.92-.13q3.84,9.51,7.66,19a4.11,4.11,0,0,0,1.21,1.81,4.62,4.62,0,0,0,1,.46,2.89,2.89,0,0,0,1,.21l.34,0Zm-11.33-9.84-2.73-6.43-2.5,7.14Z" transform="translate(-442.53 -135.44)"/><path class="cls-1" d="M773.17,365.26a11.18,11.18,0,0,1-4.1,8.85,15,15,0,0,1-8.61,3.59q-6.68.63-13.35,1.39v-1.24l.7-.08a5.12,5.12,0,0,0,1.82-.56,3.76,3.76,0,0,0,1.25-.92,2.54,2.54,0,0,0,.47-1.15,10,10,0,0,0,.11-1.5V361.12a10.5,10.5,0,0,0-.09-1.09,3.07,3.07,0,0,0-.59-1.65,2.7,2.7,0,0,0-2-.77l-1.51-.11v-1.23l.48-.06c1.21-.13,2.19-.25,2.94-.35,3.76-.5,5.89-.75,6.39-.8,4.85-.48,8.62,0,11.31,1.43Q773.17,359,773.17,365.26Zm-5.53.83a9.12,9.12,0,0,0-3.35-7.61,9.67,9.67,0,0,0-7.19-1.91l-.85.09v17a2.18,2.18,0,0,0,1.3,2.17,4.91,4.91,0,0,0,2.56.31,7.4,7.4,0,0,0,5.56-3.32A11.47,11.47,0,0,0,767.64,366.09Z" transform="translate(-442.53 -135.44)"/><path class="cls-1" d="M809.17,375.2q-5.59,0-11.21.15v-1.23l.7-.16c.58-.13.92-.21,1-.25a1.2,1.2,0,0,0,.71-.63,2.38,2.38,0,0,0,.21-1,3.55,3.55,0,0,0-.25-1.28c-.53-1.44-1-2.88-1.57-4.31-2.32,0-4.64.13-7,.22l-1.26,4.5a2.83,2.83,0,0,0-.11.58c0,.2,0,.35,0,.46a1.92,1.92,0,0,0,.18.92,1.46,1.46,0,0,0,.46.52,3.55,3.55,0,0,0,1.14.48,6.11,6.11,0,0,0,1.42.1l.67,0v1.23c-3.51.12-7,.28-10.52.47v-1.18l.68-.09a2.2,2.2,0,0,0,1-.31,10.39,10.39,0,0,0,.84-.62,4.57,4.57,0,0,0,.71-.93,6.42,6.42,0,0,0,.63-1.19q3.26-8.39,6.51-16.73c-.09-.37-.19-.74-.28-1.11a6.3,6.3,0,0,0,1-.5,8.1,8.1,0,0,0,.91-.69,6.59,6.59,0,0,0,1.23-1.35l.93,0q3.83,9.92,7.66,19.89a4.7,4.7,0,0,0,1.2,2,5.27,5.27,0,0,0,1,.58,2.81,2.81,0,0,0,1,.34h.33Zm-11.33-11.15q-1.35-3.36-2.72-6.72c-.84,2.29-1.67,4.59-2.51,6.89C794.36,364.15,796.1,364.1,797.84,364.05Z" transform="translate(-442.53 -135.44)"/><path class="cls-1" d="M836,154l-.7-.22a6.71,6.71,0,0,0-1.14-.28,3.9,3.9,0,0,0-1.08,0,3.37,3.37,0,0,0-.86.25,3,3,0,0,0-.9.52q-7.23,5.56-14.46,10.12l-1.44-1.72q-.69-10.52-1.37-21a5.13,5.13,0,0,0,0-.53,6.4,6.4,0,0,0-.45-1.89,8,8,0,0,0-.56-1c-.22-.33-.5-.7-.83-1.1l-.55-.66c.15-.34.29-.67.43-1q5.65,4.77,11.3,8.87c-.13.34-.27.68-.41,1l-.68-.35-1.41-.76a1.22,1.22,0,0,0-1.14-.09,1,1,0,0,0-.4.53,2.63,2.63,0,0,0-.16.6,1.47,1.47,0,0,0,0,.45q.36,7.06.73,14.14,4.14-3.32,8.27-7a2.91,2.91,0,0,0,.88-1.13,1.49,1.49,0,0,0-.22-1.46,11.69,11.69,0,0,0-1-1.26,6.06,6.06,0,0,0-1.07-.93l-.69-.48c.15-.35.29-.71.43-1.07q4.95,3.45,9.9,6.43C836.25,153.34,836.12,153.69,836,154Z" transform="translate(-442.53 -135.44)"/><path class="cls-1" d="M861.84,181.57a2,2,0,0,1-.1.46l-.17.47a18,18,0,0,1-1.36,2.77c-.37.64-.7,1.16-1,1.58a17.09,17.09,0,0,1-1.16,1.43,178,178,0,0,1-19.16-9.64c.14-.36.27-.72.41-1.07l.71.34a6.06,6.06,0,0,0,1.54.68,2.32,2.32,0,0,0,1.35-.07,2.19,2.19,0,0,0,1.2-1,7.1,7.1,0,0,0,.55-1.22q2-5.43,4.06-10.92a7,7,0,0,0,.43-1.67,2.54,2.54,0,0,0-.13-1.29,3.11,3.11,0,0,0-.8-1.07,14.71,14.71,0,0,0-1.55-1.2l-.53-.37c.14-.36.28-.73.41-1.09A178.52,178.52,0,0,0,865.16,167c-.84,1.8-1.67,3.58-2.51,5.36l-1.16-.47c0-.24.09-.48.13-.72.08-.62.13-.94.13-.95a3.81,3.81,0,0,0-.48-2A4.51,4.51,0,0,0,860,167a9.67,9.67,0,0,0-1.93-1.12c-1.21-.52-2.42-1.06-3.63-1.61q-1.35,3.75-2.72,7.47c1,.47,2,.93,3,1.38a11.21,11.21,0,0,0,2,.75,2.25,2.25,0,0,0,1.06,0,3,3,0,0,0,.81-.33,4.5,4.5,0,0,0,.78-.64c.26-.28.52-.56.79-.83l.87.36q-1.44,4-2.88,8l-1.06-.46,0-1.12a3.33,3.33,0,0,0-.61-2,3.29,3.29,0,0,0-1-.87,17,17,0,0,0-1.57-.82c-1-.45-2-.92-3-1.4-.66,1.79-1.31,3.57-2,5.34a2.87,2.87,0,0,0,.25,2.8,5.64,5.64,0,0,0,2.25,1.69,8.06,8.06,0,0,0,4.66,1,6.38,6.38,0,0,0,4.13-2.81l.47-.64Z" transform="translate(-442.53 -135.44)"/><path class="cls-1" d="M901.86,178.43l-.62-.09a1.59,1.59,0,0,0-.78,0,7.25,7.25,0,0,0-.93.44,4.59,4.59,0,0,0-1.33,1.7,29.83,29.83,0,0,0-2,4.84q-2.33,6.94-4.65,13.84l-1.47.46q-4.74-10.47-9.49-21.16l-2.23,6.39c-.31.9-.67,2.13-1.08,3.7a10.34,10.34,0,0,0-.53,3.18,2.57,2.57,0,0,0,.89,1.58,6.88,6.88,0,0,0,1.84,1.18l.62.3c-.13.39-.27.79-.4,1.19-3.5-1-7-2.15-10.48-3.39.13-.38.27-.77.4-1.16l.78.15a4.44,4.44,0,0,0,1.65.11,2,2,0,0,0,1.19-.48,8.63,8.63,0,0,0,1-1.48,13.36,13.36,0,0,0,1.11-2.44q1.93-5,3.88-10a6.38,6.38,0,0,0,.21-1.12,3.74,3.74,0,0,0-.6-2.29,4.47,4.47,0,0,0-1.07-.9q-.79-.52-1.14-.72l-.31-.19c.14-.39.27-.78.41-1.18q3.42,1.07,6.85,2,4.27,9.74,8.57,19.29,1.62-5.25,3.23-10.54a6.81,6.81,0,0,0,.36-2,2.46,2.46,0,0,0-.4-1.56,4.64,4.64,0,0,0-1-.9,4,4,0,0,0-1.4-.67l-.69-.15c.14-.41.28-.81.41-1.22,3.19.73,6.39,1.39,9.58,2C902.13,177.62,902,178,901.86,178.43Z" transform="translate(-442.53 -135.44)"/><path class="cls-1" d="M927.74,196.91a2.33,2.33,0,0,1-.1.5l-.17.51a24.78,24.78,0,0,1-1.36,3.17c-.37.74-.7,1.37-1,1.86s-.68,1.1-1.16,1.79c-6.39-.81-12.77-1.74-19.16-2.89.14-.41.27-.82.41-1.23l.71.06a5.24,5.24,0,0,0,1.54.08,3.15,3.15,0,0,0,1.35-.59,4,4,0,0,0,1.2-1.47,12.21,12.21,0,0,0,.55-1.43q2-6.18,4.06-12.39a8.67,8.67,0,0,0,.43-1.82,2.26,2.26,0,0,0-.13-1.24,1.9,1.9,0,0,0-.8-.79,9.78,9.78,0,0,0-1.55-.65l-.53-.17c.14-.41.28-.83.41-1.24,6.2,1,12.4,1.75,18.61,2.46-.84,2-1.67,4-2.51,6l-1.16-.14.13-.76c.08-.64.12-1,.13-1a3.12,3.12,0,0,0-.48-1.81,2.89,2.89,0,0,0-1.25-.94,6.27,6.27,0,0,0-1.93-.55l-3.62-.48-2.73,8.36,3,.41a10.11,10.11,0,0,0,2,.13,2.68,2.68,0,0,0,1.06-.31,3.81,3.81,0,0,0,.81-.58,7.11,7.11,0,0,0,.78-.87c.26-.35.52-.71.79-1.06l.87.11L924,196.84l-1.06-.13c0-.38,0-.75,0-1.13a2.55,2.55,0,0,0-.61-1.77,2.15,2.15,0,0,0-1-.56,9.89,9.89,0,0,0-1.57-.31l-3-.42c-.66,2-1.32,4-2,6a2.59,2.59,0,0,0,.25,2.71,3.75,3.75,0,0,0,2.25.92,8.15,8.15,0,0,0,4.66-.56,10,10,0,0,0,4.13-4.05c.15-.26.31-.52.47-.78Z" transform="translate(-442.53 -135.44)"/><path class="cls-1" d="M959.66,197.92c-.71,1.69-1.19,2.81-1.44,3.35s-.58,1.21-1,2a38.21,38.21,0,0,1-3,4.77c-6.1-.62-12.2-1.23-18.29-1.89l-.51-.8c.09-.26.19-.53.28-.8,5.8-5.31,11.6-10.68,17.4-16l2.64-2.41L955,186c-.29-.05-.76-.11-1.41-.17a32.24,32.24,0,0,0-3.77-.18,6,6,0,0,0-2.61.54,10.14,10.14,0,0,0-2.31,1.67,27.23,27.23,0,0,0-2.18,2.69l-.76,1-1.09-.41c1.16-2.74,2.33-5.49,3.5-8.23,5.74.59,11.48,1.16,17.23,1.77.37.08.58.2.61.35a1.06,1.06,0,0,1,0,.52,1.16,1.16,0,0,1-.45.6q-7.8,7.31-15.61,14.68l-3.91,3.64.41.09.65.08a39.56,39.56,0,0,0,4,.23,12.74,12.74,0,0,0,3.79-.42,12.34,12.34,0,0,0,3.42-1.7,27.39,27.39,0,0,0,3.23-3.83l1-1.38Z" transform="translate(-442.53 -135.44)"/><path class="cls-1" d="M998.72,191.26l-.6,0-.84.05a2.85,2.85,0,0,0-1.25.77,6.84,6.84,0,0,0-1.33,2c-.14.29-.31.72-.53,1.27q-1.92,4.89-3.83,9.81a8.66,8.66,0,0,1-3.83,4.77,10.74,10.74,0,0,1-7.26,1.35c-3.11-.43-5.23-1.45-6.38-3.12s-1.21-3.46-.46-5.77l3.42-10.52.12-.37a8.67,8.67,0,0,0,.31-1.38,2.27,2.27,0,0,0-.18-1.28A2,2,0,0,0,975,188l-.93-.39-.57-.27c.13-.42.27-.84.41-1.26q6.17.76,12.33,1.71L985.8,189l-.79,0-1.55.06a3.48,3.48,0,0,0-1.59.72A4.19,4.19,0,0,0,981,191l-.67,1.55q-1.58,4.82-3.15,9.66a5.16,5.16,0,0,0,.29,4.53,5.42,5.42,0,0,0,4.1,2.26,5.66,5.66,0,0,0,4.85-1.33q1.93-1.76,3.39-6.15l2.21-7.22a8.55,8.55,0,0,0,.41-1.79,2.05,2.05,0,0,0-.21-1.3,2.59,2.59,0,0,0-.77-.81,6.94,6.94,0,0,0-1.88-.71l-.56-.15c.14-.41.27-.83.41-1.24,3.23.53,6.46,1.11,9.69,1.76Z" transform="translate(-442.53 -135.44)"/><path class="cls-1" d="M1024.45,212.42a2,2,0,0,1-.11.47c0,.16-.11.32-.17.48a20.61,20.61,0,0,1-1.35,2.9q-.55,1-1,1.68c-.29.45-.68,1-1.16,1.58-6.39-1.93-12.78-3.51-19.16-4.85.13-.4.27-.81.4-1.22l.71.09a5.17,5.17,0,0,0,1.54.14,2.91,2.91,0,0,0,1.36-.51,3.66,3.66,0,0,0,1.19-1.39,10.21,10.21,0,0,0,.55-1.39q2-6,4.07-12a8.72,8.72,0,0,0,.43-1.78,2.32,2.32,0,0,0-.14-1.25,2.09,2.09,0,0,0-.79-.87,10.85,10.85,0,0,0-1.55-.8l-.53-.22c.13-.4.27-.8.41-1.21,6.2,1.51,12.4,3.29,18.6,5.42-.84,1.82-1.67,3.65-2.51,5.49l-1.16-.38.13-.73c.09-.63.13-.95.14-1a3.73,3.73,0,0,0-.49-1.91,3.67,3.67,0,0,0-1.25-1.18,7.33,7.33,0,0,0-1.92-.91c-1.21-.36-2.42-.72-3.63-1.06l-2.73,8c1,.26,2,.54,3,.82a11.63,11.63,0,0,0,2,.44,2.43,2.43,0,0,0,1.07-.13,3.5,3.5,0,0,0,.81-.44,6.22,6.22,0,0,0,.77-.73c.27-.3.53-.61.79-.91l.87.27c-1,2.77-1.91,5.54-2.87,8.32l-1.06-.31,0-1.12a2.92,2.92,0,0,0-.61-1.88,2.63,2.63,0,0,0-1-.71,9.93,9.93,0,0,0-1.56-.55l-3-.81-2,5.79a2.7,2.7,0,0,0,.25,2.74,4.42,4.42,0,0,0,2.25,1.18,8.36,8.36,0,0,0,4.66.11,7.85,7.85,0,0,0,4.13-3.32l.47-.69Z" transform="translate(-442.53 -135.44)"/><path class="cls-1" d="M1055.28,225.44c-.46.66-.87,1.23-1.24,1.7s-.88,1.08-1.53,1.81c-.37.42-.73.84-1.09,1.27a7.11,7.11,0,0,1-1.14,1.07,178.58,178.58,0,0,0-18.52-8c.13-.39.27-.78.4-1.16l.68.19a4.64,4.64,0,0,0,1.4.31,2.86,2.86,0,0,0,1.18-.12,2.57,2.57,0,0,0,1.18-.79,7.44,7.44,0,0,0,1-2.05q2.1-5.9,4.21-11.71a3,3,0,0,0,.16-1.41,2.39,2.39,0,0,0-.39-1.14,4,4,0,0,0-.79-.82c-.33-.27-.77-.61-1.34-1l-.55-.35.41-1.14q6.14,2.58,12.28,5.73c-.14.36-.27.73-.41,1.09l-.57-.14c-.81-.21-1.32-.32-1.54-.35a2.64,2.64,0,0,0-1.25,0,2,2,0,0,0-.69.41,4.48,4.48,0,0,0-1,1.75q-2.59,7.07-5.17,14.22l2.06.91.87.39a17.68,17.68,0,0,0,2.28.88,5.9,5.9,0,0,0,2.63.22,16.62,16.62,0,0,0,2.31-.64,10.59,10.59,0,0,0,2-1.08c.48-.33,1-.64,1.44-1Z" transform="translate(-442.53 -135.44)"/><path class="cls-1" d="M1086.62,255.46q-5.3-4.47-10.59-8.35c.14-.33.27-.67.41-1l.71.37c.58.32.93.51,1,.56a.94.94,0,0,0,.88,0,1.32,1.32,0,0,0,.53-.66,3,3,0,0,0,.19-1.22l0-4.64q-3.29-2.53-6.56-4.85c-.89.94-1.78,1.9-2.67,2.86a2.55,2.55,0,0,0-.3.41l-.18.37a1.75,1.75,0,0,0-.13.9,2.18,2.18,0,0,0,.26.74,5.38,5.38,0,0,0,.9,1.16,8.7,8.7,0,0,0,1.29,1.06l.63.44-.41,1q-5-3.46-9.92-6.48l.39-1,.65.35a2.46,2.46,0,0,0,1,.37c.12,0,.45,0,1,0a3.53,3.53,0,0,0,1-.34,3.65,3.65,0,0,0,1-.59q5.8-4.94,11.59-9.22c0-.37.07-.74.11-1.11a5.86,5.86,0,0,0,1.06.34,8.79,8.79,0,0,0,1.08.15,4.68,4.68,0,0,0,1.6-.12l.88.71q.3,10.85.59,21.71a6.51,6.51,0,0,0,.49,2.48,11.54,11.54,0,0,0,.77,1.27,5.75,5.75,0,0,0,.86,1.07l.32.27Zm-6.95-17.59-.33-7.45c-1.53,1.22-3.07,2.47-4.61,3.77Q1077.19,236,1079.67,237.87Z" transform="translate(-442.53 -135.44)"/><path class="cls-1" d="M464.61,510.6a2.89,2.89,0,0,1-.21.49l-.26.49a27.32,27.32,0,0,1-2,2.95c-.51.68-.95,1.24-1.33,1.68s-.87,1-1.47,1.55q-8.46-3.94-16.85-7.21l.65-1.21.63.18a4.67,4.67,0,0,0,1.4.33,2.82,2.82,0,0,0,1.37-.38,4.18,4.18,0,0,0,1.42-1.3,12,12,0,0,0,.83-1.38q3.26-6.07,6.52-12.2a11.24,11.24,0,0,0,.81-1.83,2.93,2.93,0,0,0,.16-1.34,1.91,1.91,0,0,0-.56-1,7.52,7.52,0,0,0-1.27-1c-.14-.1-.29-.19-.44-.28l.66-1.24q8.18,3.25,16.45,7.2l-3.67,5.7-1-.49.3-.76c.22-.66.33-1,.34-1a4,4,0,0,0,0-2.07,3.16,3.16,0,0,0-.93-1.35,6,6,0,0,0-1.63-1.1l-3.21-1.42-4.39,8.21,2.62,1.14a9.74,9.74,0,0,0,1.78.64,2.29,2.29,0,0,0,1.05-.05,3.82,3.82,0,0,0,.87-.4,6.38,6.38,0,0,0,.91-.71l.95-.91.78.36q-2.33,4.31-4.64,8.58l-.94-.43.29-1.18a3.23,3.23,0,0,0-.15-2,2.31,2.31,0,0,0-.78-.85,9.33,9.33,0,0,0-1.36-.72l-2.62-1.14c-1.05,2-2.1,3.92-3.16,5.87a3.12,3.12,0,0,0-.38,2.89,3.41,3.41,0,0,0,1.84,1.48,7,7,0,0,0,4.38.6,9.05,9.05,0,0,0,4.69-3.13l.61-.69Z" transform="translate(-442.53 -135.44)"/><path class="cls-1" d="M493.09,525.12c-.71,1-1.52,1.9-2.4,2.87a39.15,39.15,0,0,1-3.1,3l-.77.09a8.54,8.54,0,0,1-2.33-.39,17.49,17.49,0,0,1-4-1.61,14.9,14.9,0,0,1-4.41-3.65,11.29,11.29,0,0,1-2.58-5.85,12.57,12.57,0,0,1,1.72-7.75,14.21,14.21,0,0,1,7.59-6.9c3.51-1.28,7.17-.88,11,1.28a16.21,16.21,0,0,1,2.94,2.09,11.43,11.43,0,0,1,2.21,2.78l.24.42-3.5,6.28-1-.59c.11-.38.22-.77.32-1.15a8.79,8.79,0,0,0,.17-4.86,5.5,5.5,0,0,0-2.63-3.57,6.66,6.66,0,0,0-7.12.25,13.54,13.54,0,0,0-4.88,5.26,15.71,15.71,0,0,0-2.07,8c.08,3.1,1.24,5.25,3.5,6.5a5.65,5.65,0,0,0,4.27.28,12.48,12.48,0,0,0,5.25-3c.26-.24.51-.49.76-.74Z" transform="translate(-442.53 -135.44)"/><path class="cls-1" d="M531.86,532.35l-.58-.2c-.47-.17-.74-.27-.8-.28a2.24,2.24,0,0,0-1.36.33,5.8,5.8,0,0,0-1.71,1.64c-.2.26-.46.65-.8,1.16l-5.86,9a7,7,0,0,1-4.67,3.55A9.18,9.18,0,0,1,509,546c-2.79-1.77-4.52-3.77-5.2-6.05a8,8,0,0,1,.9-6.41l5.58-9.9.2-.35a8.34,8.34,0,0,0,.6-1.35,2.94,2.94,0,0,0,.14-1.46,2.83,2.83,0,0,0-.82-1.46l-.78-.81-.46-.54.67-1.19q5.54,3.42,11.08,7c-.23.39-.45.78-.67,1.18l-.74-.3-1.46-.58a2.62,2.62,0,0,0-1.66.11,3.32,3.32,0,0,0-1.06.9l-1,1.38-5.15,9.1a6.48,6.48,0,0,0-.78,5,7.17,7.17,0,0,0,3.29,4.17,4.74,4.74,0,0,0,4.83.59q2.21-1.08,4.58-5.23,1.88-3.43,3.74-6.87a9,9,0,0,0,.8-1.77,2.68,2.68,0,0,0,.1-1.49,3.67,3.67,0,0,0-.53-1.19,8.51,8.51,0,0,0-1.6-1.53l-.49-.4.67-1.17q4.35,2.85,8.71,5.81Z" transform="translate(-442.53 -135.44)"/><path class="cls-1" d="M550.59,573.68q-4.74-3.37-9.48-6.7c.22-.38.44-.76.67-1.14l.66.28c.56.24.89.38,1,.41a1.1,1.1,0,0,0,.94-.15,2.61,2.61,0,0,0,.73-.81,4.4,4.4,0,0,0,.49-1.35q.51-2.49,1-5l-5.89-4.13-3.48,3.41a3.07,3.07,0,0,0-.41.47,5,5,0,0,0-.28.42,2.38,2.38,0,0,0-.35,1,2,2,0,0,0,.11.77,3.68,3.68,0,0,0,.68,1.15,5.43,5.43,0,0,0,1.11,1l.57.4c-.22.39-.45.77-.67,1.15q-4.46-3.09-8.9-6.12c.21-.37.42-.74.64-1.11l.6.34a1.87,1.87,0,0,0,1,.34,6.38,6.38,0,0,0,1,0,3.87,3.87,0,0,0,1.1-.43,5.8,5.8,0,0,0,1.16-.71q7.22-5.82,14.45-11.49c.13-.4.25-.8.37-1.2a5.29,5.29,0,0,0,1.07.15,9.25,9.25,0,0,0,1.14,0,6.3,6.3,0,0,0,1.76-.47l.78.56q-2.21,11.55-4.4,23.12a5.77,5.77,0,0,0,0,2.54,6,6,0,0,0,.54,1.16,3.38,3.38,0,0,0,.69.93l.28.2C551,572.92,550.82,573.3,550.59,573.68Zm-3.44-17.27,1.38-7.94-5.81,4.82Z" transform="translate(-442.53 -135.44)"/><path class="cls-1" d="M587.68,585.85A9.9,9.9,0,0,1,579.6,591a13.06,13.06,0,0,1-8.79-2.72q-5.62-4.1-11.26-8.16l.67-1.13.59.43a4.71,4.71,0,0,0,1.74.77,2.91,2.91,0,0,0,1.48.05,2.24,2.24,0,0,0,1-.72,10.73,10.73,0,0,0,.91-1.29l.15-.26.06-.1q3.3-5.54,6.59-11a11.55,11.55,0,0,0,.53-1,4,4,0,0,0,.43-1.91,3.52,3.52,0,0,0-1.14-2.13l-1.13-1.2.67-1.12.41.3c1,.76,1.86,1.37,2.5,1.82q4.83,3.4,5.47,3.89,6.12,4.58,8.18,9.31A11.44,11.44,0,0,1,587.68,585.85Zm-4.86-3.08a11.47,11.47,0,0,0,1.47-9.16,12.13,12.13,0,0,0-4.65-6.82l-.72-.53q-4.62,7.62-9.25,15.37a2.91,2.91,0,0,0-.16,2.89,5.64,5.64,0,0,0,1.85,2.08,6.23,6.23,0,0,0,6.22.87A10.61,10.61,0,0,0,582.82,582.77Z" transform="translate(-442.53 -135.44)"/><path class="cls-1" d="M618.34,607.7c-2.24,3.55-5.14,5.47-8.71,5.71a14.29,14.29,0,0,1-9.37-3.09,13.57,13.57,0,0,1-5.18-7.27,12.63,12.63,0,0,1,1.53-10.69,10.35,10.35,0,0,1,7.12-5.12c3.38-.63,6.87.43,10.46,3.1a13.93,13.93,0,0,1,5.79,8.74A11.62,11.62,0,0,1,618.34,607.7ZM613,605.5a14.94,14.94,0,0,0,2.43-7.76,7.45,7.45,0,0,0-2.86-6.56,5.49,5.49,0,0,0-6.14-.51,12.12,12.12,0,0,0-4.71,4.59,14.47,14.47,0,0,0-2.24,7.65q0,4.56,3,6.74a5.29,5.29,0,0,0,5.93.35A12,12,0,0,0,613,605.5Z" transform="translate(-442.53 -135.44)"/><path class="cls-1" d="M642.88,639.57l-1.38-1c-1.14-.75-1.9-1.27-2.25-1.55a11.15,11.15,0,0,1-2.84-3.33,9.31,9.31,0,0,1-.82-4c0-.55,0-2.09.07-4.62a6.57,6.57,0,0,0-.25-2.87c-.22-.31-.39-.54-.51-.68a3.36,3.36,0,0,0-.54-.46l-.52-.36-2.56,4a6,6,0,0,0-.72,1.52,2.89,2.89,0,0,0,.07,1.87,3.51,3.51,0,0,0,.6,1c0,.06.56.57,1.53,1.52l.59.61-.7,1.1q-5.89-4-11.78-8.06l.67-1.07c.17.09.34.18.5.28a4.2,4.2,0,0,0,1.4.62,5.61,5.61,0,0,0,1.4.17q.63,0,1.5-1.08c.25-.35.51-.72.79-1.08q3.55-5.62,7.1-11.12a3.35,3.35,0,0,0,.51-1.26,2.63,2.63,0,0,0,0-1.12,3.15,3.15,0,0,0-.58-1.09,8,8,0,0,0-1-1.1c-.17-.15-.34-.3-.5-.46.22-.34.44-.68.67-1l.4.28,4.69,3.41c1.74,1.28,2.72,2,2.92,2.13a17.46,17.46,0,0,1,5.47,5.49,4.62,4.62,0,0,1-.19,5.06,4.72,4.72,0,0,1-3.21,2.1,9.23,9.23,0,0,1-2.46,0l-.59,0-.18,2.32a26.83,26.83,0,0,0,.25,5.66,13,13,0,0,0,1,3.92c.29.56.59,1.11.88,1.66a6.67,6.67,0,0,0,.85,1.13l.37.41C643.33,638.87,643.11,639.22,642.88,639.57Zm-.91-21a4.09,4.09,0,0,0,.45-3.79,6.41,6.41,0,0,0-2.48-3.13l-.21-.15q-2.49,3.81-5,7.7l.19.13a6,6,0,0,0,3.6,1.17A4,4,0,0,0,642,618.62Z" transform="translate(-442.53 -135.44)"/></svg>