<svg id="Capa_17" data-name="Capa 17" xmlns="http://www.w3.org/2000/svg" viewBox="0 0 1158.07 625.4"><defs><style>.cls-1{fill:#878576;}</style></defs><title>nombres3</title><path class="cls-1" d="M625.28,335.63l-.64.1a1.56,1.56,0,0,0-.76.28,6.43,6.43,0,0,0-.79.67,4.14,4.14,0,0,0-.75,1.94,26.76,26.76,0,0,0-.4,5v14l-1.29.9q-8.11-8-16.23-16.11l0,6.65c0,.93.06,2.2.18,3.78a9.89,9.89,0,0,0,.55,3.12,2.47,2.47,0,0,0,1.37,1.12,7.43,7.43,0,0,0,2.16.4l.7.05v1.24c-3.7.32-7.4.62-11.1.87v-1.23l.78-.17a5.06,5.06,0,0,0,1.6-.55,2.2,2.2,0,0,0,1-.9,8.28,8.28,0,0,0,.49-1.75,13.25,13.25,0,0,0,.25-2.65l.42-10.55a5.94,5.94,0,0,0-.17-1.11,3.45,3.45,0,0,0-1.33-1.89,4.19,4.19,0,0,0-1.33-.45c-.62-.13-1.06-.22-1.32-.26l-.36-.06v-1.23q3.62-.25,7.25-.55,7.38,7.49,14.76,14.81-.15-5.29-.31-10.59a6,6,0,0,0-.29-1.93,2.46,2.46,0,0,0-.91-1.3,5.7,5.7,0,0,0-1.29-.51,4.36,4.36,0,0,0-1.6-.17l-.73.07v-1.24c3.38-.32,6.77-.67,10.15-1.05Z" transform="translate(-145.1 -14.16)"/><path class="cls-1" d="M662.72,330.85l-.59.23-.81.31a2.94,2.94,0,0,0-1,1.1,6.31,6.31,0,0,0-.65,2.22c0,.31-.08.74-.12,1.31L659,346a7.57,7.57,0,0,1-2.27,5.4,11.29,11.29,0,0,1-6.9,3.21q-4.93.66-7.51-1.17a5.84,5.84,0,0,1-2.39-5.09v-10.7a6.05,6.05,0,0,0-.14-1.32,2.12,2.12,0,0,0-.6-1.12,2.42,2.42,0,0,0-1.43-.55l-1.08-.12-.67-.11v-1.24q6.53-.8,13.07-1.67v1.24l-.79.24-1.54.49a3.4,3.4,0,0,0-1.38,1.07,3.49,3.49,0,0,0-.47,1.27c-.06.54-.11,1.06-.17,1.57v9.52a4.74,4.74,0,0,0,1.79,4,6.45,6.45,0,0,0,4.91.94,5.91,5.91,0,0,0,4.46-2.55q1.38-2.12,1.38-6.51-.09-3.56-.17-7.13a7.42,7.42,0,0,0-.18-1.73,2,2,0,0,0-.65-1.11,2.79,2.79,0,0,0-1-.5,8.28,8.28,0,0,0-2.11-.07l-.62,0v-1.23l10.26-1.43Z" transform="translate(-145.1 -14.16)"/><path class="cls-1" d="M694.81,339.89a2.34,2.34,0,0,1,.05.47v.51a20.91,20.91,0,0,1-.33,3.19c-.14.77-.27,1.41-.4,1.94a19.11,19.11,0,0,1-.59,1.9q-10.14,1.5-20.3,3v-1.23l.73-.16a6.54,6.54,0,0,0,1.57-.42,3.11,3.11,0,0,0,1.16-.94,3.44,3.44,0,0,0,.72-1.67,10.24,10.24,0,0,0,.08-1.45V332.75a7.44,7.44,0,0,0-.17-1.76,2.08,2.08,0,0,0-.54-1.07,2.12,2.12,0,0,0-1.07-.47,10.56,10.56,0,0,0-1.78-.13h-.59v-1.24q9.85-1.44,19.72-2.91l-.56,6.06-1.24.18c0-.23-.07-.47-.11-.71-.13-.6-.2-.9-.2-.92a3,3,0,0,0-1.09-1.5,3.4,3.4,0,0,0-1.58-.51,7.74,7.74,0,0,0-2.15,0l-3.84.57v8.24l3.14-.46a13.31,13.31,0,0,0,2.06-.43,3,3,0,0,0,1-.57,3.59,3.59,0,0,0,.63-.74,6.75,6.75,0,0,0,.51-1l.45-1.17.92-.13v8.69l-1.12.17c-.11-.34-.22-.68-.34-1a2.5,2.5,0,0,0-1.2-1.42,2.66,2.66,0,0,0-1.19-.23,14.92,14.92,0,0,0-1.7.15l-3.14.47v5.95a2.34,2.34,0,0,0,1.15,2.35,4.47,4.47,0,0,0,2.58.18,9.24,9.24,0,0,0,4.54-1.8,8.68,8.68,0,0,0,2.86-4.74l.23-.82Z" transform="translate(-145.1 -14.16)"/><path class="cls-1" d="M731.32,321l-.67.28a7.11,7.11,0,0,0-1.07.53,5.14,5.14,0,0,0-.92.77,5.36,5.36,0,0,0-.65.84,5.93,5.93,0,0,0-.59,1.12q-4.26,10.24-8.52,20.53l-1.71-.3q-4-8.83-8.05-17.66c-.06-.14-.12-.29-.2-.45a3.77,3.77,0,0,0-1-1.28,3.07,3.07,0,0,0-.79-.44,6.37,6.37,0,0,0-1-.23l-.64-.1v-1.29q6-.87,12-1.7v1.23l-.68.24-1.4.47a1.68,1.68,0,0,0-.95.87,1.79,1.79,0,0,0-.14.8,3.14,3.14,0,0,0,.07.68,1.1,1.1,0,0,0,.12.41q2.64,6,5.27,12.09,2.25-6.4,4.49-12.81a5.24,5.24,0,0,0,.37-1.68,1.13,1.13,0,0,0-.68-1.14,5.64,5.64,0,0,0-1.22-.41,3.62,3.62,0,0,0-1.19,0l-.73.1v-1.29c3.5-.48,7-.95,10.49-1.4Z" transform="translate(-145.1 -14.16)"/><path class="cls-1" d="M767.42,338.68q-5.61.46-11.22,1v-1.24l.7-.21c.58-.17.92-.28,1-.33a1.31,1.31,0,0,0,.71-.68,2.53,2.53,0,0,0,.21-1,3.45,3.45,0,0,0-.25-1.27c-.52-1.4-1.05-2.79-1.57-4.19l-7,.72-1.26,4.59a3.84,3.84,0,0,0-.11.59c0,.2,0,.35,0,.47a1.91,1.91,0,0,0,.18.91,1.28,1.28,0,0,0,.47.48,3.25,3.25,0,0,0,1.13.4,5.59,5.59,0,0,0,1.42,0l.67-.07v1.23c-3.5.37-7,.77-10.52,1.18v-1.18l.68-.13a2.32,2.32,0,0,0,1-.38c.11-.07.39-.29.84-.67a4.66,4.66,0,0,0,.71-1,7.38,7.38,0,0,0,.64-1.23q3.24-8.61,6.5-17.18l-.28-1.09a6,6,0,0,0,1-.57,8,8,0,0,0,.91-.75,7.1,7.1,0,0,0,1.23-1.44l.93-.1,7.66,19.3a4.24,4.24,0,0,0,1.2,1.85,4.69,4.69,0,0,0,1,.5,2.5,2.5,0,0,0,1,.25l.34,0Zm-11.33-10.25-2.73-6.53L750.85,329C752.6,328.78,754.34,328.6,756.09,328.43Z" transform="translate(-145.1 -14.16)"/><path class="cls-1" d="M589.81,388.42l-.71.35a7.85,7.85,0,0,0-.78.42,2,2,0,0,0-.53.57,1.35,1.35,0,0,0-.2.66,7,7,0,0,0-.06.9v4.2l1.63-.08v1l-.56.28a24.25,24.25,0,0,1-4.07,1.56,22.17,22.17,0,0,1-5.72,1c-4.11.13-7.41-.91-9.88-3.05a10.45,10.45,0,0,1-3.72-8.26,11,11,0,0,1,2.32-7,13.39,13.39,0,0,1,5.4-3.88,16.72,16.72,0,0,1,5.93-1.32,27.11,27.11,0,0,1,4.2.14,19.59,19.59,0,0,1,3.35.74l1.12.34v6.48l-1.28.06-.23-.8a6.91,6.91,0,0,0-2.85-3.92,7.27,7.27,0,0,0-4.32-1.22,7.66,7.66,0,0,0-5.93,2.7,10.21,10.21,0,0,0-2.19,6.82,10.67,10.67,0,0,0,2.63,7.11,8.48,8.48,0,0,0,7,3.21,3.11,3.11,0,0,0,2-.55,1.68,1.68,0,0,0,.37-1.25V392a2.94,2.94,0,0,0-.2-1.19,3.42,3.42,0,0,0-.61-.88,2.78,2.78,0,0,0-1.42-.54c-.52-.08-1-.16-1.53-.26l-.76-.09v-1.2q5.79-.18,11.59-.49Z" transform="translate(-145.1 -14.16)"/><path class="cls-1" d="M626.82,395.85l-1.71.07c-1.36.15-2.27.23-2.72.24a10.25,10.25,0,0,1-4.15-.77,7.69,7.69,0,0,1-2.8-2.56q-.45-.63-2.39-3.61c-.8-1.28-1.37-2-1.72-2.06s-.61-.17-.79-.2a3,3,0,0,0-.68,0l-.62.06v4.72a5.82,5.82,0,0,0,.2,1.64,2.39,2.39,0,0,0,1,1.38,3,3,0,0,0,1,.41c.08,0,.77.08,2.08.2l.81.09v1.29q-7,.67-14,1.19V396.7l.56-.1a4.51,4.51,0,0,0,1.49-.39,6.56,6.56,0,0,0,1.24-.75,2.59,2.59,0,0,0,.69-1.76c0-.43,0-.87.08-1.33V379.25a3.45,3.45,0,0,0-.23-1.31,2.3,2.3,0,0,0-.61-.87,2.71,2.71,0,0,0-1.05-.48,7.28,7.28,0,0,0-1.39-.2l-.64,0v-1.23l.47,0,5.63-.4,3.52-.26c3.23-.29,5.71-.07,7.42.69a4.1,4.1,0,0,1,2.56,4.1,5.42,5.42,0,0,1-1.51,3.74,10.84,10.84,0,0,1-2,1.64l-.51.35,1.1,1.92a22.36,22.36,0,0,0,3.22,4.23,10.86,10.86,0,0,0,3,2.38l1.62.73a7.06,7.06,0,0,0,1.32.33l.53.08Zm-12-15.7a3.67,3.67,0,0,0-1.66-3.26,5.6,5.6,0,0,0-3.7-.81l-.25,0v9.23l.22,0a6.5,6.5,0,0,0,3.59-1.42A4.61,4.61,0,0,0,614.85,380.15Z" transform="translate(-145.1 -14.16)"/><path class="cls-1" d="M662.78,390.81l-11.22,1.56v-1.23l.7-.24c.58-.19.93-.31,1-.36a1.39,1.39,0,0,0,.71-.72,2.54,2.54,0,0,0,.21-1,3.32,3.32,0,0,0-.25-1.25c-.52-1.38-1-2.76-1.57-4.14l-6.95.93c-.42,1.54-.84,3.08-1.27,4.61a4.21,4.21,0,0,0-.11.6c0,.2,0,.35,0,.46a1.74,1.74,0,0,0,.19.91,1.16,1.16,0,0,0,.46.47,3,3,0,0,0,1.14.38,5.26,5.26,0,0,0,1.41,0l.67-.08v1.23c-3.5.47-7,.92-10.51,1.35V393l.67-.14a2.27,2.27,0,0,0,1-.38c.11-.07.39-.3.84-.68a4.83,4.83,0,0,0,.72-1,6.87,6.87,0,0,0,.63-1.24q3.26-8.64,6.5-17.31c-.09-.36-.18-.72-.28-1.08a6.93,6.93,0,0,0,1-.59,11.6,11.6,0,0,0,.91-.78,7.79,7.79,0,0,0,1.24-1.49l.92-.12q3.83,9.5,7.66,19a4.11,4.11,0,0,0,1.2,1.79,4.21,4.21,0,0,0,1,.44,2.78,2.78,0,0,0,1,.2l.34-.05Zm-11.33-9.73-2.73-6.43c-.83,2.38-1.67,4.76-2.5,7.13Z" transform="translate(-145.1 -14.16)"/><path class="cls-1" d="M700.39,363.7l-.65.13a1.74,1.74,0,0,0-.76.3,7.39,7.39,0,0,0-.78.71,4.23,4.23,0,0,0-.76,2,26.42,26.42,0,0,0-.39,5v14l-1.29.95-16.24-15.2,0,6.65c0,.93.06,2.19.19,3.77a9.89,9.89,0,0,0,.54,3.08,2.23,2.23,0,0,0,1.38,1,7.2,7.2,0,0,0,2.16.27h.7v1.23l-11.11,1.64v-1.24l.79-.23a5.27,5.27,0,0,0,1.6-.67,2.43,2.43,0,0,0,1-1,8.22,8.22,0,0,0,.49-1.79,13.51,13.51,0,0,0,.26-2.67l.42-10.58a6.94,6.94,0,0,0-.17-1.1,3.13,3.13,0,0,0-1.34-1.79,3.79,3.79,0,0,0-1.32-.35c-.63-.09-1.07-.14-1.33-.16l-.36,0v-1.24l7.26-1.06,14.76,14q-.17-5.3-.31-10.59a5.82,5.82,0,0,0-.3-1.9,2.19,2.19,0,0,0-.91-1.26,4.48,4.48,0,0,0-1.29-.45,4.23,4.23,0,0,0-1.6-.1l-.73.11V364l10.16-1.49Z" transform="translate(-145.1 -14.16)"/><path class="cls-1" d="M736.51,380.34q-5.61.69-11.22,1.45v-1.24l.7-.23c.58-.19.93-.31,1-.36a1.4,1.4,0,0,0,.72-.72,2.5,2.5,0,0,0,.21-1,3.42,3.42,0,0,0-.26-1.26c-.52-1.38-1-2.76-1.57-4.14l-7,.94-1.26,4.63a2.94,2.94,0,0,0-.12.59,4.47,4.47,0,0,0,0,.47,1.84,1.84,0,0,0,.18.9,1.16,1.16,0,0,0,.46.47,3.06,3.06,0,0,0,1.14.37,6.24,6.24,0,0,0,1.41,0l.68-.1v1.24q-5.26.72-10.52,1.47v-1.19l.67-.14a2.44,2.44,0,0,0,1-.4c.11-.08.39-.31.84-.7a5,5,0,0,0,.72-1,6.87,6.87,0,0,0,.63-1.24q3.25-8.7,6.51-17.37c-.1-.36-.19-.72-.29-1.08a6.13,6.13,0,0,0,1-.6,7.6,7.6,0,0,0,.91-.78,8,8,0,0,0,1.24-1.48l.92-.13q3.84,9.51,7.66,19a4.11,4.11,0,0,0,1.21,1.81,4.62,4.62,0,0,0,1,.46,2.89,2.89,0,0,0,1,.21l.34,0Zm-11.33-9.84-2.73-6.43-2.5,7.14Z" transform="translate(-145.1 -14.16)"/><path class="cls-1" d="M773.17,365.26a11.18,11.18,0,0,1-4.1,8.85,15,15,0,0,1-8.61,3.59q-6.68.63-13.35,1.39v-1.24l.7-.08a5.12,5.12,0,0,0,1.82-.56,3.76,3.76,0,0,0,1.25-.92,2.54,2.54,0,0,0,.47-1.15,10,10,0,0,0,.11-1.5V361.12a10.5,10.5,0,0,0-.09-1.09,3.07,3.07,0,0,0-.59-1.65,2.7,2.7,0,0,0-2-.77l-1.51-.11v-1.23l.48-.06c1.21-.13,2.19-.25,2.94-.35,3.76-.5,5.89-.75,6.39-.8,4.85-.48,8.62,0,11.31,1.43Q773.17,359,773.17,365.26Zm-5.53.83a9.12,9.12,0,0,0-3.35-7.61,9.67,9.67,0,0,0-7.19-1.91l-.85.09v17a2.18,2.18,0,0,0,1.3,2.17,4.91,4.91,0,0,0,2.56.31,7.4,7.4,0,0,0,5.56-3.32A11.47,11.47,0,0,0,767.64,366.09Z" transform="translate(-145.1 -14.16)"/><path class="cls-1" d="M809.17,375.2q-5.59,0-11.21.15v-1.23l.7-.16c.58-.13.92-.21,1-.25a1.2,1.2,0,0,0,.71-.63,2.38,2.38,0,0,0,.21-1,3.55,3.55,0,0,0-.25-1.28c-.53-1.44-1-2.88-1.57-4.31-2.32,0-4.64.13-7,.22l-1.26,4.5a2.83,2.83,0,0,0-.11.58c0,.2,0,.35,0,.46a1.92,1.92,0,0,0,.18.92,1.46,1.46,0,0,0,.46.52,3.55,3.55,0,0,0,1.14.48,6.11,6.11,0,0,0,1.42.1l.67,0v1.23c-3.51.12-7,.28-10.52.47v-1.18l.68-.09a2.2,2.2,0,0,0,1-.31,10.39,10.39,0,0,0,.84-.62,4.57,4.57,0,0,0,.71-.93,6.42,6.42,0,0,0,.63-1.19q3.26-8.39,6.51-16.73c-.09-.37-.19-.74-.28-1.11a6.3,6.3,0,0,0,1-.5,8.1,8.1,0,0,0,.91-.69,6.59,6.59,0,0,0,1.23-1.35l.93,0q3.83,9.92,7.66,19.89a4.7,4.7,0,0,0,1.2,2,5.27,5.27,0,0,0,1,.58,2.81,2.81,0,0,0,1,.34h.33Zm-11.33-11.15q-1.35-3.36-2.72-6.72c-.84,2.29-1.67,4.59-2.51,6.89C794.36,364.15,796.1,364.1,797.84,364.05Z" transform="translate(-145.1 -14.16)"/><path class="cls-1" d="M835.94,154.07l-.7-.22a7.07,7.07,0,0,0-1.14-.29,4.87,4.87,0,0,0-1.08,0,3.31,3.31,0,0,0-.86.26,3,3,0,0,0-.9.52q-7.23,5.57-14.46,10.11l-1.44-1.71q-.69-10.52-1.37-21.05c0-.16,0-.33,0-.52a6.38,6.38,0,0,0-.46-1.89,6.23,6.23,0,0,0-.56-1.05,11.48,11.48,0,0,0-.82-1.09c-.19-.22-.37-.44-.55-.67l.43-1q5.65,4.77,11.3,8.87l-.41,1-.68-.35-1.42-.76a1.19,1.19,0,0,0-1.14-.09,1,1,0,0,0-.39.53,2.63,2.63,0,0,0-.16.6,1.41,1.41,0,0,0,0,.44q.36,7.08.73,14.15,4.14-3.31,8.27-7a3,3,0,0,0,.88-1.12,1.52,1.52,0,0,0-.22-1.46,10.77,10.77,0,0,0-1-1.26,6.06,6.06,0,0,0-1.07-.93l-.69-.48c.15-.36.29-.71.43-1.07q4.95,3.45,9.9,6.43C836.21,153.36,836.08,153.72,835.94,154.07Z" transform="translate(-145.1 -14.16)"/><path class="cls-1" d="M861.8,181.59a2,2,0,0,1-.1.47l-.17.46a17.59,17.59,0,0,1-1.36,2.78c-.37.64-.7,1.16-1,1.57a15.58,15.58,0,0,1-1.16,1.44,175.4,175.4,0,0,1-19.16-9.65c.14-.35.27-.71.41-1.07l.7.35a6.66,6.66,0,0,0,1.55.68,2.32,2.32,0,0,0,1.35-.07,2.25,2.25,0,0,0,1.19-1,7.35,7.35,0,0,0,.56-1.22q2-5.43,4.06-10.92a7.48,7.48,0,0,0,.43-1.67,2.54,2.54,0,0,0-.13-1.29,3.15,3.15,0,0,0-.8-1.07,14.71,14.71,0,0,0-1.55-1.2l-.53-.37c.14-.36.27-.73.41-1.09A177.59,177.59,0,0,0,865.12,167l-2.51,5.36-1.16-.47c0-.24.09-.48.13-.72.08-.62.13-.94.13-1a4,4,0,0,0-.48-1.95A4.62,4.62,0,0,0,860,167a9.21,9.21,0,0,0-1.93-1.12c-1.21-.52-2.42-1.06-3.63-1.61l-2.72,7.47c1,.47,2,.93,3,1.38a12.09,12.09,0,0,0,2,.75,2.25,2.25,0,0,0,1.06,0,2.71,2.71,0,0,0,.81-.34,4.39,4.39,0,0,0,.78-.63l.78-.83.88.35-2.88,8L857,180c0-.37,0-.74,0-1.11a3.33,3.33,0,0,0-.61-2,3.29,3.29,0,0,0-1-.87,14.82,14.82,0,0,0-1.57-.82c-1-.45-2-.92-3-1.4l-2,5.34a2.84,2.84,0,0,0,.25,2.8,5.73,5.73,0,0,0,2.25,1.69,8.14,8.14,0,0,0,4.66,1,6.34,6.34,0,0,0,4.12-2.81l.48-.64Z" transform="translate(-145.1 -14.16)"/><path class="cls-1" d="M901.82,178.45l-.62-.08a1.39,1.39,0,0,0-.78,0,7.25,7.25,0,0,0-.93.44,4.59,4.59,0,0,0-1.33,1.7,30.66,30.66,0,0,0-2,4.84q-2.31,6.94-4.64,13.84l-1.47.46q-4.74-10.47-9.49-21.16l-2.23,6.39c-.31.9-.67,2.13-1.09,3.7a10.55,10.55,0,0,0-.52,3.18,2.57,2.57,0,0,0,.88,1.58,7.12,7.12,0,0,0,1.85,1.17l.62.31c-.14.39-.27.79-.41,1.19-3.49-1-7-2.15-10.48-3.39l.41-1.16.78.15a4.63,4.63,0,0,0,1.65.11,2,2,0,0,0,1.19-.49,8.05,8.05,0,0,0,1-1.47,13.67,13.67,0,0,0,1.11-2.44l3.88-10a7.48,7.48,0,0,0,.21-1.12,3.66,3.66,0,0,0-.61-2.29,4,4,0,0,0-1.06-.9q-.79-.53-1.14-.72l-.31-.19c.13-.39.27-.79.41-1.18q3.42,1.06,6.84,2,4.29,9.74,8.58,19.29,1.61-5.25,3.22-10.54a6.51,6.51,0,0,0,.37-2,2.42,2.42,0,0,0-.4-1.56,4.64,4.64,0,0,0-1-.9,4.06,4.06,0,0,0-1.4-.67l-.69-.15.41-1.22c3.19.73,6.39,1.39,9.58,2Z" transform="translate(-145.1 -14.16)"/><path class="cls-1" d="M927.7,196.94a2.25,2.25,0,0,1-.1.49c-.06.18-.12.35-.17.52a24.16,24.16,0,0,1-1.36,3.16c-.37.75-.7,1.37-1,1.87s-.68,1.1-1.16,1.79c-6.39-.81-12.77-1.74-19.16-2.89.13-.41.27-.82.41-1.23l.7.06a4.94,4.94,0,0,0,1.55.07,3,3,0,0,0,1.35-.59,3.83,3.83,0,0,0,1.19-1.46,10.4,10.4,0,0,0,.56-1.43q2-6.18,4.06-12.39a9.35,9.35,0,0,0,.43-1.82,2.26,2.26,0,0,0-.13-1.24,1.9,1.9,0,0,0-.8-.79,9.78,9.78,0,0,0-1.55-.65l-.53-.17.41-1.25c6.2,1,12.4,1.76,18.6,2.47l-2.5,6-1.17-.14c0-.25.09-.5.14-.76.08-.64.12-1,.13-1a3.12,3.12,0,0,0-.48-1.81,2.82,2.82,0,0,0-1.25-.94,6.57,6.57,0,0,0-1.93-.56l-3.63-.47-2.73,8.36,3,.41a11,11,0,0,0,2,.13,2.68,2.68,0,0,0,1.06-.31,4.39,4.39,0,0,0,.81-.58,7.11,7.11,0,0,0,.78-.87l.78-1.06.88.1L924,196.87l-1.06-.13c0-.38,0-.76,0-1.13a2.6,2.6,0,0,0-.61-1.77,2.07,2.07,0,0,0-1-.56,11,11,0,0,0-1.57-.32l-3-.41c-.65,2-1.31,4-2,6a2.6,2.6,0,0,0,.25,2.72,3.75,3.75,0,0,0,2.25.92,8.11,8.11,0,0,0,4.65-.56,9.82,9.82,0,0,0,4.13-4.06l.48-.77Z" transform="translate(-145.1 -14.16)"/><path class="cls-1" d="M959.62,198c-.71,1.69-1.19,2.8-1.44,3.35s-.58,1.21-1,2a38.35,38.35,0,0,1-3.05,4.77c-6.09-.63-12.19-1.23-18.28-1.89l-.51-.8.28-.8c5.8-5.31,11.6-10.68,17.4-16l2.64-2.41L955,186c-.29-.05-.76-.11-1.41-.17a30.2,30.2,0,0,0-3.77-.18,6,6,0,0,0-2.61.54,9.85,9.85,0,0,0-2.31,1.67,25.37,25.37,0,0,0-2.18,2.68l-.76,1-1.1-.41,3.51-8.23c5.74.59,11.48,1.15,17.23,1.77.37.08.57.2.61.35a.93.93,0,0,1,0,.51,1.13,1.13,0,0,1-.44.61q-7.8,7.31-15.62,14.68l-3.9,3.64.4.09.66.08a39.34,39.34,0,0,0,4,.22,12.81,12.81,0,0,0,3.79-.41,12.62,12.62,0,0,0,3.42-1.7,27.39,27.39,0,0,0,3.23-3.83l1-1.39Z" transform="translate(-145.1 -14.16)"/><path class="cls-1" d="M998.67,191.29l-.6,0-.83.05a2.83,2.83,0,0,0-1.26.77,6.9,6.9,0,0,0-1.32,2c-.14.29-.32.72-.54,1.27q-1.9,4.89-3.82,9.81a8.66,8.66,0,0,1-3.83,4.77,10.74,10.74,0,0,1-7.26,1.35c-3.11-.43-5.23-1.45-6.38-3.12s-1.21-3.46-.46-5.77L975.79,192c.05-.17.09-.3.12-.37a7.69,7.69,0,0,0,.3-1.38,2.21,2.21,0,0,0-.17-1.29,2,2,0,0,0-1.11-.91l-.93-.39-.57-.28c.13-.42.27-.84.41-1.26,4.11.52,8.22,1.08,12.33,1.72l-.41,1.25-.79,0-1.55.06a3.29,3.29,0,0,0-1.59.72A4.19,4.19,0,0,0,981,191l-.67,1.54-3.15,9.67a5.17,5.17,0,0,0,.29,4.53,5.44,5.44,0,0,0,4.1,2.26,5.69,5.69,0,0,0,4.85-1.33q1.94-1.76,3.39-6.15c.74-2.41,1.47-4.82,2.21-7.22a8.55,8.55,0,0,0,.41-1.79,2.11,2.11,0,0,0-.21-1.3,2.74,2.74,0,0,0-.77-.82,7.39,7.39,0,0,0-1.88-.7l-.56-.15c.13-.41.27-.83.41-1.24,3.23.53,6.45,1.11,9.68,1.75C999,190.47,998.81,190.88,998.67,191.29Z" transform="translate(-145.1 -14.16)"/><path class="cls-1" d="M1024.4,212.45a1.65,1.65,0,0,1-.1.47c0,.16-.11.32-.17.48a20.61,20.61,0,0,1-1.35,2.9c-.38.68-.71,1.24-1,1.68a19.09,19.09,0,0,1-1.16,1.58c-6.38-1.93-12.77-3.51-19.16-4.85.14-.41.28-.81.41-1.22l.71.09a5.17,5.17,0,0,0,1.54.14,2.94,2.94,0,0,0,1.35-.51,3.56,3.56,0,0,0,1.2-1.4,10,10,0,0,0,.55-1.38c1.36-4,2.71-8,4.07-12a9.62,9.62,0,0,0,.43-1.78,2.32,2.32,0,0,0-.14-1.25,2.05,2.05,0,0,0-.8-.87,9.07,9.07,0,0,0-1.55-.8l-.52-.22c.13-.4.27-.8.4-1.21,6.21,1.51,12.41,3.28,18.61,5.42-.84,1.82-1.67,3.65-2.51,5.48l-1.16-.37.13-.73c.08-.63.13-.95.13-1a3.6,3.6,0,0,0-.48-1.91,3.77,3.77,0,0,0-1.25-1.18,7.08,7.08,0,0,0-1.93-.91c-1.21-.37-2.41-.72-3.62-1.06l-2.73,8c1,.26,2,.53,3,.81a11,11,0,0,0,2,.45,2.51,2.51,0,0,0,1.06-.13,3.75,3.75,0,0,0,.82-.44,6.22,6.22,0,0,0,.77-.73l.79-.91.87.27-2.88,8.32-1-.31,0-1.12a2.92,2.92,0,0,0-.61-1.88,2.76,2.76,0,0,0-1-.72,11.33,11.33,0,0,0-1.57-.54c-1-.28-2-.55-3-.81l-2,5.79a2.7,2.7,0,0,0,.25,2.74,4.37,4.37,0,0,0,2.25,1.18,8.36,8.36,0,0,0,4.66.11,7.85,7.85,0,0,0,4.13-3.32l.47-.69Z" transform="translate(-145.1 -14.16)"/><path class="cls-1" d="M1055.24,225.46c-.46.66-.88,1.23-1.25,1.71s-.88,1.08-1.53,1.81c-.36.42-.73.84-1.08,1.26a6.76,6.76,0,0,1-1.14,1.08,178.84,178.84,0,0,0-18.53-8c.14-.38.28-.77.41-1.15l.68.19a4.89,4.89,0,0,0,1.4.31,2.88,2.88,0,0,0,1.18-.12,2.63,2.63,0,0,0,1.18-.79,7.6,7.6,0,0,0,1-2.05q2.1-5.9,4.21-11.71a3,3,0,0,0,.16-1.42,2.39,2.39,0,0,0-.39-1.13,4,4,0,0,0-.79-.82c-.33-.27-.78-.61-1.34-1l-.55-.34.41-1.14q6.13,2.58,12.28,5.72c-.14.37-.27.74-.41,1.1l-.58-.14c-.8-.21-1.31-.32-1.53-.35a2.63,2.63,0,0,0-1.25,0,1.88,1.88,0,0,0-.69.41,4.53,4.53,0,0,0-1,1.75q-2.58,7-5.17,14.22l2.07.91.87.39a18.05,18.05,0,0,0,2.28.88,6,6,0,0,0,2.63.22,16.62,16.62,0,0,0,2.31-.64,11.2,11.2,0,0,0,2-1.08q.72-.5,1.44-1Z" transform="translate(-145.1 -14.16)"/><path class="cls-1" d="M1086.58,255.49q-5.3-4.47-10.59-8.35c.14-.33.27-.67.41-1l.71.38c.58.32.93.51,1.05.55a.94.94,0,0,0,.88,0,1.32,1.32,0,0,0,.53-.66,3,3,0,0,0,.19-1.22c0-1.55,0-3.1,0-4.64q-3.29-2.53-6.57-4.85c-.89.94-1.77,1.9-2.66,2.86a2.55,2.55,0,0,0-.3.41c-.08.15-.14.28-.18.37a1.75,1.75,0,0,0-.13.9,2,2,0,0,0,.26.74,5.38,5.38,0,0,0,.9,1.16,9.12,9.12,0,0,0,1.28,1.06l.64.44-.41,1q-5-3.46-9.92-6.48l.39-1,.65.35a2.56,2.56,0,0,0,1,.37c.12,0,.45,0,1,0a3.39,3.39,0,0,0,1-.34,3.74,3.74,0,0,0,1-.59q5.79-4.93,11.59-9.22l.1-1.11a6.19,6.19,0,0,0,2.15.48,4.68,4.68,0,0,0,1.6-.11l.87.71.6,21.71a6.55,6.55,0,0,0,.49,2.48,11.54,11.54,0,0,0,.77,1.27,5.75,5.75,0,0,0,.86,1.07l.31.27Zm-7-17.59q-.15-3.74-.32-7.45-2.31,1.83-4.61,3.76C1076.33,235.4,1078,236.63,1079.62,237.9Z" transform="translate(-145.1 -14.16)"/><path class="cls-1" d="M464.55,510.59a2.2,2.2,0,0,1-.2.49l-.27.49a25,25,0,0,1-2,2.95c-.51.68-.95,1.24-1.33,1.68s-.87,1-1.46,1.56q-8.47-4-16.86-7.22l.66-1.21.63.18a4.61,4.61,0,0,0,1.39.33,2.77,2.77,0,0,0,1.37-.37,4.24,4.24,0,0,0,1.43-1.31,13.9,13.9,0,0,0,.82-1.38q3.27-6.07,6.52-12.2a11.24,11.24,0,0,0,.81-1.83,2.93,2.93,0,0,0,.16-1.34,1.9,1.9,0,0,0-.55-1,7.4,7.4,0,0,0-1.27-1l-.45-.28.66-1.24q8.18,3.25,16.45,7.2l-3.66,5.7-1-.49.3-.76c.22-.66.33-1,.34-1a4,4,0,0,0,0-2.07,3.14,3.14,0,0,0-.93-1.34,5.68,5.68,0,0,0-1.63-1.11l-3.21-1.42q-2.19,4.13-4.39,8.21c.87.37,1.75.75,2.62,1.14a8.83,8.83,0,0,0,1.79.64,2.12,2.12,0,0,0,1,0,3.82,3.82,0,0,0,.87-.4,6.38,6.38,0,0,0,.91-.71l1-.91.77.36q-2.32,4.31-4.64,8.58l-.93-.43.28-1.18a3.1,3.1,0,0,0-.15-2,2.31,2.31,0,0,0-.78-.85,8.84,8.84,0,0,0-1.36-.72l-2.61-1.14L452.46,509a3.1,3.1,0,0,0-.39,2.89,3.5,3.5,0,0,0,1.85,1.49,7,7,0,0,0,4.38.59,9.09,9.09,0,0,0,4.69-3.13l.6-.68Z" transform="translate(-145.1 -14.16)"/><path class="cls-1" d="M493,525.11a38.9,38.9,0,0,1-5.5,5.88l-.77.09a8.54,8.54,0,0,1-2.33-.39,18.12,18.12,0,0,1-4-1.6,14.93,14.93,0,0,1-4.41-3.66,11.29,11.29,0,0,1-2.58-5.85,12.64,12.64,0,0,1,1.72-7.75,14.15,14.15,0,0,1,7.59-6.89c3.51-1.29,7.18-.89,11,1.27a16.21,16.21,0,0,1,2.94,2.09,11.2,11.2,0,0,1,2.21,2.78l.24.42-3.5,6.28-1-.59.33-1.15a8.79,8.79,0,0,0,.16-4.86,5.46,5.46,0,0,0-2.63-3.57,6.66,6.66,0,0,0-7.12.25,13.54,13.54,0,0,0-4.88,5.26,15.71,15.71,0,0,0-2.07,8c.08,3.1,1.25,5.25,3.5,6.5a5.65,5.65,0,0,0,4.27.28,12.5,12.5,0,0,0,5.25-3l.76-.75Z" transform="translate(-145.1 -14.16)"/><path class="cls-1" d="M531.8,532.34l-.58-.2-.79-.28a2.25,2.25,0,0,0-1.37.33,6.06,6.06,0,0,0-1.71,1.64c-.2.26-.46.65-.8,1.16l-5.86,9a7,7,0,0,1-4.67,3.55A9.18,9.18,0,0,1,509,546c-2.79-1.77-4.52-3.77-5.19-6.05a8,8,0,0,1,.89-6.41l5.58-9.9.2-.35a8.34,8.34,0,0,0,.6-1.35,2.94,2.94,0,0,0,.14-1.46,2.76,2.76,0,0,0-.82-1.46l-.78-.81-.46-.54.67-1.19q5.54,3.42,11.08,7l-.67,1.18-.74-.3-1.46-.58a2.69,2.69,0,0,0-1.66.11,3.31,3.31,0,0,0-1.05.9l-1,1.38-5.15,9.1a6.47,6.47,0,0,0-.77,5,7.09,7.09,0,0,0,3.29,4.17,4.72,4.72,0,0,0,4.82.59c1.48-.72,3-2.46,4.59-5.23l3.73-6.87a8.48,8.48,0,0,0,.8-1.77,2.68,2.68,0,0,0,.1-1.49,3.47,3.47,0,0,0-.53-1.19,8.37,8.37,0,0,0-1.59-1.53l-.5-.4c.23-.39.45-.78.67-1.17q4.35,2.85,8.71,5.81Z" transform="translate(-145.1 -14.16)"/><path class="cls-1" d="M550.53,573.67q-4.74-3.37-9.48-6.69c.22-.39.44-.77.67-1.15l.67.28c.55.24.88.38,1,.41a1.08,1.08,0,0,0,.94-.15,2.38,2.38,0,0,0,.72-.81,4.3,4.3,0,0,0,.49-1.35c.34-1.66.69-3.32,1-5q-2.94-2.07-5.89-4.13l-3.48,3.41a3.07,3.07,0,0,0-.41.47l-.27.42a2.24,2.24,0,0,0-.35,1,1.76,1.76,0,0,0,.1.77,3.89,3.89,0,0,0,.68,1.15,5.77,5.77,0,0,0,1.11,1l.57.39c-.22.39-.44.77-.67,1.15q-4.44-3.09-8.9-6.12l.64-1.11.6.34a1.87,1.87,0,0,0,1,.34,7.39,7.39,0,0,0,1,0,4.6,4.6,0,0,0,1.09-.43,5.94,5.94,0,0,0,1.16-.72q7.21-5.82,14.45-11.49c.13-.4.25-.8.38-1.2a5.1,5.1,0,0,0,1.07.15,6.42,6.42,0,0,0,1.13,0,6.21,6.21,0,0,0,1.76-.47l.78.56q-2.21,11.55-4.4,23.12a5.77,5.77,0,0,0,0,2.54,5.91,5.91,0,0,0,.55,1.16,3.21,3.21,0,0,0,.68.93l.28.2C551,572.91,550.76,573.29,550.53,573.67Zm-3.44-17.27c.46-2.65.92-5.29,1.39-7.94l-5.82,4.82Z" transform="translate(-145.1 -14.16)"/><path class="cls-1" d="M587.63,585.84a9.91,9.91,0,0,1-8.08,5.12,13.07,13.07,0,0,1-8.8-2.72q-5.62-4.1-11.26-8.15l.67-1.14.59.43a4.73,4.73,0,0,0,1.74.78,3,3,0,0,0,1.48,0,2.24,2.24,0,0,0,1-.72,10.73,10.73,0,0,0,.91-1.29l.15-.26.06-.1q3.3-5.54,6.6-11c.23-.43.41-.78.52-1a4.12,4.12,0,0,0,.44-1.91,3.6,3.6,0,0,0-1.15-2.13l-1.13-1.2.68-1.12.4.3c1,.76,1.86,1.37,2.5,1.82q4.83,3.4,5.47,3.89,6.12,4.58,8.18,9.31A11.46,11.46,0,0,1,587.63,585.84Zm-4.87-3.08a11.46,11.46,0,0,0,1.48-9.15,12.19,12.19,0,0,0-4.66-6.83l-.71-.53q-4.64,7.62-9.26,15.37a2.91,2.91,0,0,0-.16,2.89,5.59,5.59,0,0,0,1.86,2.08,6.23,6.23,0,0,0,6.22.87A10.63,10.63,0,0,0,582.76,582.76Z" transform="translate(-145.1 -14.16)"/><path class="cls-1" d="M618.28,607.69q-3.36,5.34-8.71,5.71a14.28,14.28,0,0,1-9.37-3.08,13.7,13.7,0,0,1-5.18-7.27,12.65,12.65,0,0,1,1.53-10.7,10.34,10.34,0,0,1,7.13-5.12c3.38-.62,6.86.43,10.46,3.1a14,14,0,0,1,5.78,8.74A11.62,11.62,0,0,1,618.28,607.69Zm-5.39-2.2a15,15,0,0,0,2.44-7.76,7.48,7.48,0,0,0-2.87-6.56,5.47,5.47,0,0,0-6.13-.51,12,12,0,0,0-4.72,4.6,14.5,14.5,0,0,0-2.24,7.64c0,3,1,5.29,3,6.74a5.28,5.28,0,0,0,5.93.35A12,12,0,0,0,612.89,605.49Z" transform="translate(-145.1 -14.16)"/><path class="cls-1" d="M642.82,639.56l-1.37-1c-1.15-.75-1.9-1.26-2.26-1.54a11.34,11.34,0,0,1-2.84-3.34,9.31,9.31,0,0,1-.82-4c0-.55,0-2.09.07-4.62a6.41,6.41,0,0,0-.25-2.87c-.22-.31-.39-.54-.51-.68a4,4,0,0,0-.54-.46l-.52-.36-2.55,4a5.92,5.92,0,0,0-.73,1.52,2.89,2.89,0,0,0,.07,1.87,3.56,3.56,0,0,0,.6,1l1.53,1.51.59.61-.7,1.1q-5.88-4-11.77-8.06l.66-1.07.51.28a4.11,4.11,0,0,0,1.4.62,5.54,5.54,0,0,0,1.39.17c.43,0,.93-.37,1.51-1.07.24-.36.51-.72.78-1.09q3.55-5.62,7.1-11.12a3.55,3.55,0,0,0,.52-1.26,2.73,2.73,0,0,0,0-1.11,2.94,2.94,0,0,0-.58-1.1,7.38,7.38,0,0,0-1-1.09l-.5-.46c.22-.35.45-.69.67-1l.4.29q2.07,1.49,4.69,3.41l2.92,2.12a17.51,17.51,0,0,1,5.48,5.49,4.64,4.64,0,0,1-.2,5.06,4.7,4.7,0,0,1-3.2,2.1,9.3,9.3,0,0,1-2.47,0l-.59,0-.18,2.32a26.83,26.83,0,0,0,.25,5.66,13,13,0,0,0,1,3.92c.29.56.59,1.11.88,1.66a6.67,6.67,0,0,0,.85,1.13l.37.41C643.27,638.86,643.05,639.21,642.82,639.56Zm-.91-20.95a4.1,4.1,0,0,0,.46-3.79,6.49,6.49,0,0,0-2.49-3.13l-.21-.15q-2.49,3.81-5,7.7l.19.13a6,6,0,0,0,3.6,1.17A4,4,0,0,0,641.91,618.61Z" transform="translate(-145.1 -14.16)"/><path class="cls-1" d="M1146.34,594.36a5.2,5.2,0,0,1-2.06,4.29,9.06,9.06,0,0,1-5.51,1.7q-6.64.14-13.29.14v-1.23l.73-.14a12.89,12.89,0,0,0,1.73-.38,7,7,0,0,0,1-.58,2.2,2.2,0,0,0,.61-1.47,7.31,7.31,0,0,0,.09-1.17V583.85a9.72,9.72,0,0,0-.18-2.16,4,4,0,0,0-.61-1.31,2.59,2.59,0,0,0-.94-.74,6.39,6.39,0,0,0-1.47-.54l-.76-.17v-1.24h.79l3.29,0,3,0a47.43,47.43,0,0,1,5.41.16,11.39,11.39,0,0,1,4.74,1.4,4.56,4.56,0,0,1,.59,7.05c-1,.59-2,1.17-3.08,1.74a9.64,9.64,0,0,1,4,2A5.38,5.38,0,0,1,1146.34,594.36Zm-6.53-10.7a3.78,3.78,0,0,0-1.42-3.16,5.43,5.43,0,0,0-3.57-1.09h-.56V588h.47a6.17,6.17,0,0,0,3.45-.93A3.8,3.8,0,0,0,1139.81,583.66Zm1.26,11.13a4.73,4.73,0,0,0-1.7-3.84,6.06,6.06,0,0,0-4.13-1.36h-1v6.09a3.65,3.65,0,0,0,.56,2.18,2.62,2.62,0,0,0,2.35,1,3.82,3.82,0,0,0,3.9-4.07Z" transform="translate(-145.1 -14.16)"/><path class="cls-1" d="M1183.42,598.55h-1.71c-1.37.1-2.28.14-2.72.13a10.6,10.6,0,0,1-4.15-.93,8.1,8.1,0,0,1-2.81-2.66q-.45-.65-2.38-3.7c-.81-1.3-1.38-2-1.73-2.12s-.6-.18-.78-.22a3.56,3.56,0,0,0-.69,0l-.62,0v4.72a5.87,5.87,0,0,0,.2,1.64,2.49,2.49,0,0,0,1,1.42,3.22,3.22,0,0,0,1,.45l2.07.27.81.12V599q-7,.42-14,.75v-1.24l.56-.08a4.15,4.15,0,0,0,1.49-.35,6.4,6.4,0,0,0,1.25-.71,2.58,2.58,0,0,0,.68-1.74q0-.65.09-1.32V581.15a3.38,3.38,0,0,0-.24-1.32,2.36,2.36,0,0,0-.6-.88,2.83,2.83,0,0,0-1.06-.51,6.54,6.54,0,0,0-1.38-.24l-.65-.06v-1.23l.48,0,5.62-.24,3.52-.15q4.86-.29,7.42.94a4.3,4.3,0,0,1,2.57,4.2,5.26,5.26,0,0,1-1.52,3.69,10.55,10.55,0,0,1-2,1.55l-.5.34c.36.66.73,1.31,1.09,2a23.74,23.74,0,0,0,3.23,4.35,11.34,11.34,0,0,0,2.94,2.5l1.63.79a6.49,6.49,0,0,0,1.32.39l.53.1Zm-12-16.16a3.82,3.82,0,0,0-1.65-3.32,5.71,5.71,0,0,0-3.7-.94l-.26,0v9.22h.23a6.27,6.27,0,0,0,3.59-1.3A4.43,4.43,0,0,0,1171.44,582.39Z" transform="translate(-145.1 -14.16)"/><path class="cls-1" d="M1219.37,595.41l-11.22.89v-1.24l.71-.19c.57-.16.92-.26,1-.31a1.29,1.29,0,0,0,.72-.67,2.46,2.46,0,0,0,.21-1,3.72,3.72,0,0,0-.25-1.27c-.53-1.4-1-2.81-1.58-4.22l-7,.54-1.26,4.55a2.36,2.36,0,0,0-.11.59c0,.19,0,.35,0,.46a1.92,1.92,0,0,0,.18.92,1.48,1.48,0,0,0,.46.5,3.44,3.44,0,0,0,1.14.43,5.41,5.41,0,0,0,1.42,0l.67,0v1.23c-3.51.28-7,.55-10.52.81v-1.18l.67-.1a2.21,2.21,0,0,0,1-.34,7.56,7.56,0,0,0,.85-.63,5.54,5.54,0,0,0,.71-1,6.45,6.45,0,0,0,.63-1.2l6.51-17c-.1-.37-.19-.73-.28-1.1a6.3,6.3,0,0,0,1-.54,8.85,8.85,0,0,0,.92-.73,7.59,7.59,0,0,0,1.23-1.41l.93-.08,7.65,19.42a4.36,4.36,0,0,0,1.21,1.87,5,5,0,0,0,1,.51,2.83,2.83,0,0,0,1,.26l.33,0ZM1208,585l-2.72-6.59q-1.26,3.5-2.51,7Z" transform="translate(-145.1 -14.16)"/><path class="cls-1" d="M1246.49,587.1a6.39,6.39,0,0,1-2.8,5.3,10.62,10.62,0,0,1-5.67,2.09,11.6,11.6,0,0,1-3.73-.29c-1.23-.41-2.11-.7-2.63-.86l-.62-.21c-.33-2.24-.66-4.47-1-6.71l1.29-.35c.1.32.2.64.31,1a8,8,0,0,0,2.59,4.05,5.4,5.4,0,0,0,3.94,1.57,3.56,3.56,0,0,0,2.66-1.27,4.24,4.24,0,0,0,.93-2.75q0-2-2.66-3.42c-1.67-.85-3.33-1.71-5-2.58a5.46,5.46,0,0,1-2.69-4.67,6.45,6.45,0,0,1,2.78-5.15,9.77,9.77,0,0,1,5.5-2.2,10.72,10.72,0,0,1,3.14.17,7.24,7.24,0,0,1,2,.81l.47.27-.45,5.92-1.15.08c-.08-.26-.16-.53-.25-.79a18.06,18.06,0,0,0-1.2-3.17,3.08,3.08,0,0,0-3-1.44,3.33,3.33,0,0,0-2.55,1.26,3.83,3.83,0,0,0-.76,2.41q0,1.93,2.73,3.42l5,2.63A5.79,5.79,0,0,1,1246.49,587.1Z" transform="translate(-145.1 -14.16)"/><path class="cls-1" d="M1270.47,592c-4.43.21-8.86.46-13.29.72v-1.23l.64-.12c.71-.12,1.19-.21,1.43-.28a3.38,3.38,0,0,0,1.17-.59,2.46,2.46,0,0,0,.71-1.14,8.34,8.34,0,0,0,.25-2.44V574.57a6.61,6.61,0,0,0-.18-1.61,2.21,2.21,0,0,0-.56-1.08,2.91,2.91,0,0,0-1.16-.6,4.17,4.17,0,0,0-1.6-.2l-.7,0v-1.24c4.43-.26,8.86-.51,13.29-.72v1.24l-.64,0a4.25,4.25,0,0,0-1.48.35,4.56,4.56,0,0,0-1.19.7,2.57,2.57,0,0,0-.71,1.17,5.19,5.19,0,0,0-.27,1.68v12.3a9,9,0,0,0,.22,2,2.48,2.48,0,0,0,.54,1.27,2.74,2.74,0,0,0,1.29.6l1.57.15.67.08Z" transform="translate(-145.1 -14.16)"/><path class="cls-1" d="M1303.17,583.13c-.19.86-.36,1.61-.53,2.25s-.42,1.46-.76,2.47c-.19.58-.37,1.15-.55,1.72a7.11,7.11,0,0,1-.66,1.56q-9.81,0-19.63.4v-1.24l.7-.08a4.75,4.75,0,0,0,1.41-.25,3.3,3.3,0,0,0,1.06-.58,2.93,2.93,0,0,0,.83-1.22,7.83,7.83,0,0,0,.24-2.32V573.11a3.13,3.13,0,0,0-.32-1.4,2.34,2.34,0,0,0-.73-.89,4.43,4.43,0,0,0-1-.41c-.39-.11-.92-.23-1.57-.36L1281,570v-1.23c4.34-.15,8.68-.27,13-.33v1.23l-.56.15c-.79.2-1.29.34-1.49.42a2.73,2.73,0,0,0-1.11.64,2.39,2.39,0,0,0-.49.71,5.42,5.42,0,0,0-.34,2.11v15.62l2.19,0,.93,0a13.64,13.64,0,0,0,2.35-.2,5.88,5.88,0,0,0,2.44-1,15.35,15.35,0,0,0,1.85-1.71,12.2,12.2,0,0,0,1.43-2l1-1.63Z" transform="translate(-145.1 -14.16)"/><path class="cls-1" d="M159.26,29.71l-.47-.2a4.72,4.72,0,0,0-.55-.22.94.94,0,0,0-.45,0,.45.45,0,0,0-.29.18,2.91,2.91,0,0,0-.29.37,1.15,1.15,0,0,0-.12.19L156,31.66c.3.29.61.57.91.84l-.3.46-.38-.18a16.85,16.85,0,0,1-2.66-1.59,22.39,22.39,0,0,1-3.41-2.92,19.83,19.83,0,0,1-4.56-7.37c-.75-2.41-.65-4.22.3-5.46a3.36,3.36,0,0,1,3.3-1.24,11.43,11.43,0,0,1,4.09,1.57,20.57,20.57,0,0,1,3.64,2.65c.91.84,1.66,1.58,2.24,2.23a21.59,21.59,0,0,1,1.62,2l.5.7c-.61,1-1.23,2-1.85,3q-.36-.3-.72-.63l.11-.47A5.26,5.26,0,0,0,158.4,22a8.29,8.29,0,0,0-2-2.79,7,7,0,0,0-4-2.13,3.29,3.29,0,0,0-3.15,1.47,5.37,5.37,0,0,0-.59,4.38,10.9,10.9,0,0,0,2.91,5.49,3.2,3.2,0,0,0,1.26.95c.2,0,.38-.07.55-.32l.17-.24.9-1.33a1.27,1.27,0,0,0,.24-.61,2.92,2.92,0,0,0-.08-.72,3.61,3.61,0,0,0-.62-1c-.27-.32-.52-.65-.77-1-.13-.16-.26-.31-.38-.47l.34-.5q3.22,3.21,6.44,6Z" transform="translate(-145.1 -14.16)"/><path class="cls-1" d="M183.23,37.74l-.37-.08-.5-.12a1.5,1.5,0,0,0-.83.26,3.39,3.39,0,0,0-1,1c-.1.16-.25.38-.43.68C179.07,41.23,178,43,177,44.68a3.6,3.6,0,0,1-2.71,2,6.17,6.17,0,0,1-4.49-1.31,9.19,9.19,0,0,1-3.55-4.07,4,4,0,0,1,.21-3.63q1.49-2.53,3-5.14l.11-.19a3.48,3.48,0,0,0,.3-.73,1.55,1.55,0,0,0,0-.83,2.21,2.21,0,0,0-.59-.92l-.53-.55-.31-.36c.12-.2.23-.41.35-.62C171.14,30,173.56,31.54,176,33l-.35.66-.48-.19-.94-.37a1.69,1.69,0,0,0-1,0,1.46,1.46,0,0,0-.61.46c-.18.25-.36.49-.53.74q-1.37,2.46-2.73,4.86A3.29,3.29,0,0,0,169.1,42a5.5,5.5,0,0,0,2.27,2.66,3.17,3.17,0,0,0,3,.57A6.14,6.14,0,0,0,177,42.28l2-3.94a4.63,4.63,0,0,0,.41-1,1.43,1.43,0,0,0,0-.85,2.21,2.21,0,0,0-.39-.66,6.13,6.13,0,0,0-1.07-.85l-.33-.23.35-.67q2.85,1.61,5.71,3Z" transform="translate(-145.1 -14.16)"/><path class="cls-1" d="M197,58.55q-3.1-1-6.23-2.29c.12-.25.24-.49.35-.73l.43.07.64.09a.84.84,0,0,0,.58-.22,1.63,1.63,0,0,0,.4-.55,2.43,2.43,0,0,0,.23-.82c.13-1,.25-2,.37-2.92-1.28-.48-2.57-1-3.86-1.5L188,52a2.26,2.26,0,0,0-.23.31c-.07.11-.12.2-.15.26a1.28,1.28,0,0,0-.16.59.84.84,0,0,0,.1.42,2.05,2.05,0,0,0,.48.57,3,3,0,0,0,.74.43l.38.15-.36.72c-1.94-.82-3.89-1.7-5.84-2.66.11-.23.23-.45.34-.67l.39.15a1.26,1.26,0,0,0,.63.13c.08,0,.29,0,.63-.11a2.58,2.58,0,0,0,.66-.33,4.81,4.81,0,0,0,.68-.5q4.17-3.91,8.33-8.21l.16-.73a3.72,3.72,0,0,0,.68-.08,7,7,0,0,0,.69-.23,4.33,4.33,0,0,0,1.06-.56l.52.17q-.75,6.8-1.48,13.58a2.81,2.81,0,0,0,.11,1.42,2.49,2.49,0,0,0,.4.55,1.32,1.32,0,0,0,.47.4l.19.06Zm-3.06-9c.15-1.54.29-3.08.44-4.62l-3.34,3.52C192,48.8,193,49.17,194,49.52Z" transform="translate(-145.1 -14.16)"/><path class="cls-1" d="M220.43,53.12l-.68.08,0-.39a6.63,6.63,0,0,0,.06-1.33,2.64,2.64,0,0,0-.37-1.14,2.06,2.06,0,0,0-.75-.77,4.9,4.9,0,0,0-1.31-.42l-.65-.14-4.12,9.22c-.12.26-.2.45-.26.57a8.78,8.78,0,0,0-.47,1.25,1.42,1.42,0,0,0,0,.89,1.39,1.39,0,0,0,.49.62,3.93,3.93,0,0,0,1,.54l.36.16c-.12.26-.23.52-.35.79-2.66-.6-5.31-1.25-8-2l.35-.77.41,0a3.12,3.12,0,0,0,1,0,4.83,4.83,0,0,0,1-.23,2.58,2.58,0,0,0,1.18-1.3c.14-.27.33-.66.57-1.18q2.07-4.59,4.13-9.2l-.65-.15c-.51-.11-.86-.18-1.05-.2a3.24,3.24,0,0,0-1.49.18,3.87,3.87,0,0,0-1.06.56A8.32,8.32,0,0,0,208.73,50l-.52.61-.59-.3c.84-1.55,1.69-3.11,2.53-4.68l.41.08.42.77c3.29.78,6.58,1.48,9.88,2.13l.89-.57.41.07C221.58,49.77,221,51.44,220.43,53.12Z" transform="translate(-145.1 -14.16)"/><path class="cls-1" d="M235.83,61.93a2.44,2.44,0,0,1-.11.32c-.05.11-.1.22-.14.33a19.17,19.17,0,0,1-1.09,2c-.29.47-.54.87-.76,1.18s-.5.69-.85,1.13c-3.76-.7-7.52-1.39-11.28-2.12L222,64l.42,0a2.7,2.7,0,0,0,.92,0,1.92,1.92,0,0,0,.87-.38,2.9,2.9,0,0,0,.85-.94,8.89,8.89,0,0,0,.45-.92q1.77-4,3.52-8a6.83,6.83,0,0,0,.42-1.18,1.46,1.46,0,0,0,0-.8,1,1,0,0,0-.41-.52,4.75,4.75,0,0,0-.88-.44l-.3-.11.35-.8c3.66.67,7.31,1.34,11,2-.68,1.27-1.35,2.54-2,3.81l-.69-.13.15-.48c.1-.42.16-.63.16-.64a2.14,2.14,0,0,0-.13-1.19,1.55,1.55,0,0,0-.67-.65,3.54,3.54,0,0,0-1.11-.42L232.71,52q-1.19,2.67-2.36,5.36l1.74.32a5.85,5.85,0,0,0,1.18.13,1.62,1.62,0,0,0,.67-.17,2.47,2.47,0,0,0,.53-.36,4.55,4.55,0,0,0,.54-.54l.57-.66.51.1-2.49,5.64-.62-.11.12-.73a1.66,1.66,0,0,0-.21-1.16,1.1,1.1,0,0,0-.55-.39,6,6,0,0,0-.92-.24l-1.74-.32L228,62.68a1.79,1.79,0,0,0-.09,1.76,1.89,1.89,0,0,0,1.28.63,4.73,4.73,0,0,0,2.84-.26,7.1,7.1,0,0,0,2.83-2.51l.35-.49Z" transform="translate(-145.1 -14.16)"/><path class="cls-1" d="M257.29,72.26c-2.36-.67-4.72-1.27-7.08-1.83.12-.26.24-.52.35-.78l.36,0a3.17,3.17,0,0,0,1.77-.29,1.38,1.38,0,0,0,.59-.57,9.33,9.33,0,0,0,.57-1.07c1.11-2.74,2.21-5.48,3.32-8.19-3.1,3.41-6.21,6.93-9.31,10.51l-.66-.14q.44-6,.86-11.9c-1.15,2.26-2.29,4.53-3.44,6.8l-.19.42c-.08.15-.15.31-.22.46a6.57,6.57,0,0,0-.36,1,1.25,1.25,0,0,0,0,.7,1.16,1.16,0,0,0,.41.52,2.41,2.41,0,0,0,.71.39l.37.14-.36.79c-1.84-.39-3.69-.77-5.53-1.13.13-.26.26-.53.38-.79h.35a2.51,2.51,0,0,0,.62-.1,3.27,3.27,0,0,0,.81-.37,3.54,3.54,0,0,0,.9-1L243,65c1.44-2.53,2.89-5,4.33-7.55.15-.35.31-.7.46-1a1.3,1.3,0,0,0,.13-.56,1,1,0,0,0-.1-.47,1.54,1.54,0,0,0-.44-.47,3.47,3.47,0,0,0-.52-.33l-.22-.15c.12-.26.23-.52.35-.79,1.62.36,3.23.74,4.85,1.13l-.24.54a1.29,1.29,0,0,0-.19.21,2.13,2.13,0,0,0-.16.25,3.66,3.66,0,0,0-.13.37c0,.16-.09.26-.11.31-.21,3-.43,6.08-.64,9.12q3.41-3.83,6.81-7.5a1.76,1.76,0,0,0,.36-.49,1.22,1.22,0,0,0,.1-.34,1.07,1.07,0,0,0,0-.4l.22-.47c1.74.5,3.49,1,5.23,1.61l-.35.75h-.39a7.13,7.13,0,0,0-.78,0,1.65,1.65,0,0,0-.73.23,2.31,2.31,0,0,0-.63.56,3.66,3.66,0,0,0-.45.72l-3.36,8.4a3.83,3.83,0,0,0-.29,1,1.61,1.61,0,0,0,.09.69,1.18,1.18,0,0,0,.41.55,3.7,3.7,0,0,0,.65.38l.36.18C257.52,71.74,257.4,72,257.29,72.26Z" transform="translate(-145.1 -14.16)"/><path class="cls-1" d="M277.28,79.69c-2.08-1-4.16-1.91-6.24-2.76l.36-.72.43.08.64.11a.78.78,0,0,0,.57-.19,1.67,1.67,0,0,0,.41-.53,2.55,2.55,0,0,0,.23-.81c.12-1,.24-1.93.37-2.89q-1.94-.86-3.87-1.62l-2,2.36A2.35,2.35,0,0,0,268,73l-.15.27a1.42,1.42,0,0,0-.16.59.93.93,0,0,0,.1.42,1.92,1.92,0,0,0,.48.54,2.92,2.92,0,0,0,.75.39l.37.15c-.12.24-.23.49-.35.73q-2.92-1.12-5.85-2.08c.12-.24.23-.48.34-.72l.39.09a1.25,1.25,0,0,0,.64,0l.63-.19a3.31,3.31,0,0,0,.65-.4,4.72,4.72,0,0,0,.69-.57c2.77-2.86,5.55-5.61,8.32-8.22l.17-.71a3.7,3.7,0,0,0,.67,0c.21,0,.44-.08.69-.14a4.25,4.25,0,0,0,1.07-.42l.51.25q-.74,6.67-1.48,13.37a3,3,0,0,0,.11,1.43,3.21,3.21,0,0,0,.4.6,1.58,1.58,0,0,0,.47.46l.19.09Zm-3.06-9.36c.14-1.53.29-3.06.43-4.58-1.11,1.09-2.23,2.21-3.34,3.34C272.28,69.49,273.25,69.9,274.22,70.33Z" transform="translate(-145.1 -14.16)"/><path class="cls-1" d="M297.7,86.91c-.35.33-.66.61-.94.84s-.65.52-1.13.87l-.79.61a4.13,4.13,0,0,1-.81.5,108.65,108.65,0,0,0-10.91-7l.35-.67.41.2a3.34,3.34,0,0,0,.84.33,2,2,0,0,0,.75.06,1.59,1.59,0,0,0,.8-.36,4.36,4.36,0,0,0,.79-1.14c1.22-2.24,2.43-4.44,3.65-6.6a1.87,1.87,0,0,0,.22-.84,1.55,1.55,0,0,0-.15-.73,3,3,0,0,0-.42-.61c-.18-.2-.44-.47-.76-.78l-.31-.29.36-.63q3.62,2.37,7.23,5.19l-.36.59-.35-.17c-.49-.24-.8-.39-.94-.44a1.61,1.61,0,0,0-.79-.15,1.09,1.09,0,0,0-.47.14,2.36,2.36,0,0,0-.79.91q-2.24,3.9-4.47,8l1.21.79.52.34a11.66,11.66,0,0,0,1.35.81,4.4,4.4,0,0,0,1.64.47,10.54,10.54,0,0,0,1.51-.09,6,6,0,0,0,1.37-.37l1-.37Z" transform="translate(-145.1 -14.16)"/><path class="cls-1" d="M315.42,109.74q-3.12-3.61-6.23-6.8l.35-.51.43.35c.35.29.57.46.64.51a.79.79,0,0,0,.57.18.68.68,0,0,0,.41-.28,1.43,1.43,0,0,0,.23-.66c.12-.88.25-1.77.37-2.65q-1.94-2.1-3.86-4c-.66.38-1.32.77-2,1.18a1,1,0,0,0-.23.19,1.5,1.5,0,0,0-.14.18.86.86,0,0,0-.17.5,1.12,1.12,0,0,0,.11.47,3.45,3.45,0,0,0,.48.83,6.62,6.62,0,0,0,.74.83c.12.13.25.25.37.37l-.35.52c-2-1.91-3.89-3.7-5.84-5.38.11-.18.22-.36.34-.54.13.1.26.2.38.31a2.21,2.21,0,0,0,.64.38l.63.16a2.38,2.38,0,0,0,.66,0,2.81,2.81,0,0,0,.68-.18A57.12,57.12,0,0,1,313,92.5l.16-.61a6,6,0,0,0,.67.42,6.57,6.57,0,0,0,.7.33,4,4,0,0,0,1.06.29l.51.61q-.74,6.17-1.48,12.36a3.74,3.74,0,0,0,.11,1.51,8.55,8.55,0,0,0,.4.87,3.93,3.93,0,0,0,.48.78l.18.22Zm-3.06-11.39c.14-1.44.29-2.88.43-4.31-1.11.37-2.22.78-3.34,1.23C310.42,96.26,311.39,97.29,312.36,98.35Z" transform="translate(-145.1 -14.16)"/></svg>