<svg id="Capa_8" data-name="Capa 8" xmlns="http://www.w3.org/2000/svg" viewBox="0 0 616.49 653.07"><defs><style>.cls-1{fill:#b5b19d;}</style></defs><title>orinoco</title><path class="cls-1" d="M733,65.69c3.42,2.34,6.86,4.67,10.26,7,7.32,5.1,14,11.07,21.4,16.06,2.79,1.87,5.66,2.12,8.56,2.54A31.51,31.51,0,0,1,794.88,104c2.67,3.51,7,4,10.78,5.36,1.27.46,2.38-1.07,3.35-2,5.53-5.46,8.67-5.1,13.72.8,4.08,4.77,7.61,10,12.16,14.4,4.24,4.15,6.34,10.07,9.34,15.23,4.65,8,8.74,16.26,11.29,25.22a31.67,31.67,0,0,1,1.42,11.49,4.55,4.55,0,0,0,3.06,4.95c1.81.63,3.56-.91,4.75-2.43.9-1.15,1.44-2.58,2.34-3.73,2.68-3.46,7.2-3.32,9.46.41,3.47,5.76,6.61,11.73,8.38,18.26a4.29,4.29,0,0,0,3.14,3.4,28.34,28.34,0,0,1,3.81,1.48c2.18,1,3.81,1.5,5.28-1.38,1.16-2.28,3.74-2.88,6.36-2.17a16.45,16.45,0,0,1,8,4.79c5,5.41,9.92,10.83,15.06,16.07a58.13,58.13,0,0,0,7.5,6.22c7.44,5.37,13.89,11.83,20.53,18.11,7.39,7,14,14.91,23,20S995,269.05,1005,271.72c3.29.88,4.49,3.16,5,6.11a44.2,44.2,0,0,1-1.35,22.09c-3.54,10.95-8.11,21.41-17.52,28.94-4.55,3.63-9.76,6.15-14.56,9.34a6.44,6.44,0,0,0-2.88,3.18c-2.78,8-8.34,14.06-14,20-6.35,6.69-10.57,14.3-12,23.39-1.59,9.79-.1,19.24,3.53,28.36,4.19,10.56,8.4,21.07,7.22,32.85a36.06,36.06,0,0,0,.65,8.76c1.32,8.63-1.55,16.06-6.26,23-1.17,1.74-2.2,3.58-3.36,5.32-1.52,2.29-3.75,3.93-6.39,2.85-6.36-2.62-13.56-3.92-18.52-9-10.48-10.8-20-22.26-20.44-38.46-.06-2.09-.51-4.16-.73-6.24-.42-4.1-2.47-6.45-6.55-7.81-4.5-1.5-9.23-1.93-13.66-3.6-1.36-.52-2.45.3-3.55.83-5.72,2.73-10.74,6.52-15.72,10.4-8.6,6.71-17.81,12.65-25.65,20.31-8.47,8.28-19.15,11.54-30.33,13.84-10.18,2.08-20,5.69-30.05,8.15a63.42,63.42,0,0,1-19,1.75c-6.12-.38-12.1,1.13-18.17,1.48a109.48,109.48,0,0,1-19.16-.09,40.69,40.69,0,0,0-19.51,2.28c-6.22,2.38-12.81,3.24-19.29,4.36a27,27,0,0,1-15.66-2.28c-5.56-2.45-11.4-4.24-17.1-6.37a13.59,13.59,0,0,1-4.27-2c-4-3.55-8.55-2.56-13.29-2.43-9.12.24-18.11,1.87-27.23,1.89-5.59,0-11.06-1.08-16.6-1.48-2.42-.17-2.35.47-1.52,2.33,3.65,8.14,8.11,15.62,15.34,21.2a27,27,0,0,1,5.63,5.91c1.85,2.64,2.87,5.3,1.57,8.52-1.18,2.93,0,5.31,2.11,7.36,5.93,5.78,9.54,12.78,12.19,20.62,2.5,7.4,6.27,14.36,9.33,21.58,3,7,6.28,13.91,7.53,21.58A28.78,28.78,0,0,1,635,603.63q-9.45,12.39-18.83,24.83a25.16,25.16,0,0,1-11.76,8.59c-10.53,3.83-21,7.75-30.85,13.31-8.07,4.55-17,7.45-24.72,12.86a6.22,6.22,0,0,1-4.74,1.41c-3.59-.75-5.62,1.42-7.1,3.91-3.64,6.11-9.44,7.93-15.9,8.59-3.11.32-6.26.27-9.35.68-3.91.51-5.27,2-6,5.74-1,4.82-3.34,5.78-7.24,2.92a20.5,20.5,0,0,1-6.35-7.32c-5.2-10.33-13.45-18.44-20.08-27.72-4.86-6.82-10.75-12.94-13.69-21a35.66,35.66,0,0,1-2-17.91,177.28,177.28,0,0,0,2.11-18.41,12.32,12.32,0,0,1,11.06-11.47,31.27,31.27,0,0,1,8.47.24,5.38,5.38,0,0,0,6.29-3c1.83-3.71,3.29-7.59,3-11.76-.25-3.65,1.22-7.18.2-10.91-.54-2,1.75-3.33,3.85-2.56,1.18.43,2.25,1.14,3.38,1.68a9,9,0,0,0,11.49-2.84c.65-.89.24-1.59,0-2.36-1.67-6.44-.19-11.7,5.3-15.86,3.59-2.72,6.78-6,10.61-8.38,1.34-.84,1.06-1.43.15-2.4-6.12-6.51-11-14-16.86-20.73-4.95-5.7-10.55-11.2-17.75-14.24-5.64-2.37-10.3-6-14.77-10l-12.86-11.58a36.44,36.44,0,0,0-9-5.66,7.79,7.79,0,0,0-4.92-.5c-5.35,1-10.72,1.95-16.06,3a10.09,10.09,0,0,0-5.51,3.43c-2.63,2.93-4.57,3.72-7.64,1.49-7.25-5.26-15-10.22-18.13-19.4a36.77,36.77,0,0,0-2.7-5.67c-2.62-4.77-1.53-9.75-1.2-14.77.61-9.36,4.13-17.8,7.12-26.55,5.08-14.85,10.53-29.64,13.58-45.15,1.47-7.48,4.35-14.69,4.61-22.43.17-5.26,1.4-10.54-.87-15.77-1.36-3.14.75-6.61,4.79-8,9-3.08,16.63-8.49,24-14.27a46.57,46.57,0,0,0,16.72-25.25c1.42-5.35,3-10.67,4.47-16a15.41,15.41,0,0,1,2.83-5.19c7.85-10.54,18.78-17.1,29.69-23.91,17.17-10.73,36.33-16.2,55.33-22.13,8.37-2.62,17-3.13,25.19.83a47.08,47.08,0,0,1,13.45,10.12c5.14,5.41,9.31,4.17,12.57-1.25.71-1.17,1.35-2.37,2-3.57,1.65-3,1.83-5.89-.62-8.72a45.82,45.82,0,0,1-3.08-4.74c-5.06-7.57-2.28-14.4,2.13-20.94,1.89-2.81,3.22-5.89,4.89-8.8a4.07,4.07,0,0,0,.32-3.95c-1.75-2.75-2.35-6.06-5-8.44a175,175,0,0,1-14.52-14.43c-4.24-4.81-5.18-10.63-2.94-16.79,1.86-5.13,3.77-10.25,5.59-15.39C600,101,602.5,92.8,603,84.1c.1-1.71-.24-3.34-.2-5,.06-3.53,2-4.75,5.4-4.33,4.26.54,8.54-.35,12.72-1.32a127.16,127.16,0,0,0,25.7-9.24c2.75-1.31,3.07-3.6,2.67-6a27,27,0,0,0-1.8-5.35c-2.11-5.36.19-8.38,5.84-8.77,9.8-.68,19.64-1.12,29.37-2.71a69.09,69.09,0,0,1,12.52-1,165.28,165.28,0,0,0,39.34-4c4.89-1.08,10-1,15-1.21a70.58,70.58,0,0,1,19,1.44,20.9,20.9,0,0,1,3.64.94c6.62,2.75,7.68,7.72,2.54,12.71a55.78,55.78,0,0,0-7.72,9.51A11.5,11.5,0,0,1,757.9,65a59.73,59.73,0,0,1-11.27.19c-4.38-.4-8.81-.09-13.22-.09Z" transform="translate(-394.35 -35)"/></svg>