<svg id="Capa_9" data-name="Capa 9" xmlns="http://www.w3.org/2000/svg" viewBox="0 0 208.35 221.86"><defs><style>.cls-1{fill:#b5b19d;}</style></defs><title>panama</title><path class="cls-1" d="M635.42,285.81c-6.49.06-8.91,2-10.26,7.87-1.72,7.42-9.1,14.33-16.41,15.35s-9.23-.3-12.06-7.18a120.23,120.23,0,0,0-13.44-24.16,116.08,116.08,0,0,1-6.72-10.79c-1.95-3.46-.08-9.57,4-13.88,3.25-3.44,5.64-3.91,10.36-1.92,5.37,2.28,10,6,16,7.2,3.12.61,5,.27,6.13-2.92.92-2.58,2.06-5,2.09-7.88.08-7,4.12-9.85,11.36-9.43,8.69.51,17.46,1.44,26.11-.42,3.28-.71,6.4-2.14,9.68-2.84,4.92-1.05,6.22,0,6.82,5,.8,6.69.82,6.61,7.37,8A391.76,391.76,0,0,1,717.84,259c11.37,3.74,19.75,11.34,25.54,21.8.06.11.17.21.18.32,1.77,11.29,11.43,14.62,19.67,19.14,8.64,4.72,15.24,11.18,19.5,20,1.65,3.42,2.41,6.36-1.21,9.58-4.27,3.79-5.43,8.88-3.73,14.7,1.54,5.26,1.41,10.84,1.91,16.3.86,9.3,2.56,18.52,2,27.94a41,41,0,0,1-5.57,18.68,46,46,0,0,1-14,15.1c-4.69,3.27-6.34,9.12-9.08,14-3,5.44-5.65,11.14-8.71,16.57-1.88,3.35-4.55,4.2-7.47,1.88-6.66-5.29-14.86-8.67-19.64-16.35-6.13-9.86-11.36-20-14.52-31.29-4.31-15.39-4.22-31-4.62-46.72-.31-12.38-4.7-23.88-14.16-32.4-8.12-7.3-15.15-15.51-22.45-23.54-5.3-5.84-10-12.48-17.25-16.38A21.29,21.29,0,0,0,635.42,285.81Z" transform="translate(-575.76 -234.45)"/></svg>