<svg id="Capa_10" data-name="Capa 10" xmlns="http://www.w3.org/2000/svg" viewBox="0 0 372.41 368.24"><defs><style>.cls-1{fill:#b5b19d;}</style></defs><title>venezuela</title><path class="cls-1" d="M525.24,172.42c15.46,0,22.29,6.41,23.16,18.82.28,3.95.5,7.87,4.56,10.39,2.25,1.4,3.07,4.1,3.7,6.73,1.4,5.85,4.41,7.68,10.34,6.51,4.79-1,9.43.09,14.06,1.08,10,2.14,20.26,2.65,30,6a39.31,39.31,0,0,1,12.53,6.46,61.69,61.69,0,0,1,18.92,25c4.49,11,7.41,22.51,12.12,33.4,2.23,5.13,3.69,6,8.81,3.59a39,39,0,0,1,14.43-3.61,218,218,0,0,0,22.26-2.66c9.25-1.44,18.46,1,27.65-.05,9.65-1.06,19.23-.33,28.71,1,28.48,3.94,55.37,12.76,80,27.82a51.92,51.92,0,0,1,21.71,26.48c2.13,5.67,1.66,12.28,2.9,18.35,1.72,8.4-1.17,15.7-4.42,23.06-2.26,5.13-3,10.8-5.37,15.91-.26.55-.21,1.3-.56,1.77-4.44,6-.94,9.62,3.1,14.19,6.9,7.82,13.41,16.14,16.38,26.52,2.23,7.82,2.16,15.31-1.9,22.71-2.44,4.46-3.92,9.42-6.31,14-1.27,2.42,0,4.67,2.16,6.15a20.88,20.88,0,0,1,5.16,5.37c6.88,9.95,2.7,22-4.68,27.41A12,12,0,0,1,854,517c-7.83-2.36-16.52-3.09-22.82-8.78-8.73-7.88-18.69-6.62-28.38-4.24-24.94,6.13-47.61,17.79-69.83,30.35-3.67,2.08-7.48,3.91-11.22,5.87-1.12.6-2.36.75-3-.32-3.93-6.17-10.59-9.42-15.43-14.59-7.85-8.38-15.89-16.54-24.91-23.73a37.26,37.26,0,0,0-10.45-5.63c-9.55-3.58-18.84-8.18-28.66-10.68-18.12-4.61-35.19-12-52.47-18.69a133.43,133.43,0,0,1-44.1-27.7c-4.91-4.67-7-10.64-7.86-17s-1.05-12.91-1.54-19.38c-.93-12.08,2.35-23.62,5.83-34.83,2.45-7.88,3.43-15.78,4.48-23.76.81-6.19,2.26-12.24,3.4-18.35,2.57-13.67,5.26-27.31.77-41.33-3.07-9.57-4.77-19.59-7.06-29.42a16.59,16.59,0,0,0-5.54-9.52c-7.58-6.2-11.56-14.55-14.22-23.72a21.38,21.38,0,0,1-.53-6.31c0-5.86.06-5.81-5.61-6.77a20.25,20.25,0,0,1-9.45-4.24c-7.67-6.17-5.92-17.92,1.92-24C513.36,175.54,520.38,172.59,525.24,172.42Z" transform="translate(-500.42 -172.42)"/></svg>